<?xml version="1.0" encoding="utf-8"?>
<!-- Generator: Adobe Illustrator 23.1.0, SVG Export Plug-In . SVG Version: 6.00 Build 0)  -->
<svg version="1.1" id="Шар_1" xmlns="http://www.w3.org/2000/svg" xmlns:xlink="http://www.w3.org/1999/xlink" x="0px" y="0px"
	 viewBox="0 0 50 50" style="enable-background:new 0 0 50 50;" xml:space="preserve">
<style type="text/css">
	.st0{clip-path:url(#SVGID_2_);}
	.st1{fill:#2D3039;}
	.st2{fill:#D1D4D2;}
	.st3{fill:#F0C418;}
	.st4{fill:#BEC4C8;}
</style>
<g>
	<defs>
		<rect id="SVGID_1_" width="50" height="50"/>
	</defs>
	<clipPath id="SVGID_2_">
		<use xlink:href="#SVGID_1_"  style="overflow:visible;"/>
	</clipPath>
	<g class="st0">
		<path class="st1" d="M33.1,12.7c-0.1,0-0.3,0-0.4-0.1c-0.1-0.1-0.2-0.1-0.3-0.3c-0.1-0.1-0.1-0.2-0.2-0.4s0-0.3,0-0.4l2.4-8.1
			c0.1-0.3,0-0.6-0.1-0.9c-0.1-0.1-0.2-0.2-0.3-0.3c-0.1-0.1-0.2-0.1-0.4-0.2L31,1.7c-0.1,0-0.2-0.1-0.3-0.1
			c-0.1-0.1-0.2-0.1-0.3-0.2c-0.1-0.1-0.1-0.2-0.1-0.3c0-0.1,0-0.2,0-0.3c0-0.1,0.1-0.2,0.1-0.3c0.1-0.1,0.1-0.2,0.2-0.3
			C30.7,0.1,30.8,0,30.9,0c0.1,0,0.2,0,0.3,0l2.9,0.5c0.4,0.1,0.7,0.2,1,0.4c0.3,0.2,0.6,0.5,0.8,0.8c0.2,0.3,0.3,0.7,0.4,1.1
			s0,0.8-0.1,1.2L34,12.1c-0.1,0.2-0.2,0.3-0.3,0.5C33.5,12.7,33.3,12.7,33.1,12.7z"/>
		<path class="st1" d="M49.1,20.6c-0.2,0-0.4-0.1-0.6-0.2c-0.2-0.1-0.3-0.3-0.3-0.5L47.8,17c-0.1-0.3-0.2-0.5-0.5-0.6
			c-0.1-0.1-0.3-0.1-0.4-0.2c-0.2,0-0.3,0-0.5,0l-8.1,2.3c-0.1,0-0.2,0-0.3,0c-0.1,0-0.2,0-0.3-0.1c-0.1-0.1-0.2-0.1-0.3-0.2
			c-0.1-0.1-0.1-0.2-0.2-0.3c0-0.1,0-0.2,0-0.3c0-0.1,0-0.2,0.1-0.3c0.1-0.1,0.1-0.2,0.2-0.3c0.1-0.1,0.2-0.1,0.3-0.2l8.1-2.3
			c0.4-0.1,0.8-0.1,1.2-0.1c0.4,0.1,0.8,0.2,1.1,0.4c0.3,0.2,0.6,0.5,0.8,0.8c0.2,0.3,0.4,0.7,0.4,1l0.5,2.9c0,0.1,0,0.3,0,0.4
			c0,0.1-0.1,0.2-0.2,0.3c-0.1,0.1-0.2,0.2-0.3,0.2C49.4,20.6,49.3,20.6,49.1,20.6z"/>
		<path class="st2" d="M47.8,40.5c-0.1,3.4-2.2,5.9-4.9,7.6c-1.2,0.8-2.5,1.3-3.9,1.5c-1.4,0.2-2.8,0.1-4.1-0.4
			c-0.7,0.3-1.5,0.6-2.3,0.7c-6.2,1.1-9-3.7-10.2-6.8h0c-1,0.8-2,1.5-3.1,2.1c-2,1.2-4.1,2-6.4,2.4c-3.4,0.6-6.4,0-8.5-2
			c-2-2-2.7-5.1-2-8.5c0.4-2.3,1.3-4.4,2.4-6.4c0.6-1.1,1.3-2.1,2.1-3.1c-3.1-1.2-7.9-4-6.8-10.2c0.1-0.8,0.4-1.6,0.7-2.3v0
			c-0.4-1.3-0.6-2.7-0.4-4.1C0.7,9.5,1.2,8.2,2,7.1c1.6-2.7,4.2-4.8,7.6-4.9c0.7,0,1.4,0.1,2.2,0.2c6.1,1.2,10.5,6.8,12.7,12.5
			c0.4-0.9,0.9-1.6,1.6-2.3c1.3-1.3,3.8-1.8,6.3-1.9c1.7,0,3.4,0.1,5,0.3c0.4,0,0.9,0.2,1.2,0.5c0.3,0.3,0.5,0.7,0.6,1.2
			c0.2,1.7,0.3,3.4,0.3,5.1c-0.1,2.4-0.6,4.9-1.9,6.3c-0.7,0.7-1.4,1.2-2.3,1.6c5.7,2.2,11.2,6.6,12.5,12.7
			C47.8,39,47.8,39.7,47.8,40.5z"/>
		<path class="st3" d="M39.3,17.8c-0.1,2.4-0.6,4.9-1.9,6.3c-0.7,0.7-1.4,1.2-2.3,1.6c-0.3-0.1-0.7-0.3-1-0.4
			c-0.8-0.3-1.7-0.5-2.5-0.7c-0.5-3.2-3-5.7-6.2-6.2h0c-0.2-0.8-0.4-1.7-0.7-2.5l0,0c-0.1-0.3-0.2-0.7-0.4-1v0
			c0.4-0.9,0.9-1.6,1.6-2.3c1.3-1.3,3.8-1.8,6.3-1.9c1.7,0,3.4,0.1,5,0.3c0.4,0,0.9,0.2,1.2,0.5c0.3,0.3,0.5,0.7,0.6,1.2
			C39.3,14.4,39.4,16.1,39.3,17.8z"/>
		<path class="st4" d="M26.2,23.8c-0.7,1-1.6,1.9-2.6,2.6C24.4,25.4,25.2,24.5,26.2,23.8z"/>
		<path class="st2" d="M47.8,40.5c-0.1,3.4-2.2,5.9-4.9,7.6c-1.2,0.8-2.5,1.3-3.9,1.5c-1.4,0.2-2.8,0.1-4.1-0.4
			c0.9-0.4,1.7-0.9,2.4-1.7c0.7-0.7,1.2-1.5,1.6-2.5c0.2-0.6,0.4-1.2,0.5-1.9c1.1-7.4-4.9-14.8-10.4-18c-0.8-0.5-1.5-0.9-2.4-1.3
			c1,0,2,0.2,3,0.4c0.6,0.1,1.3,0.2,2,0.4c0.8,0.2,1.7,0.4,2.5,0.7c0.3,0.1,0.7,0.2,1,0.4c5.7,2.2,11.2,6.6,12.5,12.7
			C47.8,39,47.8,39.7,47.8,40.5z"/>
		<path class="st4" d="M39.5,43.1c-0.1,0.6-0.3,1.3-0.5,1.9c-0.4,0.9-0.9,1.8-1.6,2.5c-0.7,0.7-1.5,1.3-2.4,1.7
			c-0.7,0.3-1.5,0.6-2.3,0.7c-6.2,1.1-9-3.7-10.2-6.8c-0.3-0.8-0.6-1.6-0.7-2.5c0,0-2.7-8,1.9-14.1l0,0c1-0.7,1.9-1.6,2.6-2.6
			c0,0,0,0,0,0c0.1-0.1,0.2,0,0.4,0.1c0,0,0,0,0,0h0c0.8,0.4,1.6,0.8,2.4,1.3C34.6,28.3,40.6,35.7,39.5,43.1z"/>
		<path class="st4" d="M26.2,23.8c-0.7,1-1.6,1.9-2.6,2.6C24.4,25.4,25.2,24.5,26.2,23.8z"/>
		<path class="st1" d="M6.7,46.3C4.2,46.7,2,48,0.2,49.8c1.8-1.7,3-4,3.5-6.4L6.7,46.3z"/>
		<path class="st1" d="M19.4,45.1L19.4,45.1c-2,1.2-4.1,2-6.4,2.4c-0.3-2.7-1.6-5.2-3.5-7c-1.9-1.9-4.4-3.1-7-3.5
			c0.4-2.3,1.3-4.4,2.4-6.4c3.6,0.5,7,2.2,9.6,4.8C17.2,38.1,18.9,41.5,19.4,45.1z"/>
		<path class="st3" d="M13,47.5c-3.4,0.6-6.4,0-8.5-2c-2-2-2.7-5.1-2-8.5c2.7,0.3,5.2,1.5,7,3.5C11.4,42.4,12.7,44.9,13,47.5z"/>
		<path class="st4" d="M26.3,23.7C26.2,23.7,26.2,23.8,26.3,23.7c-1,0.8-1.9,1.7-2.6,2.6l0,0C17.5,31,9.5,28.3,9.5,28.3
			c-0.8-0.2-1.7-0.4-2.5-0.7c-3.1-1.2-7.9-4-6.8-10.2c0.1-0.8,0.4-1.6,0.7-2.3v0c0.4-0.9,0.9-1.7,1.7-2.4C3.2,11.9,4.1,11.4,5,11
			c0.6-0.2,1.2-0.4,1.9-0.5c7.4-1.1,14.8,4.9,18,10.4c0.5,0.8,0.9,1.5,1.3,2.4v0C26.3,23.5,26.3,23.7,26.3,23.7z"/>
		<path class="st2" d="M26.2,23.3c-0.4-0.8-0.8-1.6-1.3-2.4c-3.2-5.5-10.6-11.5-18-10.4C6.2,10.6,5.6,10.8,5,11
			c-0.9,0.4-1.8,0.9-2.5,1.6c-0.7,0.7-1.3,1.5-1.7,2.4c-0.4-1.3-0.6-2.7-0.4-4.1C0.7,9.5,1.2,8.2,2,7.1c1.6-2.7,4.2-4.8,7.6-4.9
			c0.7,0,1.4,0.1,2.2,0.2c6.1,1.2,10.5,6.8,12.7,12.5v0c0.1,0.3,0.3,0.7,0.4,1l0,0c0.3,0.8,0.5,1.7,0.7,2.5c0.2,0.6,0.3,1.3,0.4,2
			C26,21.3,26.2,22.3,26.2,23.3z"/>
		<path class="st1" d="M31.6,24.5c-0.7-0.2-1.3-0.3-2-0.4c-1-0.2-2-0.3-3-0.4h0c0,0,0,0,0,0c-0.2-0.1-0.4-0.1-0.4-0.1c0,0,0,0,0,0
			c0,0,0,0,0,0c0.1-0.1,0-0.2-0.1-0.4v0c0-1-0.2-2-0.4-3c-0.1-0.7-0.2-1.3-0.4-2h0C28.6,18.9,31.1,21.4,31.6,24.5z"/>
		<path class="st3" d="M21.7,40.5c0.2,0.8,0.4,1.7,0.7,2.5h0c-1,0.8-2,1.5-3.1,2.1v0c-0.5-3.7-2.2-7-4.8-9.6c-2.6-2.6-6-4.3-9.6-4.8
			c0.6-1.1,1.3-2.1,2.1-3.1c0.8,0.3,1.6,0.6,2.5,0.7c0,0,8,2.7,14.1-1.9C19,32.5,21.7,40.5,21.7,40.5z"/>
	</g>
</g>
</svg>
