<?xml version="1.0" encoding="utf-8"?>
<!-- Generator: Adobe Illustrator 23.1.0, SVG Export Plug-In . SVG Version: 6.00 Build 0)  -->
<svg version="1.1" id="Шар_1" xmlns="http://www.w3.org/2000/svg" xmlns:xlink="http://www.w3.org/1999/xlink" x="0px" y="0px"
	 viewBox="0 0 150 150.7" style="enable-background:new 0 0 150 150.7;" xml:space="preserve">
<style type="text/css">
	.st0{fill:#3B484A;}
	.st1{fill:#B3B3B3;}
	.st2{fill:#999999;}
	.st3{fill:#D9D9D9;}
	.st4{fill:#FAA330;}
	.st5{fill:#F09318;}
</style>
<g>
	<path class="st0" d="M11,83.3l6.9-1.2l3.1-8.8l-3.5,0.9L11,83.3z"/>
	<path class="st1" d="M43.7,128.4l-8.6,0.5l-9,9c-2,2-5.4,2-7.4,0l-6-6c-0.7-0.7-1.1-1.5-1.4-2.4c-0.2-0.9-0.2-1.8,0-2.7l6.8-14.9
		l1.1-9.5l-9.5,1.1l-8.7,19c-0.1,0.2-0.2,0.4-0.2,0.6c-1.9,5.9-0.4,12.3,4,16.7l6,6c6.4,6.4,16.8,6.4,23.3,0l9-9L43.7,128.4z"/>
	<path class="st2" d="M131.8,0.3l-0.2,0c-4.8-1.2-9.6,1.7-10.8,6.5l8.9,2.2L131.8,0.3z"/>
	<path class="st2" d="M150,23.5l-0.1-0.2c-1.3-4.7-6.3-7.5-11-6.2l2.5,8.8L150,23.5z"/>
	<path class="st2" d="M62.5,42.6l-0.1,0.1c-3.5,3.5-3.5,9.1,0,12.6l4,4l6.5-6.5L62.5,42.6z"/>
	<path class="st2" d="M76.2,28.9L76,29.1c-3.5,3.5-3.5,9.1,0,12.6l4,4l6.5-6.5L76.2,28.9z"/>
	<path class="st2" d="M89.9,15.3l-0.1,0.1c-3.5,3.5-3.5,9.1,0,12.6l4,4l6.5-6.5L89.9,15.3z"/>
	<path class="st2" d="M103.5,1.6l-0.1,0.1c-3.5,3.5-3.5,9.1,0,12.6l4,4l6.5-6.5L103.5,1.6z"/>
	<path class="st2" d="M140.8,51.7l0.1-0.1c3.5-3.5,3.5-9.1,0-12.6l-4-4l-6.5,6.5L140.8,51.7z"/>
	<path class="st2" d="M127.1,65.4l0.1-0.1c3.5-3.5,3.5-9.1,0-12.6l-4-4l-6.5,6.5L127.1,65.4z"/>
	<path class="st2" d="M113.4,79.1l0.1-0.1c3.5-3.5,3.5-9.1,0-12.6l-4-4l-6.5,6.5L113.4,79.1z"/>
	<path class="st2" d="M99.7,92.8l0.1-0.1c3.5-3.5,3.5-9.1,0-12.6l-4-4l-6.5,6.5L99.7,92.8z"/>
	<path class="st1" d="M135.8,13.1c-8.6-8.6-22.5-8.6-31.1,0L55.9,61.8l4.3,26.7L87,92.9l48.7-48.7C144.4,35.6,144.4,21.6,135.8,13.1
		z"/>
	<path class="st3" d="M128.6,20.2c-4.6-4.6-12.2-4.6-16.8,0L63.1,68.9l2.2,14.6l14.6,2.2L128.6,37C133.3,32.4,133.3,24.8,128.6,20.2
		z"/>
	<path class="st2" d="M14.2,120.9l4-8.8l1.1-9.5l-9.5,1.1l-4,8.8L14.2,120.9z"/>
	<path class="st2" d="M36.6,143.3l6.4-6.4l0.6-8.4l-8.6,0.5l-6.4,6.4L36.6,143.3z"/>
	<path class="st2" d="M61.3,56.4l-5.4,5.4l4.3,26.7L87,92.9l5.4-5.4L61.3,56.4z"/>
	<path class="st1" d="M68.4,63.6l-5.4,5.4l2.2,14.6l14.6,2.2l5.4-5.4L68.4,63.6z"/>
	<path class="st4" d="M55.9,61.8c-6.5-6.5-17-6.5-23.4,0L6.3,88c-3.3,3.3-3.3,8.7,0,12.1L43,136.9l44-44L55.9,61.8z"/>
	<path class="st5" d="M13.6,95.3l26.2-26.2c6.5-6.5,17-6.5,23.4,0l-7.3-7.3c-6.5-6.5-17-6.5-23.4,0L6.3,88c-3.3,3.3-3.3,8.7,0,12.1
		l7.3,7.3C10.2,104,10.2,98.6,13.6,95.3z"/>
	<path class="st0" d="M11,83.3L4.2,48.7c-0.9-4.5,0-9.2,2.6-13c2.6-3.8,6.5-6.5,11-7.3c4.5-0.9,9.2,0,13,2.6c3.8,2.6,6.5,6.5,7.3,11
		l8.4,42.6c0.6,3.2-1.4,6.3-4.6,6.9c-3.2,0.6-6.3-1.4-6.9-4.6l-8.4-42.6c-0.6-3-3.5-5-6.5-4.4c-0.7,0.1-1.4,0.4-2,0.8
		c-0.6,0.4-1.1,0.9-1.5,1.5c-0.4,0.6-0.7,1.3-0.8,2c-0.1,0.7-0.1,1.5,0,2.2L21,73.3L11,83.3z"/>
	<path class="st0" d="M46.3,120.1c-0.4,0-0.9-0.1-1.3-0.4c-0.4-0.2-0.7-0.6-0.8-1c-0.2-0.4-0.2-0.9-0.1-1.3c0.1-0.4,0.3-0.8,0.6-1.2
		L60.8,100c0.2-0.2,0.5-0.4,0.7-0.5c0.3-0.1,0.6-0.2,0.9-0.2c0.3,0,0.6,0.1,0.9,0.2c0.3,0.1,0.5,0.3,0.7,0.5
		c0.2,0.2,0.4,0.5,0.5,0.7c0.1,0.3,0.2,0.6,0.2,0.9c0,0.3-0.1,0.6-0.2,0.9c-0.1,0.3-0.3,0.5-0.5,0.7l-16.1,16.1
		c-0.2,0.2-0.5,0.4-0.7,0.5C46.9,120,46.6,120.1,46.3,120.1z"/>
	<path class="st0" d="M39.1,112.8c-0.4,0-0.9-0.1-1.3-0.4c-0.4-0.3-0.7-0.6-0.8-1c-0.2-0.4-0.2-0.9-0.1-1.3c0.1-0.4,0.3-0.8,0.6-1.2
		l10.4-10.4c0.4-0.4,1-0.7,1.6-0.7c0.6,0,1.2,0.2,1.6,0.7c0.4,0.4,0.7,1,0.7,1.6c0,0.6-0.2,1.2-0.7,1.6l-10.4,10.4
		c-0.2,0.2-0.5,0.4-0.7,0.5S39.4,112.8,39.1,112.8z"/>
	<path class="st1" d="M116.7,36.6c2.5,0,4.5-2,4.5-4.5c0-2.5-2-4.5-4.5-4.5c-2.5,0-4.5,2-4.5,4.5C112.3,34.6,114.3,36.6,116.7,36.6z
		"/>
</g>
</svg>
