<?xml version="1.0" encoding="utf-8"?>
<!-- Generator: Adobe Illustrator 23.1.0, SVG Export Plug-In . SVG Version: 6.00 Build 0)  -->
<svg version="1.1" id="Шар_1" xmlns="http://www.w3.org/2000/svg" xmlns:xlink="http://www.w3.org/1999/xlink" x="0px" y="0px"
	 viewBox="0 0 50 48.4" style="enable-background:new 0 0 50 48.4;" xml:space="preserve">
<style type="text/css">
	.st0{fill:#E9473A;}
</style>
<g>
	<path class="st0" d="M48.7,39.2L9.5,1.2c-1.7-1.6-4.5-1.6-6.2,0l-2.1,2c-1.7,1.6-1.7,4.3,0,6l39.2,38c1.7,1.6,4.5,1.6,6.2,0l2.1-2
		C50.4,43.5,50.4,40.9,48.7,39.2z"/>
	<path class="st0" d="M40.5,1.2l-39.2,38c-1.7,1.6-1.7,4.3,0,6l2.1,2c1.7,1.6,4.5,1.6,6.2,0l39.2-38c1.7-1.6,1.7-4.3,0-6l-2.1-2
		C44.9-0.4,42.2-0.4,40.5,1.2z"/>
</g>
</svg>
