<?xml version="1.0" encoding="utf-8"?>
<!-- Generator: Adobe Illustrator 23.1.0, SVG Export Plug-In . SVG Version: 6.00 Build 0)  -->
<svg version="1.1" id="Шар_1" xmlns="http://www.w3.org/2000/svg" xmlns:xlink="http://www.w3.org/1999/xlink" x="0px" y="0px"
	 viewBox="0 0 150 136" style="enable-background:new 0 0 150 136;" xml:space="preserve">
<style type="text/css">
	.st0{fill:url(#SVGID_1_);}
	.st1{fill:url(#SVGID_2_);}
	.st2{fill:url(#SVGID_3_);}
	.st3{fill:url(#SVGID_4_);}
	.st4{fill:#7DAADB;}
	.st5{fill:url(#SVGID_5_);}
	.st6{fill:url(#SVGID_6_);}
	.st7{fill:url(#SVGID_7_);}
	.st8{fill:url(#SVGID_8_);}
	.st9{fill:url(#SVGID_9_);}
	.st10{fill:url(#SVGID_10_);}
	.st11{fill:url(#SVGID_11_);}
	.st12{fill:url(#SVGID_12_);}
	.st13{fill:url(#SVGID_13_);}
	.st14{fill:url(#SVGID_14_);}
	.st15{fill:url(#SVGID_15_);}
	.st16{fill:url(#SVGID_16_);}
	.st17{fill:url(#SVGID_17_);}
	.st18{fill:url(#SVGID_18_);}
	.st19{fill:url(#SVGID_19_);}
	.st20{fill:url(#SVGID_20_);}
	.st21{fill:url(#SVGID_21_);}
	.st22{fill:url(#SVGID_22_);}
	.st23{fill:url(#SVGID_23_);}
	.st24{fill:#E8E8E8;}
	.st25{fill:url(#SVGID_24_);}
	.st26{fill:url(#SVGID_25_);}
	.st27{fill:url(#SVGID_26_);}
	.st28{fill:url(#SVGID_27_);}
	.st29{fill:url(#SVGID_28_);}
	.st30{fill:url(#SVGID_29_);}
	.st31{fill:url(#SVGID_30_);}
	.st32{fill:url(#SVGID_31_);}
	.st33{fill:url(#SVGID_32_);}
	.st34{fill:url(#SVGID_33_);}
	.st35{fill:url(#SVGID_34_);}
	.st36{fill:url(#SVGID_35_);}
	.st37{fill:url(#SVGID_36_);}
	.st38{fill:url(#SVGID_37_);}
	.st39{fill:url(#SVGID_38_);}
	.st40{fill:url(#SVGID_39_);}
	.st41{fill:url(#SVGID_40_);}
	.st42{fill:url(#SVGID_41_);}
	.st43{fill:url(#SVGID_42_);}
	.st44{fill:url(#SVGID_43_);}
	.st45{fill:url(#SVGID_44_);}
	.st46{fill:url(#SVGID_45_);}
	.st47{fill:url(#SVGID_46_);}
	.st48{fill:url(#SVGID_47_);}
	.st49{fill:url(#SVGID_48_);}
	.st50{fill:url(#SVGID_49_);}
	.st51{fill:url(#SVGID_50_);}
	.st52{fill:url(#SVGID_51_);}
	.st53{fill:url(#SVGID_52_);}
	.st54{fill:url(#SVGID_53_);}
	.st55{fill:url(#SVGID_54_);}
	.st56{fill:url(#SVGID_55_);}
	.st57{fill:url(#SVGID_56_);}
	.st58{fill:url(#SVGID_57_);}
	.st59{fill:url(#SVGID_58_);}
	.st60{fill:url(#SVGID_59_);}
	.st61{fill:url(#SVGID_60_);}
	.st62{fill:url(#SVGID_61_);}
	.st63{fill:url(#SVGID_62_);}
	.st64{fill:url(#SVGID_63_);}
	.st65{fill:url(#SVGID_64_);}
	.st66{fill:url(#SVGID_65_);}
	.st67{fill:url(#SVGID_66_);}
	.st68{fill:url(#SVGID_67_);}
	.st69{fill:url(#SVGID_68_);}
	.st70{fill:url(#SVGID_69_);}
	.st71{fill:url(#SVGID_70_);}
	.st72{fill:url(#SVGID_71_);}
	.st73{fill:url(#SVGID_72_);}
	.st74{fill:url(#SVGID_73_);}
	.st75{fill:url(#SVGID_74_);}
	.st76{fill:url(#SVGID_75_);}
	.st77{fill:url(#SVGID_76_);}
	.st78{fill:url(#SVGID_77_);}
	.st79{fill:url(#SVGID_78_);}
	.st80{fill:url(#SVGID_79_);}
	.st81{fill:url(#SVGID_80_);}
	.st82{fill:url(#SVGID_81_);}
	.st83{fill:#260A01;}
</style>
<g>
	
		<linearGradient id="SVGID_1_" gradientUnits="userSpaceOnUse" x1="28.1631" y1="27.8371" x2="11.8569" y2="44.1433" gradientTransform="matrix(1 0 0 -1 0 98)">
		<stop  offset="0.5" style="stop-color:#FE9C0E"/>
		<stop  offset="1" style="stop-color:#FE7F00"/>
	</linearGradient>
	<path class="st0" d="M4.1,75.3c-0.4-2.5-0.9-5-1.4-7.4l-0.2-1.1l0.2,0.1C3.3,66.9,4,67,4.9,67c0.9,0,1.8-0.1,2.7-0.2
		c0.5-0.1,1.1-0.1,1.5-0.1h0.7c2.9-0.1,6.2-0.2,8.9-1.2c0.7-0.3,1.1-0.7,1.2-1.1c0.1-0.5-0.1-1-0.3-1.5c-0.1-0.2-0.2-0.4-0.2-0.6
		c-0.4-1.4-0.7-3-1.1-4.8c-0.6-3.1-1-6.3-0.2-9.1c1.1-3.6,6.3-4.8,9.3-4.9h0.2c1.5,0,3.4,0.2,4.8,1.6c2,2,2.6,4.8,1.5,7
		c-0.5,1.1-1.1,2.1-1.7,3.1c-0.3,0.5-0.6,1-0.8,1.5c-2,3.5-3.9,7-5.7,10.4c-0.2,0.4-0.4,0.7-0.6,1.1c-0.5,0.8-1,1.6-1.2,2.4
		c-0.3,1-0.2,2.1-0.1,3.1c0,0.2,0.1,0.5,0.1,0.8v0.2h-0.2c-0.5,0-1,0.1-1.4,0.1h-0.1l-0.1-0.1c-0.2-0.6-0.4-1.2-0.7-2l-0.1-0.1
		c-0.4-0.8-0.8-1.8-1.4-2.3c-0.2-0.1-0.4-0.2-0.5-0.2c-0.4,0-0.7,0.2-0.8,0.6c-0.2,0.4-0.1,1,0,1.4l0.1,0.2c0.1,0.8,0.4,1.7,0.6,2.4
		v0.2l-1.6,0.1l-0.1-0.2c-0.2-0.8-0.5-1.7-0.8-2.6l-0.1-0.2c-0.2-0.6-0.5-1.5-1.1-1.7c-0.1,0-0.2-0.1-0.3-0.1
		c-0.2,0-0.4,0.1-0.5,0.2c-0.5,0.5-0.5,2,0,4.4l0.1,0.2h-1.3v-0.1c-0.3-1.2-0.5-2.3-1-3.3c-0.2-0.5-0.5-1.2-1.1-1.2
		c-0.4,0-0.7,0.4-0.8,1.3c-0.2,1.1-0.1,2.1,0.1,3.3V75h-0.2c-0.4,0.1-1.2,0.1-1.2,0.1V75c-0.2-1.1-0.5-2.3-1-3.3
		c-0.3-0.7-0.6-1.2-1.1-1.2c-0.6,0-0.8,1-0.8,1.3C6,72.9,6.1,74,6.2,75.1v0.2H6C5.4,75.3,4.8,75.3,4.1,75.3L4.1,75.3L4.1,75.3z
		 M27.9,45.5c-2.4,0-5,1.2-6.1,2.9c-2.1,3.4-1,8.6-0.1,12.8c0.1,0.6,0.3,1.2,0.4,1.8c0.3,1.3,0.7,2,1.2,2c1.2,0,2.7-3,3.6-4.6
		c0.1-0.2,0.2-0.4,0.3-0.5c1.2-2.3,2.5-4.8,3.9-7.5l0.1-0.1c0.7-1.4,1.2-2.5,0.8-4C31.3,45.8,29.1,45.5,27.9,45.5z"/>
	
		<linearGradient id="SVGID_2_" gradientUnits="userSpaceOnUse" x1="28.5019" y1="40.8368" x2="21.214" y2="48.1247" gradientTransform="matrix(1 0 0 -1 0 98)">
		<stop  offset="0.5" style="stop-color:#EF5401"/>
		<stop  offset="1" style="stop-color:#DE2201"/>
	</linearGradient>
	<path class="st1" d="M22.7,62.5c-0.7-3.3-1.3-6.5-1.4-9.9c0-1.9,0.5-3.4,1.7-4.6c1.1-1.1,2.7-1.8,4.3-1.8c0.7,0,1.2,0.1,1.8,0.3
		h0.1v0.1c0.6,1,0.4,2.4,0.2,3.3c-0.4,1.9-1.2,3.7-2,5.2c-1.1,2.1-2.4,4.2-3.6,6.2l-1,1.5L22.7,62.5z"/>
	
		<linearGradient id="SVGID_3_" gradientUnits="userSpaceOnUse" x1="29.7193" y1="39.6449" x2="23.7446" y2="45.6198" gradientTransform="matrix(1 0 0 -1 0 98)">
		<stop  offset="0.5" style="stop-color:#FE9C0E"/>
		<stop  offset="1" style="stop-color:#FE7F00"/>
	</linearGradient>
	<path class="st2" d="M23.7,64.1c-0.4,0-0.6-0.3-0.8-1v-0.1c0,0,0.7-1.1,1-1.5c1.5-2.5,3.1-5.1,4.3-7.7c0.8-1.7,2.2-4.8,1.5-6.8
		l-0.1-0.4l0.4,0.2c0.5,0.3,1,0.7,1.3,1.1c1.2,1.5-0.5,4.3-1.6,6.2c-0.2,0.4-0.5,0.8-0.6,1.1c-0.8,1.5-1.6,3.1-2.6,4.9
		c-0.5,1-1.1,2-1.7,3.1C24.3,63.9,24,64.1,23.7,64.1z"/>
	
		<linearGradient id="SVGID_4_" gradientUnits="userSpaceOnUse" x1="132.1591" y1="-5.7045" x2="110.1778" y2="16.2769" gradientTransform="matrix(1 0 0 -1 0 98)">
		<stop  offset="0.5" style="stop-color:#FE9C0E"/>
		<stop  offset="1" style="stop-color:#FE7F00"/>
	</linearGradient>
	<path class="st3" d="M116.9,111.7c-0.2,0-0.5,0-0.8,0c-3-0.1-3-4.2-3-6.1c0-2.1,0.1-4.2,0.2-6.3c0.1-1,0.1-2,0.1-2.9
		c0.2-5.2,0.3-9.1,0.5-12.9c0-0.4,0-0.7,0.1-1.1c0.1-1.4,0.1-2.9,0.5-4.3c0.7-2.3,2.8-3.6,5.9-3.7c0,0,1,0,1.1,0c1.8,0,4,0.1,6,0.2
		h0.1c0.8,0.1,1.1,0.1,1.4,1.1c0.4,1.2,0.4,2.7,0.5,4c0,0.3,0,0.6,0.1,0.9c0.4,6.5,0.4,13.1,0.4,19.5c0,1.8,0,3.5,0,5.3
		c0,0.1,0,0.1,0,0.1l0.1,0.2l-1.4,0.2c-2.3,0.3-4.6,0.5-6.9,0.8c-1.8,0.2-3.3,2.9-4.2,4.3l-0.1,0.1c-0.1,0.1-0.1,0.1-0.1,0.2
		l0.1,0.2L116.9,111.7z M121,76.6c-1.7,0.3-3.3,0.7-4.2,2.3c-0.7,1.4-0.8,3.1-0.8,4.8c0,0.4,0,0.7-0.1,1c-0.3,5.3-0.5,10.8-0.7,15.5
		v0.2c-0.1,1.7-0.1,4,1.6,4.8c0.3,0.1,0.7,0.2,1.1,0.2c0.5,0,1-0.1,1.4-0.1c0.2,0,0.3-0.1,0.5-0.1c1.7-0.2,3.3-0.5,4.9-0.8l0.4-0.1
		c2.9-0.5,2.7-3.3,2.6-5.9c-0.1-0.5-0.1-1-0.1-1.5c-0.1-5.5-0.1-11.1-0.2-16.6c0-0.2,0-0.4,0-0.5c0-1.1,0.1-2.7-0.9-3.2
		c-0.3-0.2-0.8-0.2-1.1-0.2c-0.1,0-0.2,0-0.4,0H125C123.4,76.4,122.2,76.4,121,76.6L121,76.6v-0.1V76.6z"/>
	<path class="st4" d="M118.1,104.7c-0.7,0-1.2-0.2-1.6-0.7l-0.2-0.2h0.3c1.2,0,2.4-0.2,3.6-0.4c0.4-0.1,0.8-0.1,1.2-0.2
		c0.2,0,0.5-0.1,0.7-0.1c1.3-0.1,2.9-0.3,3.3-1.5c0.2-0.6,0.2-1.2,0.2-1.8v-0.4c0.1-1.5,0.1-3,0.1-4.5v-0.1c0-4-0.1-7.8-0.1-11.2
		c0-1.3-0.1-2.6-0.1-3.9c0-0.1,0-0.3,0-0.4c0-0.8,0-1.5-0.3-2.2l-0.1-0.2h0.4c0.1,0,0.2,0,0.3,0c1.1,0.1,1.1,1.8,1,2.9
		c0,0.2,0,0.4,0,0.5c0.1,4.7,0.1,9.3,0.1,14c0,1.8,0.1,3.6,0.1,5.3v0.4c0,1.5,0.1,3.3-2,3.7l-0.5,0.1c-2,0.4-4,0.7-6.1,0.9
		C118.4,104.7,118.2,104.7,118.1,104.7z"/>
	
		<linearGradient id="SVGID_5_" gradientUnits="userSpaceOnUse" x1="128.7328" y1="-0.3082" x2="113.3567" y2="15.0684" gradientTransform="matrix(1 0 0 -1 0 98)">
		<stop  offset="0.25" style="stop-color:#CDDEF0"/>
		<stop  offset="0.5" style="stop-color:#E9F0FF"/>
		<stop  offset="1" style="stop-color:#9BB1C4"/>
	</linearGradient>
	<path class="st5" d="M116.3,103.5L116.3,103.5c-0.4-1-0.4-2.2-0.4-3.1v-0.2c0.1-4,0.3-8.3,0.5-12.6v-0.5c0.1-1.5,0.1-3.2,0.3-4.8
		c0.1-1.2,0.2-2.9,1.2-3.9c0.7-0.8,1.9-1,2.9-1.2l0.3-0.1c1.5-0.2,2.7-0.3,3.7-0.3h0.2l0.1,0.1c0.4,0.8,0.4,1.7,0.4,2.6
		c0,0.2,0,0.4,0,0.6c0,1.2,0.1,2.5,0.1,3.7c0.1,4,0.1,7.3,0.1,10.3c0,0.5,0,1.1,0,1.6c0,1.7,0.1,3.6-0.1,5.3c-0.2,1.7-2.1,1.8-3.6,2
		c-0.2,0-0.5,0.1-0.7,0.1c-0.4,0.1-0.7,0.1-1.1,0.2c-1.1,0.2-2.3,0.4-3.4,0.4C116.6,103.5,116.3,103.5,116.3,103.5z"/>
	
		<linearGradient id="SVGID_6_" gradientUnits="userSpaceOnUse" x1="120.2633" y1="-8.3349" x2="94.2319" y2="17.6965" gradientTransform="matrix(1 0 0 -1 0 98)">
		<stop  offset="0.5" style="stop-color:#FE9C0E"/>
		<stop  offset="1" style="stop-color:#FE7F00"/>
	</linearGradient>
	<path class="st6" d="M102.7,112.2c-2.1,0-3.7-0.2-5.1-0.6c-1.8-0.6-1.7-3.2-1.6-4.9c0-0.3,0-0.6,0.1-0.9c0-1.4,0-2.7,0.1-4.1v-0.4
		c0-0.1,0-0.1,0-0.1v-0.7v-0.8c0-0.1,0-0.1,0-0.1c0.1-1.9,0.1-3.7,0.1-5.6c0-0.1,0-0.1,0-0.2v-0.1c0.1-3.7,0.2-7.6,0.4-12
		c0.1-2.7,0.6-5.5,3.1-6.5c1.2-0.5,2.6-0.5,3.9-0.5c0.2,0,1.2,0,1.4,0c0.2,0,0.4,0,0.6,0c4.2-0.1,7.6-0.1,10.9-0.1l0.1,0.3
		c-1.9,1-3,2.7-3.3,5.1c-0.5,3.6-0.5,7.4-0.5,11.1c0,1.6-0.1,3.3-0.1,4.9c-0.1,1.1-0.1,2.3-0.2,3.5c-0.2,3-0.4,6,0.1,8.9
		c0.3,1.7,0.9,2.9,2,3.5l0.2,0.1l-0.2,0.1h-0.1c-1.9,0.1-3.9,0.1-5.7,0.1H107c-0.5,0-1.1,0-1.7,0.1
		C104.4,112.2,103.5,112.2,102.7,112.2z M100.8,106.9c1,0,2,0,3,0.1c1,0,2,0.1,3,0.1c0.4,0,0.9,0,1.3,0c2.3-0.1,2.7-2.1,2.8-3.3
		c0.4-6.5,0.6-13.6,0.8-22.3c0-0.1,0-0.3,0-0.5c0.1-1,0.1-2.1-0.5-2.9c-0.6-0.7-1.6-0.8-2.7-0.8c-0.2,0-0.9,0-0.9,0
		c-0.7,0-1.4,0-2,0c-0.7,0-1.4,0-2.2,0c-0.2,0-0.5,0-0.8,0c-1,0-2,0-2.9,0.6c-0.7,0.5-1.1,1.4-1.2,2.7c-0.4,5-0.5,10-0.7,15
		c-0.1,2.4-0.2,4.9-0.3,7.4c-0.1,1.4,0.4,2.6,1,3.3c0.5,0.5,1.1,0.8,1.9,0.8H100.8z"/>
	
		<linearGradient id="SVGID_7_" gradientUnits="userSpaceOnUse" x1="114.5233" y1="-2.1411" x2="96.8411" y2="15.541" gradientTransform="matrix(1 0 0 -1 0 98)">
		<stop  offset="0.25" style="stop-color:#CDDEF0"/>
		<stop  offset="0.5" style="stop-color:#E9F0FF"/>
		<stop  offset="1" style="stop-color:#9BB1C4"/>
	</linearGradient>
	<path class="st7" d="M105,104.4c-1,0-2,0-2.8-0.1c-0.5,0-0.9-0.1-1.4-0.2c-1-0.2-1-1.5-1-2.3v-0.2c0-0.5,0.1-1,0.1-1.5
		c0-0.2,0.1-0.5,0.1-0.7l0.2-3c0.1-1.2,0.1-2.5,0.2-3.7c0.1-2.7,0.4-5.9,0.5-9.2c0.1-0.5,0.1-1,0.1-1.4c0.1-1.4,0.1-2.9,0.5-4.2
		v-0.1h0.1c0.3-0.1,0.7-0.1,1-0.1c0,0,0.8,0,1,0c0.7,0,1.5,0,2.2,0c0.7,0,1.4,0,2,0c0.1,0,0.3,0,0.5,0c0.2,0,0.4,0,0.6,0
		c0.7,0,1.5,0.1,2,0.6c0.5,0.5,0.4,1.7,0.4,2.5c0,0.2,0,0.4,0,0.5c-0.2,8.7-0.5,15.7-0.8,22.3c0,0.2-0.1,0.4-0.1,0.7v0.1h-0.1
		c-0.8,0-1.6,0-2.4,0.1C106.8,104.4,105.9,104.4,105,104.4z"/>
	<path class="st4" d="M106.9,106.3c-1,0-2,0-3-0.1c-1,0-2-0.1-3-0.1h-0.2c-0.6,0-1.1-0.2-1.5-0.6c-0.8-0.8-0.8-2.1-0.8-2.8
		c0.1-2.4,0.2-5,0.3-7.4c0.2-4.9,0.4-10,0.7-15c0.1-0.7,0.2-1.8,1.1-2.3c0.2-0.1,0.4-0.2,0.6-0.2l0.2-0.1l-0.1,0.2
		c-0.3,1.3-0.4,2.7-0.4,4c0,0.5-0.1,1-0.1,1.5c-0.2,3.4-0.4,6.9-0.6,10.2l-0.1,1.5c-0.1,2-0.2,4-0.3,6.1c-0.1,2,0.2,3,1.9,3.2
		c1,0.1,2,0.1,3.1,0.1c1,0,1.9,0,2.8-0.1c0.8,0,1.6-0.1,2.4-0.1h0.2l-0.1,0.2c-0.3,1-1,1.5-2,1.5
		C107.8,106.3,107.4,106.3,106.9,106.3z"/>
	
		<linearGradient id="SVGID_8_" gradientUnits="userSpaceOnUse" x1="149.4245" y1="-22.8058" x2="143.5795" y2="-16.9613" gradientTransform="matrix(1 0 0 -1 0 98)">
		<stop  offset="0.5" style="stop-color:#636363"/>
		<stop  offset="1" style="stop-color:#878787"/>
	</linearGradient>
	<path class="st8" d="M148.4,121.7c-0.5-1.2-1.2-2.4-2.1-3.3v-0.1c-0.2-0.4-0.5-0.8-0.7-1.3c-0.4-0.8-0.9-1.7-1.5-2.4l0.2-0.2
		c2.6,1.2,4.2,3.8,4.5,7.2L148.4,121.7z"/>
	
		<linearGradient id="SVGID_9_" gradientUnits="userSpaceOnUse" x1="145.2215" y1="-19.6485" x2="139.9932" y2="-14.4201" gradientTransform="matrix(1 0 0 -1 0 98)">
		<stop  offset="0.5" style="stop-color:#D6D6D6"/>
		<stop  offset="1" style="stop-color:#AAAAAA"/>
	</linearGradient>
	<path class="st9" d="M145.3,117.6c-0.8-0.6-1.8-1.1-2.9-1.4h-0.1v-0.1c-0.2-0.2-0.4-0.4-0.6-0.6c-0.7-0.7-1.4-1.3-2.1-1.8l-0.5-0.3
		l0.5,0.1c1,0.1,1.9,0.2,2.7,0.4c0.4,0.1,0.7,0.2,1,0.3l0.1,0.1v0.1v0.1c0.7,0.9,1.2,1.8,1.8,2.9l0.2,0.3L145.3,117.6z"/>
	
		<linearGradient id="SVGID_10_" gradientUnits="userSpaceOnUse" x1="141.0106" y1="-19.0618" x2="136.197" y2="-14.2481" gradientTransform="matrix(1 0 0 -1 0 98)">
		<stop  offset="0.5" style="stop-color:#636363"/>
		<stop  offset="1" style="stop-color:#878787"/>
	</linearGradient>
	<path class="st10" d="M141.5,115.8c-0.9-0.2-1.8-0.4-2.9-0.6l-0.8-0.4c-0.8-0.5-1.7-1-2.6-1.4l0.1-0.3c1.1,0,2.3,0,3.4,0.1h0.1
		l0.1,0.1c1.1,0.6,2,1.4,2.8,2.3l0.5,0.5L141.5,115.8z"/>
	
		<linearGradient id="SVGID_11_" gradientUnits="userSpaceOnUse" x1="136.3899" y1="-18.1545" x2="132.2815" y2="-14.0457" gradientTransform="matrix(1 0 0 -1 0 98)">
		<stop  offset="0.5" style="stop-color:#D6D6D6"/>
		<stop  offset="1" style="stop-color:#AAAAAA"/>
	</linearGradient>
	<path class="st11" d="M137.4,115.1c-1.1-0.1-2.1-0.2-3.1-0.2c-0.1,0-0.2,0-0.4,0h-0.3l-0.1-0.1c-0.6-0.3-1.2-0.7-1.7-1
		c-0.2-0.2-0.5-0.4-0.8-0.5l0.1-0.3c1.1,0.1,2.2,0.1,3.3,0.1h0.2v0.2c0,0,0,0.1,0.1,0.1c1,0.5,2,1,2.8,1.5L137.4,115.1z"/>
	
		<linearGradient id="SVGID_12_" gradientUnits="userSpaceOnUse" x1="131.7199" y1="-17.8516" x2="127.7201" y2="-13.8514" gradientTransform="matrix(1 0 0 -1 0 98)">
		<stop  offset="0.5" style="stop-color:#636363"/>
		<stop  offset="1" style="stop-color:#878787"/>
	</linearGradient>
	<path class="st12" d="M132.7,114.9c-0.8,0-1.5,0-2.3,0h-0.7h-0.1c-0.8-0.5-1.6-1-2.6-1.7l-0.5-0.3h0.5c1.1,0.1,2.1,0.1,3.1,0.2h0.1
		v0.1c0.5,0.3,1,0.5,1.4,0.8c0.3,0.2,0.6,0.4,0.9,0.6V114.9z"/>
	
		<linearGradient id="SVGID_13_" gradientUnits="userSpaceOnUse" x1="128.1335" y1="-18.1567" x2="123.381" y2="-13.4038" gradientTransform="matrix(1 0 0 -1 0 98)">
		<stop  offset="0.5" style="stop-color:#D6D6D6"/>
		<stop  offset="1" style="stop-color:#AAAAAA"/>
	</linearGradient>
	<path class="st13" d="M125.4,114.9c-0.5-0.4-1.1-0.7-1.7-1.1c-0.4-0.3-0.8-0.6-1.2-0.8l-0.5-0.3h0.5c1.2,0.1,2.4,0.1,3.7,0.2h0.1
		h0.1c0.9,0.6,1.7,1.1,2.6,1.7l0.4,0.2h-0.5C127.8,114.8,126.6,114.9,125.4,114.9L125.4,114.9z"/>
	
		<linearGradient id="SVGID_14_" gradientUnits="userSpaceOnUse" x1="75.7607" y1="-31.2274" x2="69.952" y2="-25.4186" gradientTransform="matrix(1 0 0 -1 0 98)">
		<stop  offset="0.5" style="stop-color:#D6D6D6"/>
		<stop  offset="1" style="stop-color:#AAAAAA"/>
	</linearGradient>
	<path class="st14" d="M76.9,127.9c-2.7-0.1-5.3-0.3-7.6-0.6h-0.1v-0.1c-0.1-0.5-0.2-1-0.2-1.5c0-0.1,0-0.1,0-0.2c0-0.3,0-0.6,0-0.9
		v-0.2h0.2c0.9,0.1,1.7,0.3,2.6,0.5c1.6,0.4,3.3,0.7,4.9,0.8h0.1v0.1c0,0.6,0.1,1.2,0.2,1.8l0.1,0.2L76.9,127.9z"/>
	
		<linearGradient id="SVGID_15_" gradientUnits="userSpaceOnUse" x1="71.7852" y1="-27.7308" x2="61.7265" y2="-17.6718" gradientTransform="matrix(1 0 0 -1 0 98)">
		<stop  offset="0.5" style="stop-color:#606060"/>
		<stop  offset="1" style="stop-color:#464646"/>
	</linearGradient>
	<path class="st15" d="M66,128.7c-1.9,0-3.4-0.2-4.8-0.7c-1.7-0.6-2.9-1.8-3.4-3.4c-0.6-2-0.1-4.5,1.4-6.3c1.9-2.4,5.4-2.7,8.1-3
		c2.6-0.2,5.1-0.4,7.2-0.5l0.1,0.3c-1.1,0.5-2,1-2.9,1.5c-0.9,0.6-1.6,1.4-2.1,2.6l-0.1,0.1l-0.1-0.2c-0.9-1.4-2.4-2.1-4.1-2.1
		c-2,0-4.3,1.2-4.9,3.9c-0.4,2,0.2,3.3,0.8,4c1,1.2,2.6,2,4.3,2c1,0,1.9-0.2,2.7-0.7l0.2-0.1v0.2c0.1,0.7,0.2,1.4,0.5,2.1l0.1,0.2
		h-0.2C67.9,128.7,67,128.7,66,128.7z"/>
	
		<linearGradient id="SVGID_16_" gradientUnits="userSpaceOnUse" x1="75.9591" y1="-28.3953" x2="70.1092" y2="-22.5458" gradientTransform="matrix(1 0 0 -1 0 98)">
		<stop  offset="0.5" style="stop-color:#636363"/>
		<stop  offset="1" style="stop-color:#878787"/>
	</linearGradient>
	<path class="st16" d="M76.6,125.6c-1.7-0.1-3.3-0.4-4.9-0.8c-0.9-0.2-1.8-0.4-2.6-0.5h-0.1v-0.1c0.1-1,0.2-2,0.5-2.9l0.1-0.1h0.1
		c1.5,0.2,3.1,0.6,4.6,1c1,0.2,1.9,0.5,2.9,0.7l0.2,0.1l-0.1,0.2c-0.2,0.8-0.4,1.7-0.4,2.5v0.2L76.6,125.6z"/>
	
		<linearGradient id="SVGID_17_" gradientUnits="userSpaceOnUse" x1="76.9619" y1="-24.9124" x2="71.6388" y2="-19.5893" gradientTransform="matrix(1 0 0 -1 0 98)">
		<stop  offset="0.5" style="stop-color:#D6D6D6"/>
		<stop  offset="1" style="stop-color:#AAAAAA"/>
	</linearGradient>
	<path class="st17" d="M77.1,122.6c-1-0.2-1.9-0.4-2.9-0.7c-1.5-0.4-3-0.7-4.5-1h-0.2l0.1-0.2c0.4-1.2,1.1-2.2,1.8-3l0.1-0.1
		l0.1,0.1h0.1c1.7,0.2,3.4,0.7,5.1,1.2c0.7,0.2,1.4,0.4,2,0.6l0.2,0.1l-0.2,0.2c-0.6,0.6-1.1,1.2-1.4,2c-0.1,0.2-0.2,0.4-0.2,0.6
		l-0.1,0.1L77.1,122.6z"/>
	
		<linearGradient id="SVGID_18_" gradientUnits="userSpaceOnUse" x1="79.3913" y1="-22.4403" x2="74.0737" y2="-17.1227" gradientTransform="matrix(1 0 0 -1 0 98)">
		<stop  offset="0.5" style="stop-color:#636363"/>
		<stop  offset="1" style="stop-color:#878787"/>
	</linearGradient>
	<path class="st18" d="M79.2,119.5c-0.8-0.2-1.5-0.4-2.3-0.7c-1.6-0.5-3.3-1-4.9-1.2l-0.3-0.1l0.2-0.2c0.7-0.7,1.7-1.3,3-1.8h0.1
		l0.1,0.1c1.4,0.4,2.7,0.8,4,1.3c0.8,0.3,1.7,0.7,2.6,0.9l0.4,0.1l-0.4,0.2c-0.9,0.4-1.6,0.8-2.3,1.4H79.2L79.2,119.5z"/>
	
		<linearGradient id="SVGID_19_" gradientUnits="userSpaceOnUse" x1="84.5419" y1="-21.3228" x2="77.8708" y2="-14.6517" gradientTransform="matrix(1 0 0 -1 0 98)">
		<stop  offset="0.5" style="stop-color:#D6D6D6"/>
		<stop  offset="1" style="stop-color:#AAAAAA"/>
	</linearGradient>
	<path class="st19" d="M82.1,117.8c-1.1-0.3-2.1-0.7-3.2-1.1c-1.1-0.4-2.3-0.8-3.4-1.1l-0.5-0.1l0.5-0.2c0.7-0.2,1.5-0.5,2.4-0.7
		c0.1,0,0.2,0,0.2-0.1c0.5-0.1,0.8-0.2,1.2-0.3l0.4-0.1c0.1,0,0.5-0.1,0.5-0.1l0.6,0.2c2,0.6,4,1.2,5.9,2.1l0.4,0.2l-0.5,0.1
		C85.3,116.8,83.7,117.1,82.1,117.8L82.1,117.8z"/>
	
		<linearGradient id="SVGID_20_" gradientUnits="userSpaceOnUse" x1="90.5265" y1="-20.2374" x2="83.711" y2="-13.422" gradientTransform="matrix(1 0 0 -1 0 98)">
		<stop  offset="0.5" style="stop-color:#636363"/>
		<stop  offset="1" style="stop-color:#878787"/>
	</linearGradient>
	<path class="st20" d="M87.5,116.4c-2.1-1-4.4-1.7-6.2-2.3v-0.3c1.8-0.4,3.7-0.7,5.6-0.9h0.1h0.1c1.2,0.4,2.5,1,3.7,1.5
		c0.8,0.4,1.6,0.7,2.4,1l-0.1,0.3c-1.8,0.2-3.6,0.4-5.3,0.7H87.5L87.5,116.4z"/>
	
		<linearGradient id="SVGID_21_" gradientUnits="userSpaceOnUse" x1="97.0621" y1="-11.7416" x2="92.4828" y2="-7.1623" gradientTransform="matrix(1 0 0 -1 0 98)">
		<stop  offset="0.5" style="stop-color:#EF5401"/>
		<stop  offset="1" style="stop-color:#DE2201"/>
	</linearGradient>
	<path class="st21" d="M91.9,110.7h0.2H91.9c-0.1-1.8-0.2-3.3,1-5c0.7-1.1,1.6-2.3,2.4-3.3l0.3-0.4v1c0,0.5-0.1,1.1-0.1,1.7
		c-0.1,1.9-0.3,4.2,0.5,5.8l0.1,0.2h-0.2c-1.2,0-2.4,0-3.6,0h-0.1L91.9,110.7z"/>
	
		<linearGradient id="SVGID_22_" gradientUnits="userSpaceOnUse" x1="101.1225" y1="28.4311" x2="52.8209" y2="76.7327" gradientTransform="matrix(1 0 0 -1 0 98)">
		<stop  offset="0.5" style="stop-color:#FE9C0E"/>
		<stop  offset="1" style="stop-color:#FE7F00"/>
	</linearGradient>
	<path class="st22" d="M92.9,77.5c-1.4-5.3-2.6-9.5-3.9-13.4c-1.1-3.4-2.9-7.8-5.9-11.6c-4.2-5.1-8.5-10.3-12.7-15.2
		c-1.4-1.7-2.9-3.4-4.3-5.1c-1.5-1.8-3.1-3.7-4.6-5.5c-0.2-0.2-0.4-0.5-0.6-0.8c-0.4-0.5-0.8-1.1-1.3-1.5l-0.2-0.1l0.2-0.1
		c0.5-0.2,1-0.5,1.5-0.8c0.1,0,0.1-0.1,0.1-0.1c0.1-0.1,0.1-0.2,0-0.4l-0.3-0.4c-1.3-1.9-2.6-3.9-2.3-6.4c0.2-1.3,0.9-1.6,1.5-1.6
		c1,0,2.6,0.8,4.5,2.5l0.1,0.1v0.1c-0.1,0.5-0.3,1.1-0.4,1.7c-0.7,2.4-1.3,4.9-0.2,7c0.5,1.1,1.4,2,2.3,2.9c0.3,0.3,0.5,0.6,0.8,0.9
		l3,3.4c3,3.3,5.9,6.7,8.9,10c1.7,1.8,3.6,4,5.5,6.2c2.3,2.6,3.6,5,4.7,8.1c1.8,5.2,3.2,9.6,4.5,14.3l0.4,3.6v0.1l-0.1,0.1
		c-0.7,0.4-1,1-1,2H92.9z M61,16.6c-0.4,0-0.7,0.3-0.7,0.7s0.3,0.7,0.7,0.7c0.4,0,0.7-0.3,0.7-0.7S61.4,16.6,61,16.6z"/>
	
		<linearGradient id="SVGID_23_" gradientUnits="userSpaceOnUse" x1="59.9611" y1="74.4938" x2="57.8725" y2="76.5826" gradientTransform="matrix(1 0 0 -1 0 98)">
		<stop  offset="0.5" style="stop-color:#FE9C0E"/>
		<stop  offset="1" style="stop-color:#FE7F00"/>
	</linearGradient>
	<path class="st23" d="M58.2,23.9c-0.3-0.5-0.7-0.8-1.1-1.1l-0.1-0.1l0.1-0.1c0.5-0.7,1.1-1.3,1.7-2.1l0.1-0.2l0.1,0.2
		c0.4,0.7,0.8,1.4,1.4,2.3l0.1,0.1L60.4,23c-0.7,0.4-1.3,0.7-1.9,1L58.4,24L58.2,23.9z"/>
	<path class="st24" d="M94.2,68.9c-0.5-4.6-1-9.4-1.6-14.2v-0.2h0.2c0.1,0,0.3-0.1,0.5-0.1c0.3-0.1,0.6-0.2,0.8-0.4l0.2-0.1v0.2
		c0.5,4.9,1.2,9.8,1.8,14.6c0.2,1.9,0.5,3.7,0.7,5.6v0.2h-0.2c-0.5,0.1-1,0.2-1.6,0.4l-0.2,0.1C94.9,75.1,94.4,70.9,94.2,68.9z"/>
	
		<linearGradient id="SVGID_24_" gradientUnits="userSpaceOnUse" x1="94.1079" y1="44.5991" x2="91.2833" y2="47.4237" gradientTransform="matrix(1 0 0 -1 0 98)">
		<stop  offset="0.5" style="stop-color:#FE9C0E"/>
		<stop  offset="1" style="stop-color:#FE7F00"/>
	</linearGradient>
	<path class="st25" d="M92.5,53.9c-0.7,0-1.1-0.5-1.3-1.5c-0.1-0.6-0.2-2,0.7-2.3c0.1-0.1,0.3-0.1,0.5-0.1c0.7,0,1.3,0.4,1.7,0.8
		c0.6,0.5,0.9,1.1,0.8,1.6c-0.1,0.7-1,1.1-1.5,1.4C93,53.9,92.8,53.9,92.5,53.9z"/>
	
		<linearGradient id="SVGID_25_" gradientUnits="userSpaceOnUse" x1="96.5799" y1="20.4969" x2="94.794" y2="22.2828" gradientTransform="matrix(1 0 0 -1 0 98)">
		<stop  offset="0.5" style="stop-color:#FE9C0E"/>
		<stop  offset="1" style="stop-color:#FE7F00"/>
	</linearGradient>
	<path class="st26" d="M93.8,77.8c0-0.5,0.1-1,0.3-1.3c0.4-0.7,1.7-1.1,2.7-1.1c0.5,0,0.8,0.1,1.1,0.3l0.1,0.1l-0.1,0.1
		c-0.4,0.4-0.7,0.8-0.9,1.2L97,77.1h-0.1c-0.2,0.1-0.5,0.1-0.7,0.1c-0.8,0.1-1.5,0.2-2.2,0.7L93.8,78V77.8z"/>
	
		<linearGradient id="SVGID_26_" gradientUnits="userSpaceOnUse" x1="96.1545" y1="18.9916" x2="94.617" y2="20.5292" gradientTransform="matrix(1 0 0 -1 0 98)">
		<stop  offset="0.5" style="stop-color:#EF5401"/>
		<stop  offset="1" style="stop-color:#DE2201"/>
	</linearGradient>
	<path class="st27" d="M94.1,79.2L94,78.8c-0.1-0.2-0.1-0.4-0.1-0.5v-0.1l0.1-0.1c0.7-0.6,1.6-0.7,2.4-0.8l0.5-0.1l-0.1,0.2
		c-0.2,0.4-0.3,0.8-0.4,1.2v0.1h-0.1c-0.2,0.1-0.4,0.1-0.6,0.1c-0.5,0.1-1,0.2-1.4,0.4l-0.2,0.1V79.2L94.1,79.2z"/>
	
		<linearGradient id="SVGID_27_" gradientUnits="userSpaceOnUse" x1="98.0732" y1="12.1713" x2="92.9689" y2="17.2756" gradientTransform="matrix(1 0 0 -1 0 98)">
		<stop  offset="0.5" style="stop-color:#FE9C0E"/>
		<stop  offset="1" style="stop-color:#FE7F00"/>
	</linearGradient>
	<path class="st28" d="M94.1,79.6L94.1,79.6c0.6-0.4,1.1-0.5,1.7-0.5l0.5-0.1l-0.1,0.2c-0.1,0.5-0.2,1-0.2,1.5
		c-0.2,2.3-0.3,4.7-0.4,7.5h-0.3L94.1,79.6z"/>
	
		<linearGradient id="SVGID_28_" gradientUnits="userSpaceOnUse" x1="93.3795" y1="-17.06" x2="86.682" y2="-10.3626" gradientTransform="matrix(1 0 0 -1 0 98)">
		<stop  offset="0.5" style="stop-color:#636363"/>
		<stop  offset="1" style="stop-color:#878787"/>
	</linearGradient>
	<path class="st29" d="M84.6,112.5c0.1-0.1,0-0.1,0-0.1c-0.2-0.2-0.4-0.4-0.7-0.5l-0.5-0.3H84c2.1,0,4.3,0,6.5-0.1
		c1.9,0,3.9,0,5.8,0h0.1l0.1,0.1l0.2,0.2l-0.3,0.1c-4.2,0.1-8,0.4-11.6,0.8l-0.3,0.1L84.6,112.5z"/>
	
		<linearGradient id="SVGID_29_" gradientUnits="userSpaceOnUse" x1="83.6748" y1="-15.7265" x2="80.6512" y2="-12.7032" gradientTransform="matrix(1 0 0 -1 0 98)">
		<stop  offset="0.5" style="stop-color:#D6D6D6"/>
		<stop  offset="1" style="stop-color:#AAAAAA"/>
	</linearGradient>
	<path class="st30" d="M81.9,113.1c-0.5-0.2-1-0.5-1.5-0.9c-0.1-0.1-0.3-0.2-0.4-0.3l-0.4-0.2l1-0.1c0.6-0.1,1.2-0.1,1.7-0.1H83
		l0.3,0.2c0.4,0.2,0.8,0.4,1.1,0.8l0.2,0.2l-0.3,0.1c-0.8,0.1-1.6,0.2-2.4,0.4V113.1z"/>
	
		<linearGradient id="SVGID_30_" gradientUnits="userSpaceOnUse" x1="96.9189" y1="-19.6193" x2="90.0648" y2="-12.7648" gradientTransform="matrix(1 0 0 -1 0 98)">
		<stop  offset="0.5" style="stop-color:#D6D6D6"/>
		<stop  offset="1" style="stop-color:#AAAAAA"/>
	</linearGradient>
	<path class="st31" d="M93.8,115.7c-1.1-0.4-2.3-0.9-3.3-1.4c-0.9-0.4-1.8-0.8-2.7-1.1l0.1-0.3c1.7-0.2,3.6-0.3,5.3-0.4h0.1h0.1
		c1.8,0.9,3.7,1.8,5.8,2.7l-0.1,0.3c-1.8,0.1-3.5,0.1-5.1,0.2L93.8,115.7z"/>
	
		<linearGradient id="SVGID_31_" gradientUnits="userSpaceOnUse" x1="103.2121" y1="-19.4363" x2="96.2889" y2="-12.5131" gradientTransform="matrix(1 0 0 -1 0 98)">
		<stop  offset="0.5" style="stop-color:#636363"/>
		<stop  offset="1" style="stop-color:#878787"/>
	</linearGradient>
	<path class="st32" d="M100.1,115.5c-1.8-0.8-3.7-1.7-5.8-2.7l0.1-0.3c1.4-0.1,2.7-0.1,4-0.1h0.1c0.6,0.1,1.2,0.2,1.8,0.2
		c1.4,0.5,2.8,1.2,4.1,2c0.4,0.2,0.7,0.4,1,0.5l-0.1,0.3h-0.9c-1,0-2,0-3,0C101.1,115.5,100.1,115.5,100.1,115.5z"/>
	
		<linearGradient id="SVGID_32_" gradientUnits="userSpaceOnUse" x1="109.5717" y1="-19.3793" x2="103.1769" y2="-12.9846" gradientTransform="matrix(1 0 0 -1 0 98)">
		<stop  offset="0.5" style="stop-color:#D6D6D6"/>
		<stop  offset="1" style="stop-color:#AAAAAA"/>
	</linearGradient>
	<path class="st33" d="M110.3,115.5c-1,0-2,0-3,0h-1.1h-0.1c-0.6-0.3-1.2-0.7-1.8-1c-1-0.5-1.9-1.1-2.9-1.5l0.1-0.3
		c1,0.1,2.1,0.1,3.2,0.1c0.5,0,1,0,1.4,0h0.1h0.1c0.8,0.4,1.6,0.8,2.4,1.2c0.8,0.4,1.7,0.8,2.4,1.2l0.5,0.3H110.3z"/>
	
		<linearGradient id="SVGID_33_" gradientUnits="userSpaceOnUse" x1="114.828" y1="-19.1394" x2="108.7219" y2="-13.0337" gradientTransform="matrix(1 0 0 -1 0 98)">
		<stop  offset="0.5" style="stop-color:#636363"/>
		<stop  offset="1" style="stop-color:#878787"/>
	</linearGradient>
	<path class="st34" d="M111.8,115.4c-1-0.6-2.1-1.1-3.1-1.6c-0.6-0.3-1.1-0.5-1.7-0.8l0.1-0.3c1,0,1.9-0.1,2.8-0.1l1.5-0.1
		c1.4,0.5,2.7,1.3,3.9,2c0.3,0.2,0.6,0.4,0.8,0.5l0.5,0.2h-0.5c-1.4,0.1-2.7,0.1-4.2,0.1L111.8,115.4z"/>
	
		<linearGradient id="SVGID_34_" gradientUnits="userSpaceOnUse" x1="119.5735" y1="-18.7161" x2="113.9362" y2="-13.0792" gradientTransform="matrix(1 0 0 -1 0 98)">
		<stop  offset="0.5" style="stop-color:#D6D6D6"/>
		<stop  offset="1" style="stop-color:#AAAAAA"/>
	</linearGradient>
	<path class="st35" d="M116.9,115.3c-0.5-0.3-1-0.6-1.5-0.9c-1-0.5-2-1.1-3-1.6l0.1-0.3c0.9-0.1,1.7-0.1,2.6-0.1
		c0.5,0,1.1,0,1.5,0.1h0.5h0.1c0.7,0.4,1.3,0.8,1.9,1.2c0.5,0.4,1.1,0.7,1.6,1.1l0.4,0.2h-0.5c-1.2,0.1-2.4,0.1-3.6,0.2H117
		L116.9,115.3z"/>
	
		<linearGradient id="SVGID_35_" gradientUnits="userSpaceOnUse" x1="123.8611" y1="-18.2507" x2="118.8283" y2="-13.2179" gradientTransform="matrix(1 0 0 -1 0 98)">
		<stop  offset="0.5" style="stop-color:#636363"/>
		<stop  offset="1" style="stop-color:#878787"/>
	</linearGradient>
	<path class="st36" d="M121.3,115.1c-0.7-0.5-1.5-1-2.2-1.4c-0.4-0.3-0.8-0.5-1.2-0.8l-0.4-0.3h0.5c1.2,0.1,2.4,0.1,3.7,0.1h0.1h0.1
		c0.7,0.4,1.4,0.9,2,1.3c0.4,0.2,0.7,0.5,1,0.7l0.4,0.2h-0.5c-1.1,0.1-2.1,0.1-3.2,0.2H121.3z"/>
	
		<linearGradient id="SVGID_36_" gradientUnits="userSpaceOnUse" x1="145.3312" y1="-4.905" x2="136.4511" y2="3.9752" gradientTransform="matrix(1 0 0 -1 0 98)">
		<stop  offset="0.5" style="stop-color:#FEE7A5"/>
		<stop  offset="1" style="stop-color:#FEBD57"/>
	</linearGradient>
	<path class="st37" d="M137.9,104.8c0.1-3,0.1-6-0.1-8.8c0-0.5-0.1-1-0.1-1.4c-0.1-0.4-0.1-0.8-0.1-1.2c0-0.2,0.1-0.5,0.2-0.7
		c0.7-0.8,2.7-0.8,4.4-0.8h1.1h0.4V92c0.1,0.8,0.2,1.5,0.2,2.1v0.3c0.2,3,0.5,6.5,0.2,9.7v0.1H144c-2,0.2-3.9,0.5-5.8,0.7H138
		L137.9,104.8z"/>
	
		<linearGradient id="SVGID_37_" gradientUnits="userSpaceOnUse" x1="140.6199" y1="-3.7286" x2="128.2321" y2="8.6592" gradientTransform="matrix(1 0 0 -1 0 98)">
		<stop  offset="0.5" style="stop-color:#FE9C0E"/>
		<stop  offset="1" style="stop-color:#FE7F00"/>
	</linearGradient>
	<path class="st38" d="M130.5,105.7v-2c0-5.3,0-10.8-0.1-16.2v-0.2h0.2c1.3,0.1,2.6,0.2,3.9,0.2c1.2,0.1,2.5,0.2,3.7,0.2h0.1
		c1.5,0.1,3,0.2,4.2,1.4c0.5,0.5,0.8,1.1,1.1,1.9l0.1,0.2h-0.3c-0.2,0-0.5,0-0.9,0c-0.4,0-0.7,0-1.1,0c-2.1,0-4.2,0.2-4.3,2.2
		c0,0.8,0.1,1.6,0.2,2.4c0.1,0.6,0.2,1.2,0.2,1.9c0.1,2.3,0.1,4.6,0,7.1v0.1l0.1,0.2l-0.2,0.1c-2.2,0.2-4.3,0.5-6.5,0.8h-0.2
		L130.5,105.7z"/>
	
		<linearGradient id="SVGID_38_" gradientUnits="userSpaceOnUse" x1="136.9038" y1="-16.3214" x2="125.7258" y2="-5.1435" gradientTransform="matrix(1 0 0 -1 0 98)">
		<stop  offset="0.5" style="stop-color:#EF5401"/>
		<stop  offset="1" style="stop-color:#DE2201"/>
	</linearGradient>
	<path class="st39" d="M118.1,111.5c0.8-1.4,1.7-2.4,2.6-3.4c0.6-0.6,1.3-0.7,2.1-0.7c0.1,0,0.3,0,0.4-0.1l9.2-1.1
		c3.7-0.4,7.5-0.9,11.3-1.4h0.2l-0.1,0.2c-0.2,1-0.4,1.9-0.7,2.7c-0.3,0.8-1.4,1-2.2,1.1c-0.2,0-0.4,0.1-0.5,0.1
		c-1.8,0.3-3.7,0.6-5.5,0.8c-4.9,0.7-9.2,1.2-13.2,1.7c-0.4,0.1-0.9,0.1-1.3,0.1c-0.8,0.1-1.5,0.1-2.3,0.2h-0.3L118.1,111.5z"/>
	
		<linearGradient id="SVGID_39_" gradientUnits="userSpaceOnUse" x1="106.2201" y1="27.5066" x2="59.2838" y2="74.443" gradientTransform="matrix(1 0 0 -1 0 98)">
		<stop  offset="0.5" style="stop-color:#EF5401"/>
		<stop  offset="1" style="stop-color:#DE2201"/>
	</linearGradient>
	<path class="st40" d="M98.5,75.1c-0.2-0.2-0.5-0.4-0.9-0.5h-0.1v-0.1c-0.2-1.9-0.5-3.8-0.7-5.7c-0.7-4.9-1.3-10.1-1.8-15.2
		l-0.1-0.1l0.1-0.1c0.7-0.8,0.8-1.7,0.2-2.6c-0.5-0.8-1.7-1.5-2.7-1.5c-0.1,0-0.2,0-0.4,0.1c-1.6,0.3-1.5,2.3-1.4,3.1v0.1l-0.2,0.1
		h0.1c0.2,1,0.6,1.6,1.3,1.8l0.1,0.1v0.1c0.5,3.9,0.9,7.9,1.3,11.9l-0.3,0.1c-0.7-2.1-1.4-4.3-2.1-6.4l-0.7-2
		c-0.9-2.7-1.7-5-3.3-7.1c-1.2-1.5-2.5-3-3.8-4.4c-0.5-0.5-1-1.1-1.4-1.6c-3.8-4.3-7.7-8.7-11.4-12.8l-1.3-1.5
		c-1-1.1-1.9-2.1-2.9-3.2c-0.9-1-1.9-2.1-2-3.7c-0.1-1.5,0.4-3.1,0.8-4.7c0.1-0.4,0.2-0.8,0.4-1.2l0.1-0.2l0.2,0.2
		c0.4,0.4,0.7,0.6,0.8,0.8c1,1,2,1.9,3,2.9l0.8,0.8c5.3,5.1,10.2,9.7,14.7,14.2c2.2,2.1,4.4,4.3,6.5,6.4c0.4,0.4,0.8,0.7,1.2,1.1
		c1.1,1,2.1,2,2.9,3.1c1.6,2.4,2.4,5.7,3.1,8.6c0.2,0.6,0.3,1.2,0.4,1.8c1.5,5.8,2.6,11.6,3.6,16.6l0.1,0.2h-0.2
		c-0.3,0-0.6,0.1-1,0.1c-1.1,0.1-2.1,0.4-2.9,1l-0.1,0.1V75.1z"/>
	
		<linearGradient id="SVGID_40_" gradientUnits="userSpaceOnUse" x1="87.5398" y1="64.3397" x2="68.3456" y2="83.5338" gradientTransform="matrix(1 0 0 -1 0 98)">
		<stop  offset="0.5" style="stop-color:#FE9C0E"/>
		<stop  offset="1" style="stop-color:#FE7F00"/>
	</linearGradient>
	<path class="st41" d="M85.3,35.8c-1.1-1-2.3-2.1-3.4-3.2c-2.5-2.4-4.9-4.8-7.4-7.2l-2-1.9c-0.4-0.5-0.8-1.1-1.2-1.6
		c-0.5-0.6-0.9-1.2-1.4-1.8c-0.2-0.2-0.4-0.5-0.7-0.8c-1-1.2-2.2-2.7-1.5-4.2l0.1-0.2c0,0,0.5,0.5,0.5,0.7c0.4,0.4,0.7,0.7,1.1,0.7
		h0.1c0.4,0,0.7-0.1,0.9-0.4c0.7-0.7,0.4-1.8-0.1-2.6l-0.1-0.1l0.2-0.1C70.6,13,70.8,13,71,13c1.4,0,2.7,2.4,3.4,3.8
		c0.2,0.3,0.3,0.6,0.4,0.8c1.7,2.8,3.4,5.6,5.1,8.4l0.1,0.2c0.8,1.4,1.7,2.8,2.4,4.2c1,1.7,2.1,3.6,3.1,5.3L85.3,35.8z"/>
	<path class="st24" d="M69.6,15.7c-0.3,0-0.6-0.3-0.8-0.5c-0.8-0.9-1.6-1.8-2.4-2.7c-0.5-0.5-1-1.1-1.5-1.7l-0.1-0.1l0.1-0.1
		c0.3-0.7,0.5-1.2,0.7-1.8l0.1-0.2l0.8,0.9c1.1,1.4,2.3,2.7,3.4,4.2c0.3,0.4,0.7,1.1,0.3,1.7C69.9,15.6,69.8,15.7,69.6,15.7z"/>
	
		<linearGradient id="SVGID_41_" gradientUnits="userSpaceOnUse" x1="50.4162" y1="78.4544" x2="43.2282" y2="85.6423" gradientTransform="matrix(1 0 0 -1 0 98)">
		<stop  offset="0.5" style="stop-color:#EF5401"/>
		<stop  offset="1" style="stop-color:#DE2201"/>
	</linearGradient>
	<path class="st42" d="M36.7,32.8c-0.1-0.4-0.2-0.8-0.3-1.2c-0.3-1.2-0.7-2.6-1.2-3.6L35.1,28l0.1-0.1c3.3-4.8,6.2-9,9.1-13.2
		c1.1-1.5,1.7-2.4,2.1-4.2c0.2-1.1,1-1.5,1.7-2c0.5-0.3,1-0.5,1.3-1.1c0.9-1.3,2.1-3,3.4-4.7c1-1.4,4.2-1.6,5.9-1.7H59l-0.2,0.2
		c-0.9,1.3-1.8,2.6-2.7,3.9c-0.5,0.7-0.9,1.3-1.4,1.9c-0.3,0.4-0.8,0.5-1.2,0.7c-0.4,0.1-0.7,0.2-1,0.4c-0.4,0.3-0.5,1.1-0.5,1.7
		c0,0.1,0,0.3-0.1,0.4c-0.2,1.2-0.9,2.2-1.6,3.1c-0.2,0.2-0.4,0.5-0.5,0.7L36.9,33.1L36.7,32.8z"/>
	
		<linearGradient id="SVGID_42_" gradientUnits="userSpaceOnUse" x1="27.9996" y1="62.2525" x2="22.7506" y2="67.5014" gradientTransform="matrix(1 0 0 -1 0 98)">
		<stop  offset="0.5" style="stop-color:#FE9C0E"/>
		<stop  offset="1" style="stop-color:#FE7F00"/>
	</linearGradient>
	<path class="st43" d="M25.9,37.8c-0.8,0-1.7-0.1-2.5-0.1c-1.1-0.1-2.1-0.1-3.2-0.1c-0.6,0-1.1,0-1.7,0.1h-0.3l0.2-0.2
		c1.6-2.4,3.3-4.9,5.1-7.2l0.4-0.5c1.2-1.6,1.6-2,3.7-2.1c1.2-0.1,2.3-0.1,3.4-0.1h0.4l-0.2,0.2c-0.7,0.7-1,1.8-0.7,3.4v0.1
		l-0.1,0.1c-0.5,0.7-0.9,1.3-1.3,2c-1,1.5-2,3-3,4.5L26,37.7L25.9,37.8z"/>
	
		<linearGradient id="SVGID_43_" gradientUnits="userSpaceOnUse" x1="22.0091" y1="53.8057" x2="16.3239" y2="59.4907" gradientTransform="matrix(1 0 0 -1 0 98)">
		<stop  offset="0.5" style="stop-color:#FE9C0E"/>
		<stop  offset="1" style="stop-color:#FE7F00"/>
	</linearGradient>
	<path class="st44" d="M13.7,43.3c0.7-3.3,2-4.9,4-4.9c0.7,0,1.2,0,1.9,0c1.2,0,2.4,0,3.5,0.1h0.5l-0.2,0.2c-1,1.2-0.6,3.4-0.4,4.2
		l0.1,0.2H23c-2,0.1-3.9,0.2-5.8,0.2h-0.6c-0.9,0.1-1.8,0.1-2.7,0.1h-0.2V43.3z"/>
	
		<linearGradient id="SVGID_44_" gradientUnits="userSpaceOnUse" x1="16.6241" y1="48.5258" x2="8.8806" y2="56.2694" gradientTransform="matrix(1 0 0 -1 0 98)">
		<stop  offset="0.5" style="stop-color:#FE9C0E"/>
		<stop  offset="1" style="stop-color:#FE7F00"/>
	</linearGradient>
	<path class="st45" d="M3.7,46.9c0.6-0.5,1.2-1,2-1.3c3-1.4,6.5-1.5,10-1.6c0.7,0,1.4-0.1,2.1-0.1c1.4-0.1,2.8-0.1,4.2-0.2l0.1,0.3
		c-1.5,0.7-2.7,1.5-3.6,2.6h-0.1h-0.1c-5.8,0-10.5,0.2-14.6,0.6l-0.5,0.1L3.7,46.9z"/>
	
		<linearGradient id="SVGID_45_" gradientUnits="userSpaceOnUse" x1="21.776" y1="36.2444" x2="10.9901" y2="47.0305" gradientTransform="matrix(1 0 0 -1 0 98)">
		<stop  offset="0.5" style="stop-color:#FE9C0E"/>
		<stop  offset="1" style="stop-color:#FE7F00"/>
	</linearGradient>
	<path class="st46" d="M14.9,65.6c-0.8-2.7-1.1-5.6-1.5-8.4l-0.1-0.9c-0.4-3-0.5-6.2,1.4-8.9l0.1-0.1h0.1c1,0,2,0,3-0.1H18l-0.1,0.2
		c-0.2,0.4-0.4,0.8-0.5,1.3c-1.2,4.2,0.2,9.4,1.4,13.7l0.2,0.7c0.1,0.1,0.1,0.2,0.1,0.4c0.2,0.8,0.3,1.1-0.7,1.5
		c-0.6,0.2-1.2,0.4-1.8,0.5h-0.1c-0.5,0.1-0.9,0.2-1.4,0.2H15L14.9,65.6z"/>
	
		<linearGradient id="SVGID_46_" gradientUnits="userSpaceOnUse" x1="12.9578" y1="35.2893" x2="1.4612" y2="46.7856" gradientTransform="matrix(1 0 0 -1 0 98)">
		<stop  offset="0.5" style="stop-color:#FE9C0E"/>
		<stop  offset="1" style="stop-color:#FE7F00"/>
	</linearGradient>
	<path class="st47" d="M4.7,66c-0.8-2.8-1.3-5.9-1.6-9.5c-0.3-3.3-0.3-6.7,1.8-8.8l0.1-0.1H5c1.2-0.1,2.6-0.2,3.9-0.2h0.4L9,47.7
		c-1.8,2.1-1.8,5.5-1.6,8.3c0.2,3.3,1,6.8,2.1,9.9L9.6,66H9.4C8.2,66.1,7,66.1,6,66.1H5.7c-0.2,0-0.5,0-0.7,0L4.7,66L4.7,66z"/>
	
		<linearGradient id="SVGID_47_" gradientUnits="userSpaceOnUse" x1="17.9468" y1="35.5281" x2="6.2123" y2="47.2628" gradientTransform="matrix(1 0 0 -1 0 98)">
		<stop  offset="0.5" style="stop-color:#FE9C0E"/>
		<stop  offset="1" style="stop-color:#FE7F00"/>
	</linearGradient>
	<path class="st48" d="M9.8,66c-1-2.7-1.7-5.7-2-8.9c-0.4-3.3-0.5-7.4,1.8-9.6l0.1-0.1h0.1c1.5-0.1,3-0.1,4.6-0.2h0.3l-0.2,0.2
		c-1.3,2-1.7,4.5-1.3,8l0.1,1.2c0.3,3,0.7,6,1.5,8.9l0.1,0.2h-0.2c-1.2,0.2-2.4,0.2-3.6,0.3c-0.2,0-0.4,0-0.7,0.1H9.8V66z"/>
	
		<linearGradient id="SVGID_48_" gradientUnits="userSpaceOnUse" x1="8.7133" y1="35.9391" x2="-1.3276" y2="45.98" gradientTransform="matrix(1 0 0 -1 0 98)">
		<stop  offset="0.5" style="stop-color:#FE9C0E"/>
		<stop  offset="1" style="stop-color:#FE7F00"/>
	</linearGradient>
	<path class="st49" d="M4,66.2c-0.8,0-1.2-0.1-1.6-0.3H2.3l-0.1-0.1c-0.7-3.3-1.4-7.1-1.4-11.1C0.8,52,1.4,49.7,2.7,48L2.8,48H3
		c0.4-0.1,0.8-0.1,1.2-0.1l0.5-0.1l-0.2,0.3c-1.7,2-1.7,4.9-1.6,7.5C3,59,3.6,62.7,4.5,66.1l0.1,0.2H4.4C4.2,66.2,4.1,66.2,4,66.2z"
		/>
	
		<linearGradient id="SVGID_49_" gradientUnits="userSpaceOnUse" x1="35.5592" y1="54.6334" x2="27.4368" y2="62.7559" gradientTransform="matrix(1 0 0 -1 0 98)">
		<stop  offset="0.5" style="stop-color:#EF5401"/>
		<stop  offset="1" style="stop-color:#DE2201"/>
	</linearGradient>
	<path class="st50" d="M33.4,45.3c-0.5-0.6-1-1-1.5-1.4c-0.8-0.5-1.7-0.8-2.7-0.9H29v-0.1c-0.3-0.8-0.5-1.7-0.8-2.6l-0.1-0.3
		c-0.2-0.5-0.4-1.1-0.7-1.5c-0.2-0.2-0.4-0.4-0.6-0.5L26.6,38l0.1-0.1c1-1.4,2-2.9,3-4.3l0.9-1.4l0.1,0.4c0.5,1.7,1,3.4,1.5,5.1
		l0.4,1.5c0.1,0.4,0.2,0.8,0.3,1.2c0.4,1.4,0.7,2.9,1.5,3.9l0.1,0.1l-1.1,1.1V45.3z"/>
	
		<linearGradient id="SVGID_50_" gradientUnits="userSpaceOnUse" x1="104.7732" y1="8.0789" x2="47.2611" y2="65.5908" gradientTransform="matrix(1 0 0 -1 0 98)">
		<stop  offset="0.5" style="stop-color:#FEE7A5"/>
		<stop  offset="1" style="stop-color:#FEBD57"/>
	</linearGradient>
	<path class="st51" d="M95.4,99.3c-1.2-0.2-2.3-0.7-3-1.6c-1.8-2.4-1.1-6.9-0.7-9.9c0.1-0.5,0.1-0.9,0.2-1.3
		c0.2-1.5-0.2-2.8-0.5-4.2l-0.2-0.7c-0.4-1.5-0.8-3.1-1.3-4.6l-0.2-0.8l0.1-0.1h-0.2l-0.3-1.1c-0.1-0.4-0.4-1.4-0.4-1.4
		c-1.2-4.3-2.4-8.7-3.9-13c-0.8-2.4-1.9-3.8-3.5-5.8c-4.8-5.6-9.7-11.6-15.9-18.8c-2.3-2.7-4.6-5.4-6.9-8.1c-0.3-0.4-0.7-0.8-1-1.1
		c-0.7-0.8-1.3-1.7-2.1-2.4l-0.1-0.1l0.1-0.1c0.2-0.3,0.5-0.5,0.8-0.8l0.1-0.1l0.1,0.1c0.5,0.3,1,0.7,1.2,1.4
		c0.1,0.1,0.1,0.2,0.2,0.2c0.1,0,0.1,0,0.1,0c0.3-0.1,0.7-0.3,1-0.4l0.1-0.1l0.1,0.1c0.3,0.2,0.6,0.6,0.8,1c0.1,0.1,0.2,0.3,0.4,0.4
		c0.9,1.1,1.8,2.1,2.7,3.2l0.2,0.2c2.9,3.4,5.8,6.9,8.7,10.3c2.9,3.5,5.9,7.1,8.8,10.6c0.2,0.3,0.5,0.6,0.8,0.9
		c0.9,1,1.8,2.1,2.6,3.2c1.5,2,2.7,4.4,3.7,7.2c2.3,6.4,4,12.9,5.7,19.5V81l1.9,12.4c0,1.9-0.1,3.8-0.1,5.7L95.4,99.3L95.4,99.3z"/>
	<path class="st24" d="M86,75.2c-0.3-2.6-0.5-5.3-0.8-7.8c-0.1-1.4-0.3-2.9-0.4-4.3l0.3-0.1l0.3,1c1.2,3.9,2.3,7.7,3.1,10.9l0.1,0.2
		l-0.2-0.1c-0.2-0.1-0.4-0.1-0.6-0.1c-0.6,0-1.2,0.2-1.6,0.3L86,75.4V75.2z"/>
	
		<linearGradient id="SVGID_51_" gradientUnits="userSpaceOnUse" x1="88.0613" y1="19.4796" x2="85.6869" y2="21.8539" gradientTransform="matrix(1 0 0 -1 0 98)">
		<stop  offset="0.5" style="stop-color:#FE9C0E"/>
		<stop  offset="1" style="stop-color:#FE7F00"/>
	</linearGradient>
	<path class="st52" d="M84.9,78.3c-0.1-0.7,0-1.1,0.2-1.5c0.3-0.5,1.7-1.2,2.7-1.2c0.7,0,1,0.3,1.1,0.5l0.3,1.1c0,0-0.4,0-0.5,0
		c-1.7,0-2.9,0.4-3.7,1.1l-0.2,0.2L84.9,78.3z"/>
	
		<linearGradient id="SVGID_52_" gradientUnits="userSpaceOnUse" x1="88.3861" y1="18.2044" x2="86.1775" y2="20.413" gradientTransform="matrix(1 0 0 -1 0 98)">
		<stop  offset="0.5" style="stop-color:#EF5401"/>
		<stop  offset="1" style="stop-color:#DE2201"/>
	</linearGradient>
	<path class="st53" d="M84.9,78.9c0.8-1,2.1-1.4,3.9-1.4c0.2,0,0.3,0,0.5,0h0.1l0.3,1.1h-0.2c-1.7,0.1-3,0.5-4.2,1.2l-0.2,0.1
		L84.9,78.9z"/>
	
		<linearGradient id="SVGID_53_" gradientUnits="userSpaceOnUse" x1="95.3242" y1="0.3344" x2="81.431" y2="14.2276" gradientTransform="matrix(1 0 0 -1 0 98)">
		<stop  offset="0.5" style="stop-color:#FE9C0E"/>
		<stop  offset="1" style="stop-color:#FE7F00"/>
	</linearGradient>
	<path class="st54" d="M88.7,104c-0.6-4-1.2-8-1.8-11.9c-0.6-3.9-1.1-7.8-1.8-11.8v-0.1l0.1-0.1c1.2-0.8,2.6-1.2,4.4-1.3h0.1
		l0.1,0.4c0.1,0.5,0.3,1.1,0.5,1.7c0.6,1.7,1.1,3.5,1,5.2c-0.1,0.8-0.2,1.7-0.4,2.4c-0.2,1.4-0.4,2.8-0.5,4.2
		c-0.1,2.7,0.8,5,2.4,6.2l0.1,0.1l-0.1,0.1c-1,1.2-2,2.4-3,3.6l-1.2,1.5L88.7,104z"/>
	
		<linearGradient id="SVGID_54_" gradientUnits="userSpaceOnUse" x1="87.0261" y1="-0.6659" x2="80.6471" y2="5.7132" gradientTransform="matrix(1 0 0 -1 0 98)">
		<stop  offset="0.5" style="stop-color:#EF5401"/>
		<stop  offset="1" style="stop-color:#DE2201"/>
	</linearGradient>
	<path class="st55" d="M87,98.5c-0.8,0-1.6,0-2.4,0c-1,0-1.8,0-2.8,0c-0.5,0-1,0-1.5,0h-0.1v-0.1c-0.1-1.4-0.1-3.2,0.2-4.9
		c0.2-1.4,1.1-2.1,2.6-2.3c0.8-0.1,1.5-0.2,2.3-0.2c0.3,0,0.5,0,0.8,0.1h0.1v0.1c0.4,2.4,0.7,4.8,1.1,7.2v0.2L87,98.5L87,98.5z"/>
	
		<linearGradient id="SVGID_55_" gradientUnits="userSpaceOnUse" x1="85.7336" y1="-9.4141" x2="76.8658" y2="-0.5459" gradientTransform="matrix(1 0 0 -1 0 98)">
		<stop  offset="0.5" style="stop-color:#FEE7A5"/>
		<stop  offset="1" style="stop-color:#FEBD57"/>
	</linearGradient>
	<path class="st56" d="M85.3,106.2c-0.2,0-0.5,0-0.7,0c-0.3,0-0.6,0-1,0h-8.9v-0.1c0-0.4,0-0.8-0.1-1.1c-0.1-1.5-0.1-3.2,0.4-4.5
		c0.5-1.2,2-1.2,3-1.2h0.2c1.7,0,3.5,0,5.2,0h3.6v0.1c0.3,1.9,0.5,3.7,0.8,5.6v0.1l-0.1,0.1C87.2,106,86.5,106.2,85.3,106.2z"/>
	
		<linearGradient id="SVGID_56_" gradientUnits="userSpaceOnUse" x1="91.2918" y1="-12.8968" x2="80.7602" y2="-2.3657" gradientTransform="matrix(1 0 0 -1 0 98)">
		<stop  offset="0.5" style="stop-color:#FE9C0E"/>
		<stop  offset="1" style="stop-color:#FE7F00"/>
	</linearGradient>
	<path class="st57" d="M83.9,110.9c-1.4,0-2.8,0-4.2,0c-0.9,0-1.8,0-2.7-0.1c-1.7-0.1-2.6-1.4-2.7-3.9v-0.2h10.5
		c0.2,0,0.5,0,0.8,0.1c0.2,0,0.5,0,0.7,0c0.6,0,1.2-0.1,1.7-0.7c1.1-1.2,2.2-2.6,3.3-3.9c0.8-1,1.5-2,2.3-2.9l0.1-0.1l0.1,0.1
		c0.5,0.2,1.1,0.4,1.7,0.5h0.1v1.2l-0.7,0.9c-1,1.3-2.1,2.7-3,4.2c-0.8,1.3-0.7,2.7-0.6,4.2l0.1,0.5h-0.5c-1.4,0-2.8,0-4.2,0
		C85.7,110.9,84.8,110.9,83.9,110.9z"/>
	
		<linearGradient id="SVGID_57_" gradientUnits="userSpaceOnUse" x1="79.9566" y1="-16.8861" x2="74.0914" y2="-11.021" gradientTransform="matrix(1 0 0 -1 0 98)">
		<stop  offset="0.5" style="stop-color:#636363"/>
		<stop  offset="1" style="stop-color:#878787"/>
	</linearGradient>
	<path class="st58" d="M77.6,114c-0.8-0.4-1.6-0.9-2.3-1.4c-0.3-0.2-0.6-0.4-1-0.6c-0.3-0.2-0.6-0.4-0.9-0.6
		c-0.2-0.2-0.5-0.3-0.7-0.5l-0.4-0.2h0.5c0.7,0,1.4-0.1,2.1-0.1h0.1l0.1,0.1c0.2,0.2,0.6,0.4,0.9,0.6c0.7,0.3,1.5,0.4,2.7,0.4
		c0.2,0,0.4,0,0.6,0h0.1h0.1c0.4,0.2,0.8,0.5,1.1,0.7c0.3,0.2,0.6,0.4,0.9,0.5l0.4,0.2l-0.4,0.1c-0.8,0.2-1.6,0.3-2.4,0.5
		c-0.3,0.1-0.7,0.2-1,0.2L77.6,114z"/>
	
		<linearGradient id="SVGID_58_" gradientUnits="userSpaceOnUse" x1="75.3057" y1="-17.9389" x2="68.6445" y2="-11.2776" gradientTransform="matrix(1 0 0 -1 0 98)">
		<stop  offset="0.5" style="stop-color:#D6D6D6"/>
		<stop  offset="1" style="stop-color:#AAAAAA"/>
	</linearGradient>
	<path class="st59" d="M72.5,114.2c-0.7-0.3-1.4-0.7-2.1-1.1c-0.3-0.2-0.6-0.3-0.9-0.5l-0.7-0.4c-0.6-0.3-1.1-0.6-1.7-0.9l-0.4-0.2
		l0.5-0.1c1.6-0.2,3.2-0.3,4.8-0.4H72H72c0.5,0.2,1,0.6,1.5,1c0.2,0.2,0.5,0.4,0.7,0.5c0.2,0.1,0.4,0.3,0.7,0.4
		c0.6,0.4,1.2,0.8,1.9,1.1l0.5,0.2l-1.1,0.1c-1.2,0.1-2.4,0.1-3.6,0.2L72.5,114.2z"/>
	
		<linearGradient id="SVGID_59_" gradientUnits="userSpaceOnUse" x1="70.0056" y1="-18.3723" x2="63.6113" y2="-11.9779" gradientTransform="matrix(1 0 0 -1 0 98)">
		<stop  offset="0.5" style="stop-color:#636363"/>
		<stop  offset="1" style="stop-color:#878787"/>
	</linearGradient>
	<path class="st60" d="M67,114.6c-0.7-0.1-1.3-0.5-2-0.8c-0.2-0.1-0.4-0.2-0.6-0.3c-0.2-0.1-0.5-0.2-0.7-0.4
		c-0.6-0.3-1.2-0.7-1.9-0.9l-0.5-0.2l0.5-0.1c1.4-0.3,2.9-0.5,4.5-0.8h0.1h0.1c0.8,0.5,1.6,0.9,2.4,1.3c0.2,0.1,0.5,0.2,0.8,0.4
		c0.3,0.1,0.5,0.3,0.8,0.4c0.4,0.2,0.8,0.4,1.1,0.6l0.5,0.2l-0.6,0.1C69.9,114.4,68.5,114.5,67,114.6z"/>
	
		<linearGradient id="SVGID_60_" gradientUnits="userSpaceOnUse" x1="63.9523" y1="-19.2402" x2="58.3968" y2="-13.6852" gradientTransform="matrix(1 0 0 -1 0 98)">
		<stop  offset="0.5" style="stop-color:#D6D6D6"/>
		<stop  offset="1" style="stop-color:#AAAAAA"/>
	</linearGradient>
	<path class="st61" d="M61.5,115.8c-0.8-0.2-1.5-0.5-2.3-0.7c-1-0.4-1.9-0.7-2.9-0.8l-0.4-0.1l0.4-0.2c1.2-0.7,2.7-1.2,4.5-1.7
		l0.3-0.1h0.1c1,0.3,1.8,0.7,2.7,1.2c0.2,0.1,0.5,0.2,0.8,0.4c0.2,0.1,0.4,0.2,0.5,0.3c0.3,0.1,0.5,0.3,0.8,0.4l0.5,0.2l-0.5,0.1
		c-0.4,0.1-0.9,0.1-1.3,0.2c-1.1,0.2-2.1,0.4-3,0.8L61.5,115.8z"/>
	
		<linearGradient id="SVGID_61_" gradientUnits="userSpaceOnUse" x1="58.7807" y1="-20.4556" x2="54.9909" y2="-16.6658" gradientTransform="matrix(1 0 0 -1 0 98)">
		<stop  offset="0.5" style="stop-color:#636363"/>
		<stop  offset="1" style="stop-color:#878787"/>
	</linearGradient>
	<path class="st62" d="M57.9,118.8c-0.8-0.2-1.5-0.4-2.3-0.6c-0.9-0.2-1.8-0.5-2.8-0.7l-0.2-0.1l0.1-0.2c0.7-1.2,1.6-2.1,2.9-3h0.1
		h0.1c1.2,0.1,2.4,0.5,3.6,1c0.5,0.2,1.1,0.4,1.7,0.6l0.4,0.1l-0.3,0.2c-1.3,0.7-2.3,1.5-3,2.7l-0.1,0.1L57.9,118.8z"/>
	
		<linearGradient id="SVGID_62_" gradientUnits="userSpaceOnUse" x1="56.8508" y1="-24.0216" x2="52.5282" y2="-19.6989" gradientTransform="matrix(1 0 0 -1 0 98)">
		<stop  offset="0.5" style="stop-color:#D6D6D6"/>
		<stop  offset="1" style="stop-color:#AAAAAA"/>
	</linearGradient>
	<path class="st63" d="M56.8,121.8c-0.9-0.2-1.7-0.3-2.6-0.4c-0.8-0.1-1.5-0.2-2.3-0.4h-0.1v-0.1c0.1-1.1,0.3-2.2,0.7-3.1l0.1-0.1
		h0.1c1,0.2,2,0.5,2.9,0.7c0.7,0.2,1.4,0.4,2.1,0.5l0.2,0.1l-0.1,0.2c-0.2,0.4-0.3,0.7-0.4,1c-0.2,0.5-0.3,1.1-0.4,1.6v0.2H56.8z"/>
	
		<linearGradient id="SVGID_63_" gradientUnits="userSpaceOnUse" x1="56.6721" y1="-27.4967" x2="52.0759" y2="-22.9005" gradientTransform="matrix(1 0 0 -1 0 98)">
		<stop  offset="0.5" style="stop-color:#636363"/>
		<stop  offset="1" style="stop-color:#878787"/>
	</linearGradient>
	<path class="st64" d="M57,124.9c-1.5-0.1-3.1-0.2-4.8-0.3h-0.1v-0.1c-0.2-1-0.4-2-0.4-3.1v-0.2l0.2,0.1c0.7,0.1,1.5,0.2,2.2,0.4
		c0.9,0.1,1.8,0.3,2.7,0.5h0.1v0.1c-0.1,0.9,0,1.8,0.2,2.6l0.1,0.2H57z"/>
	
		<linearGradient id="SVGID_64_" gradientUnits="userSpaceOnUse" x1="57.7956" y1="-30.7591" x2="53.0292" y2="-25.9928" gradientTransform="matrix(1 0 0 -1 0 98)">
		<stop  offset="0.5" style="stop-color:#D6D6D6"/>
		<stop  offset="1" style="stop-color:#AAAAAA"/>
	</linearGradient>
	<path class="st65" d="M53.8,127.9c-0.7-0.8-1.2-1.8-1.5-2.9l-0.1-0.2h0.2c1.5,0.1,3.1,0.2,4.6,0.3h0.2l0.1,0.1
		c0.3,0.8,0.8,1.5,1.4,2.1l0.3,0.2h-0.4c-1.1,0-2.1,0.1-3.1,0.2c-0.5,0.1-1.1,0.1-1.5,0.1H53.8z"/>
	
		<linearGradient id="SVGID_65_" gradientUnits="userSpaceOnUse" x1="60.7207" y1="-33.0902" x2="55.8614" y2="-28.2309" gradientTransform="matrix(1 0 0 -1 0 98)">
		<stop  offset="0.5" style="stop-color:#636363"/>
		<stop  offset="1" style="stop-color:#878787"/>
	</linearGradient>
	<path class="st66" d="M57.4,130.2c-1.2-0.4-2.3-1-3.2-1.9l-0.2-0.2h0.3c0.4-0.1,0.8-0.1,1.1-0.1c1.1-0.1,2.2-0.2,3.3-0.2
		c0.1,0,0.5,0,0.5,0h0.1c0.9,0.7,1.9,1.1,3.1,1.3v0.3C60.7,129.7,59.1,129.9,57.4,130.2L57.4,130.2z"/>
	
		<linearGradient id="SVGID_66_" gradientUnits="userSpaceOnUse" x1="66.1281" y1="-34.309" x2="61.3305" y2="-29.5114" gradientTransform="matrix(1 0 0 -1 0 98)">
		<stop  offset="0.5" style="stop-color:#D6D6D6"/>
		<stop  offset="1" style="stop-color:#AAAAAA"/>
	</linearGradient>
	<path class="st67" d="M63.8,131.1c-1.9-0.1-3.6-0.2-5.2-0.6v-0.3c1.5-0.2,3.2-0.5,4.9-1c0.7,0.1,1.4,0.1,2.1,0.1
		c1.1,0,2.2-0.1,3.2-0.1l0.1,0.3c-1.4,0.7-2.9,1-4.3,1.3L63.8,131.1L63.8,131.1L63.8,131.1z"/>
	
		<linearGradient id="SVGID_67_" gradientUnits="userSpaceOnUse" x1="69.0471" y1="-33.8413" x2="66.8224" y2="-31.6166" gradientTransform="matrix(1 0 0 -1 0 98)">
		<stop  offset="0.5" style="stop-color:#636363"/>
		<stop  offset="1" style="stop-color:#878787"/>
	</linearGradient>
	<path class="st68" d="M65.7,130.8c1.1-0.3,2.4-0.7,3.6-1.2l0.1-0.1l0.1,0.1c0.2,0.4,0.4,0.7,0.5,1l0.1,0.2h-0.2
		c-1.5,0.1-2.9,0.2-4.2,0.2V130.8z"/>
	
		<linearGradient id="SVGID_68_" gradientUnits="userSpaceOnUse" x1="76.6642" y1="-34.0323" x2="70.6593" y2="-28.0269" gradientTransform="matrix(1 0 0 -1 0 98)">
		<stop  offset="0.5" style="stop-color:#636363"/>
		<stop  offset="1" style="stop-color:#878787"/>
	</linearGradient>
	<path class="st69" d="M77.9,130.5c-1.3,0-2.7-0.1-4-0.2c-1.2-0.1-2.4-0.1-3.6-0.2h-0.1l-0.1-0.1c-0.2-0.4-0.5-0.8-0.7-1.3v-0.1
		c-0.1-0.3-0.2-0.7-0.3-1l-0.1-0.2h0.2c2.3,0.2,5,0.5,7.6,0.6h0.1l0.1,0.1c0.2,0.7,0.5,1.4,0.9,2.1l0.1,0.2H77.9z"/>
	
		<linearGradient id="SVGID_69_" gradientUnits="userSpaceOnUse" x1="78.3147" y1="-36.5926" x2="72.2248" y2="-30.5028" gradientTransform="matrix(1 0 0 -1 0 98)">
		<stop  offset="0.5" style="stop-color:#D6D6D6"/>
		<stop  offset="1" style="stop-color:#AAAAAA"/>
	</linearGradient>
	<path class="st70" d="M77.7,132.9c-0.9,0-1.8-0.1-2.6-0.1c-0.7,0-1.4-0.1-2.1-0.1H73h-0.1c-1-0.6-1.7-1.3-2.4-2.1l-0.2-0.2h0.3
		c1.1,0,2.2,0.1,3.3,0.2c1.3,0.1,2.7,0.2,4,0.2c0,0,0.1,0,0.1-0.1l0.1-0.2l0.1,0.2c0.5,0.7,1,1.3,1.6,1.9l0.2,0.2l-0.4,0.1
		C79.2,132.8,78.5,132.9,77.7,132.9z"/>
	
		<linearGradient id="SVGID_70_" gradientUnits="userSpaceOnUse" x1="81.1302" y1="-38.6163" x2="75.6935" y2="-33.18" gradientTransform="matrix(1 0 0 -1 0 98)">
		<stop  offset="0.5" style="stop-color:#636363"/>
		<stop  offset="1" style="stop-color:#878787"/>
	</linearGradient>
	<path class="st71" d="M82.9,134.8c-4-0.1-6.8-0.6-9-1.6l0.1-0.3c0.4,0,0.8,0.1,1.2,0.1c0.9,0.1,1.8,0.1,2.7,0.1
		c1,0,1.8-0.1,2.5-0.1h0.1l0.1,0.1c0.8,0.7,1.7,1.2,2.6,1.6L82.9,134.8z"/>
	
		<linearGradient id="SVGID_71_" gradientUnits="userSpaceOnUse" x1="91.8431" y1="-32.5237" x2="83.0823" y2="-23.7628" gradientTransform="matrix(1 0 0 -1 0 98)">
		<stop  offset="0.5" style="stop-color:#D6D6D6"/>
		<stop  offset="1" style="stop-color:#AAAAAA"/>
	</linearGradient>
	<path class="st72" d="M87.4,132.3c-3.1,0-5.7-2.6-6-6.1c0-1.7,0.5-3.3,1.7-4.3c1.1-1.1,2.7-1.8,4.5-1.8c2.3,0,4.9,1.2,5.9,4.5
		c0.5,1.7,0.3,3.4-0.5,4.8c-0.8,1.4-2.3,2.3-4,2.7C88.2,132.2,87.8,132.3,87.4,132.3z M87.4,121.8c-1.2,0-2.4,0.5-3.2,1.2
		c-0.8,0.8-1.2,1.8-1.2,3.1c0.2,2.6,2,4.3,4.5,4.4h0.1c2.4,0,4.1-1.7,4.2-4.2c0.1-1.3-0.4-2.4-1.1-3.3
		C89.8,122.3,88.7,121.8,87.4,121.8z"/>
	
		<linearGradient id="SVGID_72_" gradientUnits="userSpaceOnUse" x1="90.1218" y1="-30.8677" x2="84.6991" y2="-25.4451" gradientTransform="matrix(1 0 0 -1 0 98)">
		<stop  offset="0.5" style="stop-color:#636363"/>
		<stop  offset="1" style="stop-color:#878787"/>
	</linearGradient>
	<path class="st73" d="M87.4,129.9c-2,0-3.5-1.5-3.7-3.7c0-1.1,0.4-2.1,1-2.7c0.7-0.7,1.6-1.1,2.6-1.1c1.7,0,3.5,1.1,3.8,3.4
		c0.2,2-0.9,3.5-2.9,3.9C87.9,129.9,87.7,129.9,87.4,129.9z"/>
	
		<linearGradient id="SVGID_73_" gradientUnits="userSpaceOnUse" x1="132.0659" y1="-46.5456" x2="93.62" y2="-8.1001" gradientTransform="matrix(1 0 0 -1 0 98)">
		<stop  offset="0.5" style="stop-color:#606060"/>
		<stop  offset="1" style="stop-color:#464646"/>
	</linearGradient>
	<path class="st74" d="M86.3,134.8c-3.7-0.4-6.4-2.2-8-5.3c-1.8-3.6-0.9-8,2.2-10.2c2.7-1.9,7-2.3,10.5-2.7c0.4-0.1,0.7-0.1,1.1-0.1
		c4.1-0.4,8.3-0.5,12.5-0.5c4.6,0,9.3-0.2,13.8-0.3c3.7-0.1,7.5-0.2,11.3-0.3c0.5,0,1.1,0,1.7,0c3.2,0,6.9,0.1,10.5,1.2
		c2.5,0.7,4.5,2.2,5.5,4.2c1.1,2,1.2,4.3,0.5,6.7c-0.2,0.6-0.5,1.2-0.8,1.7c-1.6,3-5.4,3.2-8.4,3.4l-0.8,0.1
		c-16.2,1-32.9,1.6-49.6,2H86.3z M87.5,119.5c-2,0-3.7,0.7-5,2c-1.2,1.2-1.8,2.9-1.8,4.7c0.4,4,3,6.7,6.8,6.7h0.2
		c2.8,0,5.1-1.5,6-4.1l0.1-0.1h0.1c10.5-0.6,21.1-1,31.4-1.3c2.6-0.1,5.1-0.2,7.6-0.2h0.1l0.1,0.1c1,2.1,3.1,3.4,5.7,3.4
		c1.8,0,3.6-0.7,4.8-1.9c1.1-1.1,1.7-2.7,1.7-4.5c-0.4-3.8-3-6.3-6.5-6.3c-0.2,0-0.4,0-0.5,0c-2.3,0.2-4,1.2-4.9,3.1l-0.1,0.1h-0.1
		c-6.6,0.1-13.3,0.3-19.8,0.5c-6.5,0.2-13.3,0.5-20,0.5h-0.1l-0.1-0.1C91.9,120.5,89.8,119.5,87.5,119.5z"/>
	
		<linearGradient id="SVGID_74_" gradientUnits="userSpaceOnUse" x1="123.7684" y1="-37.4377" x2="102.4094" y2="-16.0787" gradientTransform="matrix(1 0 0 -1 0 98)">
		<stop  offset="0.5" style="stop-color:#636363"/>
		<stop  offset="1" style="stop-color:#878787"/>
	</linearGradient>
	<path class="st75" d="M93.9,127.9c0.1-0.7,0.2-1.4,0.2-2c-0.1-1-0.2-1.8-0.6-2.6l-0.1-0.2h0.2c6.5-0.1,13.1-0.3,19.5-0.5
		c6.4-0.2,13-0.5,19.4-0.5h0.2l-0.1,0.2c-0.2,0.8-0.4,1.7-0.4,2.6c0,0.5,0.1,1.1,0.2,1.6l0.1,0.2h-0.2c-2.4,0.1-4.8,0.2-7.2,0.2
		c-10.2,0.3-20.8,0.7-31.2,1.2h-0.2V127.9z"/>
	
		<linearGradient id="SVGID_75_" gradientUnits="userSpaceOnUse" x1="142.7411" y1="-30.6033" x2="134.4557" y2="-22.318" gradientTransform="matrix(1 0 0 -1 0 98)">
		<stop  offset="0.5" style="stop-color:#D6D6D6"/>
		<stop  offset="1" style="stop-color:#AAAAAA"/>
	</linearGradient>
	<path class="st76" d="M138.3,130.3c-3.3,0-5.1-2.9-5.3-5.5c-0.4-3,1.4-5.3,4.5-6c0.4-0.1,0.8-0.1,1.2-0.1c3,0,5.3,2.4,5.6,5.7
		c0,3.4-2.3,5.8-5.9,5.9C138.4,130.3,138.4,130.3,138.3,130.3z M138.5,120.4c-2.2,0-3.7,1.5-3.9,3.8c-0.1,1.2,0.3,2.3,1,3
		c0.7,0.8,1.8,1.2,3,1.2c1.1,0,2.2-0.4,2.9-1.1c0.7-0.7,1.1-1.7,1.1-2.9C142.4,122,140.8,120.4,138.5,120.4L138.5,120.4z"/>
	
		<linearGradient id="SVGID_76_" gradientUnits="userSpaceOnUse" x1="141.0986" y1="-28.9255" x2="136.1875" y2="-24.014" gradientTransform="matrix(1 0 0 -1 0 98)">
		<stop  offset="0.5" style="stop-color:#636363"/>
		<stop  offset="1" style="stop-color:#878787"/>
	</linearGradient>
	<path class="st77" d="M138.7,127.8c-1.5,0-3.2-1-3.4-3.1c-0.2-1.8,0.8-3.1,2.6-3.6c0.2-0.1,0.5-0.1,0.8-0.1c1.8,0,3.1,1.4,3.3,3.4
		c0,1-0.3,1.8-1,2.5C140.5,127.5,139.7,127.8,138.7,127.8z"/>
	
		<linearGradient id="SVGID_77_" gradientUnits="userSpaceOnUse" x1="68.5081" y1="-27.175" x2="62.1643" y2="-20.8308" gradientTransform="matrix(1 0 0 -1 0 98)">
		<stop  offset="0.5" style="stop-color:#D6D6D6"/>
		<stop  offset="1" style="stop-color:#AAAAAA"/>
	</linearGradient>
	<path class="st78" d="M65.4,126.4c-2.5,0-4.5-2.1-4.5-4.9c0-2.2,2-3.6,4-3.9c0.2,0,0.4-0.1,0.5-0.1c1.6,0,3,1,3.7,2.5v0.1v0.1
		c-0.2,0.7-0.5,1.5-0.7,2.4c-0.2,0.9-0.2,1.8-0.2,2.7v0.1l-0.1,0.1C67.3,126.1,66.4,126.4,65.4,126.4z M65,119.6
		c-1.2,0-2.3,1-2.3,2.3c-0.1,1.3,0.8,2.4,2.2,2.6c0.1,0,0.2,0,0.3,0c0.6,0,1.1-0.2,1.6-0.7c0.5-0.5,0.7-1.1,0.7-1.8
		C67.3,120.5,66.4,119.6,65,119.6L65,119.6z"/>
	
		<linearGradient id="SVGID_78_" gradientUnits="userSpaceOnUse" x1="66.3266" y1="-25.2633" x2="63.7837" y2="-22.7199" gradientTransform="matrix(1 0 0 -1 0 98)">
		<stop  offset="0.5" style="stop-color:#636363"/>
		<stop  offset="1" style="stop-color:#878787"/>
	</linearGradient>
	<path class="st79" d="M65.1,123.7c-0.8,0-1.7-0.5-1.8-1.6c-0.1-1,0.4-1.7,1.4-1.9c0.1,0,0.2-0.1,0.4-0.1c0.9,0,1.6,0.7,1.7,1.7
		c0,0.5-0.2,1-0.5,1.3C66,123.6,65.5,123.7,65.1,123.7z"/>
	
		<linearGradient id="SVGID_79_" gradientUnits="userSpaceOnUse" x1="40.203" y1="56.4804" x2="29.1846" y2="67.4986" gradientTransform="matrix(1 0 0 -1 0 98)">
		<stop  offset="0.5" style="stop-color:#FEE7A5"/>
		<stop  offset="1" style="stop-color:#FEBD57"/>
	</linearGradient>
	<path class="st80" d="M36.3,44.6c-1.4,0-2-2.1-2.4-3.4l-0.1-0.4c-0.3-1-0.5-1.9-0.8-2.9c-0.5-1.9-1.1-3.8-1.7-5.7
		c-0.4-1.2-1.1-4,1.1-4.7c0.2-0.1,0.5-0.1,0.7-0.1c1.4,0,1.7,1.4,2.1,2.6c0.1,0.2,0.1,0.4,0.2,0.5c0.4,1.2,0.8,2.5,1.2,3.7
		c0.6,1.8,1.2,3.7,1.7,5.5c0.5,1.5,0.7,3.3-1,4.3C37,44.5,36.6,44.6,36.3,44.6z M36.5,41.5c-0.3,0-0.5,0.2-0.5,0.5
		c0,0.3,0.2,0.5,0.5,0.5c0.3,0,0.5-0.2,0.5-0.5C37,41.7,36.7,41.5,36.5,41.5z M32.9,29.3c-0.2,0-0.3,0.2-0.3,0.4
		c0,0.1,0.1,0.4,0.3,0.4c0.2,0,0.3-0.2,0.3-0.4C33.2,29.5,33.2,29.3,32.9,29.3z"/>
	
		<linearGradient id="SVGID_80_" gradientUnits="userSpaceOnUse" x1="54.4886" y1="73.4811" x2="45.3786" y2="82.5914" gradientTransform="matrix(1 0 0 -1 0 98)">
		<stop  offset="0.5" style="stop-color:#FE9C0E"/>
		<stop  offset="1" style="stop-color:#FE7F00"/>
	</linearGradient>
	<path class="st81" d="M38.9,39.7c-0.5-1.7-1.1-3.4-1.6-5.1l-0.2-0.8l0.1-0.1l6.7-9.7l6.7-9.7c0.2-0.2,0.4-0.5,0.6-0.8
		c0.5-0.7,1.1-1.4,1.3-2.1c0.1-0.2,0.1-0.5,0.2-0.9c0.2-1.1,0.4-2.2,1.6-2.4c0.5-0.1,0.8-0.4,1.1-0.8c0.5-0.7,0.9-1.3,1.4-2
		c1-1.4,2.1-2.9,3-4.4l0.1-0.1h0.1c2.6,0,5.1,3,5.4,5.4c0.2,2.2-1.3,4.8-2.6,6.8c-0.2,0.4-0.4,0.7-0.5,1l-0.1,0.1L62,14.1
		c-0.5-0.2-1-0.3-1.4-0.3c-0.4,0-0.8,0.1-1.2,0.2c-1.8,0.8-2.1,2.7-0.9,5.4l0.1,0.1l-0.1,0.1c-2,2.8-4.6,5.3-7,7.7
		c-0.8,0.7-1.5,1.5-2.3,2.2c-3.3,3.3-6.6,6.6-9.9,9.9L39,39.8L38.9,39.7z M62.2,4.5c-0.5,0-1,0.4-1,1s0.4,1,1,1c0.5,0,1-0.4,1-1
		C63.2,5,62.8,4.5,62.2,4.5z"/>
	
		<linearGradient id="SVGID_81_" gradientUnits="userSpaceOnUse" x1="27.8447" y1="54.5516" x2="23.7385" y2="58.6579" gradientTransform="matrix(1 0 0 -1 0 98)">
		<stop  offset="0.5" style="stop-color:#FEE7A5"/>
		<stop  offset="1" style="stop-color:#FEBD57"/>
	</linearGradient>
	<path class="st82" d="M23.8,42.9c-0.4-1.6-0.4-2.8,0-3.5c0.2-0.4,0.7-0.7,1.2-0.9c0.2-0.1,0.4-0.1,0.5-0.1H26
		c0.5,0.1,0.9,0.4,1.2,0.8c0.4,0.8,0.7,1.8,1,2.7c0.1,0.2,0.1,0.5,0.2,0.7l0.1,0.2h-0.2c-0.2,0-0.4,0-0.7,0h-0.1v-0.2l-0.1,0.1h-0.3
		c-0.3,0-0.6,0-0.9,0h-0.4c-0.4,0-0.8,0-1.2,0.1H23.8L23.8,42.9z M25.6,41.2c0.1,0,0.2-0.1,0.3-0.2c0.1-0.1,0.1-0.2,0.1-0.4
		c-0.1-0.2-0.2-0.3-0.4-0.3c-0.1,0-0.3,0.1-0.4,0.2c-0.1,0.2-0.1,0.4,0.1,0.5c0.1,0.1,0.2,0.1,0.2,0.1L25.6,41.2
		C25.5,41.2,25.5,41.2,25.6,41.2z"/>
	<path class="st83" d="M21.8,48.3c-2.6,4-0.6,10.3,0.3,14.6c1.2,5.5,4.3-1.1,5.5-3.1c1.3-2.5,2.6-5,3.9-7.5c0.7-1.4,1.3-2.6,0.8-4.2
		C30.7,43.6,23.7,45.3,21.8,48.3z M22.9,62.5c-0.7-3.3-1.3-6.5-1.4-9.9c0-1.7,0.5-3.3,1.7-4.5c1.5-1.5,4-2.2,5.9-1.5
		c0.5,1,0.4,2.2,0.1,3.2c-0.4,1.8-1.2,3.6-2,5.2C26,57.6,24.4,60,22.9,62.5z M28.8,55.2c-0.8,1.7-1.7,3.3-2.6,4.9
		c-0.5,1-1.1,2.1-1.7,3.1c-0.8,1.3-1.2,0.8-1.5-0.1c1.8-3,3.8-6,5.3-9.3c0.8-1.7,2.2-4.8,1.5-6.9c0.5,0.3,0.9,0.7,1.2,1.1
		C32.4,49.8,29.7,53.6,28.8,55.2z"/>
	<path class="st83" d="M116.9,105.3c1,0.4,2.1,0.1,3.1,0c1.8-0.2,3.6-0.5,5.4-0.9c3.6-0.7,2.6-4.7,2.6-7.5
		c-0.1-5.5-0.1-11.1-0.2-16.6c0-1.2,0.2-3.1-1-3.9c-0.5-0.3-1.2-0.2-1.7-0.2c-1.3,0.1-2.7,0.1-4,0.3h-0.1H121
		c-1.7,0.3-3.4,0.7-4.3,2.4c-0.9,1.7-0.8,4-0.9,5.8c-0.3,5.2-0.5,10.3-0.7,15.5C115.1,101.9,114.9,104.4,116.9,105.3z M126,77
		c1.2,0.1,0.8,2.4,0.8,3.2c0.1,4.7,0.1,9.3,0.1,14c0,1.8,0.1,3.6,0.1,5.3c0,1.6,0.2,3.5-1.9,3.9c-2.2,0.4-4.4,0.8-6.7,1
		c-0.9,0.1-1.4-0.2-1.8-0.6c1.6,0,3.3-0.4,4.8-0.5c1.4-0.2,3.6-0.1,4.2-1.7c0.2-0.7,0.2-1.5,0.2-2.3c0.1-1.5,0.1-3,0.1-4.6
		c0-3.7-0.1-7.4-0.1-11.2c0-1.3-0.1-2.6-0.1-3.9c0-0.9,0.1-1.9-0.3-2.7C125.6,77,125.8,77,126,77z M116.1,100.2
		c0.1-4.2,0.3-8.4,0.5-12.6c0.1-1.8,0.2-3.5,0.3-5.3c0.1-1.3,0.2-2.8,1.1-3.8c0.7-0.8,2.1-1,3.1-1.2c1.2-0.2,2.5-0.3,3.7-0.3
		c0.5,0.9,0.4,2.1,0.4,3.1c0,1.2,0.1,2.5,0.1,3.7c0.1,3.4,0.1,6.8,0.1,10.3c0,2.3,0.1,4.6-0.1,6.8c-0.2,1.8-2.8,1.7-4.2,1.9
		c-1.5,0.2-3.2,0.5-4.8,0.5C116,102.5,116.1,101.2,116.1,100.2z"/>
	<path class="st83" d="M98.6,80.5c-0.6,7.4-0.7,14.9-1,22.3c-0.1,2,0.8,4.2,3.1,4.2c2.5,0,5.1,0.2,7.5,0.1c2-0.1,2.9-1.6,3-3.4
		c0.4-7.4,0.7-14.9,0.8-22.3c0-1.1,0.2-2.6-0.5-3.4c-0.8-1.1-2.5-0.9-3.7-0.9c-1.7,0-3.3-0.1-5-0.1c-1,0-2.1,0.1-2.9,0.7
		C98.9,78.3,98.6,79.4,98.6,80.5z M102.8,77.9c1.7,0,3.3,0,5,0.1c0.9,0,2.3-0.2,3,0.5c0.6,0.7,0.4,2.1,0.3,2.9
		c-0.2,7.4-0.4,14.9-0.8,22.3c0,0.2-0.1,0.4-0.1,0.6c-2.6,0-5.3,0.1-7.9,0c-0.4,0-0.9-0.1-1.3-0.1c-1-0.2-0.9-1.6-0.9-2.4
		s0.1-1.5,0.1-2.3c0.1-2.2,0.2-4.5,0.4-6.7c0.2-3.1,0.4-6.1,0.5-9.2c0.1-1.8,0.1-3.9,0.5-5.6C102,77.9,102.4,77.9,102.8,77.9z
		 M100.5,78.3c0.2-0.1,0.4-0.2,0.5-0.2c-0.4,1.8-0.4,3.7-0.5,5.6c-0.2,3.4-0.4,6.8-0.6,10.2c-0.1,2.5-0.3,5.1-0.4,7.5
		c-0.1,1.8,0.1,3.1,2.1,3.3c2.8,0.2,5.6,0.1,8.4,0.1c-0.2,0.8-0.8,1.4-1.8,1.4c-2.5,0.1-5.1-0.1-7.5-0.1c-1.8,0-2.2-1.7-2.1-3.2
		c0.4-7.4,0.4-14.9,1-22.3C99.6,79.7,99.8,78.8,100.5,78.3z"/>
	<path class="st83" d="M148.3,117.3c-3.2-5-8.3-4.6-13.4-4.8c-3.8-0.1-7.5-0.4-11.3-0.5c4.1-0.4,8.2-1,12.3-1.5
		c1.7-0.2,3.3-0.5,5-0.8c0.7-0.1,1.7-0.1,2.4-0.5c2.1-1.2,1.7-6.8,1.7-8.8c0.1-3.7,0.5-8.9-2-11.8c-1.1-1.4-3.1-1.5-4.8-1.6
		c-2.6-0.2-5.1-0.3-7.7-0.5c0-0.2,0-0.4,0-0.6c-0.1-2.1-0.1-4.3-0.2-6.4c-0.1-1.4,0.1-3.9-1-5c-1.1-1.1-4.9-0.7-6.4-0.7
		c-0.8,0-1.5,0-2.3-0.1c0,0,0,0-0.1,0h-0.1c-3.3-0.1-6.7,0-10,0.1c-2.4,0.1-4.8,0-7.1,0.1c-1.2-6.3-2.5-12.6-4.2-18.8
		c-0.8-3-1.5-6.8-3.6-9.3c-2.3-2.7-4.9-5.3-7.7-7.8c0,0,0,0,0-0.1c-3-4.7-5.7-9.6-8.6-14.4c-1.7-2.9-3.4-5.7-5.1-8.5
		c-1-1.7-2.1-4-4.4-2.7c-1.3-1.6-2.6-3.2-4-4.8C66,6.9,66,6.3,65.9,5.7c-0.2-2.1-2.6-4.5-4.3-5.4c-1.9-1-6.1,0.4-8.1,1.1
		c-0.7,0.2-0.9,0.5-1.3,1c-1.1,1.5-2.3,3.1-3.4,4.7c-0.7,1-2.3,0.6-2.7,1.8c-0.2,0.8-0.4,1.5-0.6,2.3c-0.2,1.2-1.1,2.1-1.8,3
		c-3,4.3-6,8.6-9,13c-0.1-0.1-0.1-0.1-0.1-0.1c-0.4-0.3-1-0.4-1.5-0.4c-2-0.1-4-0.1-6,0.1c-1.2,0.1-2.2,0.1-2.9,1.1
		c-2.4,3.1-4.7,6.4-6.8,9.7c-0.1,0-0.2,0-0.4,0.1c-2.6,0.5-3.6,3.5-4,5.8C7,43.9,1.3,45.3,0.2,52.2c-0.6,3.9,0.3,8,1,11.8
		c0.7,3.9,1.7,7.8,2.2,11.8c0.1,0.2,0.2,0.4,0.4,0.4h0.1c0.9,0,1.8-0.1,2.7-0.1c0.1,0,0.2-0.1,0.3-0.1c0.1-0.1,0.2-0.2,0.2-0.4
		c-0.1-0.9-0.2-1.8-0.2-2.7c0-0.4,0.1-0.7,0.1-1.1c0-0.1,0.1-0.2,0.1-0.3l0.1,0.1c0.2,0.3,0.3,0.6,0.4,1c0.4,1,0.7,2.1,0.8,3.1v0.1
		c0,0.1,0.1,0.1,0.1,0.1c0,0,0,0,0.1,0.1L8.6,76c0.1,0,0.1,0,0.1,0h0.1h0.1c0.7-0.1,1.3-0.1,2-0.2c0.1,0,0.1,0,0.1-0.1
		c0.2-0.1,0.4-0.2,0.3-0.4c-0.1-0.9-0.2-1.8-0.2-2.7c0-0.4,0.1-0.7,0.1-1.1c0-0.1,0.1-0.2,0.1-0.3l0.1,0.1c0.2,0.3,0.3,0.6,0.4,1
		c0.4,1,0.7,2.1,0.8,3.1v0.1c0.1,0.1,0.1,0.2,0.2,0.2H13H13h0.1c0.7,0,1.3,0,2,0c0.4,0,0.5-0.4,0.4-0.7c-0.2-1-0.3-1.9-0.4-2.9
		c0-0.4-0.1-0.8,0.1-1.1c0.1-0.1,0.1-0.1,0.1-0.2c0,0.1,0,0.1,0.1,0.2c0.8,1.2,1,2.8,1.4,4.2v0.1c0,0,0,0.1,0.1,0.1
		c0,0,0,0.1,0.1,0.1c0.1,0.1,0.2,0.2,0.4,0.2c0.8,0,1.5-0.1,2.3-0.1c0.4,0,0.5-0.5,0.4-0.7c-0.4-1.2-0.7-2.4-0.8-3.6
		c-0.1-0.9,0.4-0.1,0.7,0.2c0.7,1.1,1.2,2.4,1.5,3.7v0.1v0.1c0,0,0,0.1,0.1,0.1c0.1,0.1,0.2,0.2,0.4,0.2c0.8,0,1.5-0.1,2.3-0.1
		c0.1,0,0.2-0.1,0.2-0.1c0.1-0.1,0.2-0.2,0.2-0.4c-0.1-2-0.4-3.6,0.6-5.3c1-1.9,2-3.8,3.1-5.7c2.1-3.8,4.3-7.5,6.3-11.3
		c1.1-2,0.8-4.6-0.4-6.6c0.3-0.3,0.7-0.7,1-1c1,0.5,2.3,0.4,3.1-0.4c1.3-1.1,1.5-2.5,1.2-4c3.7-3.7,7.3-7.4,11-11
		c1.6-1.6,3.3-3.1,4.8-4.8c1,1,1.9,2.2,2.8,3.3c2.4,2.8,4.8,5.6,7.1,8.4c5.5,6.5,10.9,13,16.4,19.5c0.8,1,1.7,1.8,2.1,3.1
		c0,0,0,0.1,0.1,0.1c0,0.1,0,0.1,0,0.1c0.6,5.4,1,10.8,1.6,16.2c-1.5,0.9-1.3,2.6-1.1,4.2c0.5,3.5,1.1,7,1.5,10.5
		c-2-0.2-4.9,0-5.9,1.9c-0.5,0.8-0.5,1.9-0.5,2.9c-0.1,1.1-0.2,2.3-0.1,3.4c-0.7,0-1.2,0-1.9,0.1c-4,0.1-3.4,4.8-3.4,7.7h-0.1
		c-0.1,0-0.2,0.1-0.3,0.1c0,0-0.1,0-0.1,0.1c-0.1,0.1-0.1,0.2-0.1,0.3c0,1.2,0.1,2.4,0.7,3.4c-5.1,0.1-10.3,0.7-15.3,2
		c-4.1,1.1-7.4,4-7.8,8.4c-0.4,4,0.8,8,4.6,10c1.2,0.7,2.7,1,4.2,1.1c3.5,0.4,7.2,0.4,10.7,0.1c0.6,0.7,1.2,1.3,2.1,1.8
		c3.4,2.4,7.7,2.3,11.7,2.2c0.7,0,1.4,0,2-0.1c0.4,0.1,0.7,0.1,1,0.1c0.1,0,0.2-0.1,0.3-0.1c15.9-0.3,31.7-1.1,47.5-1.9
		c3.2-0.2,6.7-0.1,9.7-1.3C149.7,130.3,150.9,121.4,148.3,117.3z M148.5,121.6c-0.4-1.2-1.2-2.4-2.2-3.3c0,0,0,0,0-0.1
		c-0.7-1.2-1.3-2.6-2.1-3.7C147,115.8,148.3,118.6,148.5,121.6z M142.4,113.9c0.4,0.1,0.7,0.2,1,0.3c0,0.1,0,0.1,0.1,0.2
		c0.8,1,1.3,2,1.9,3.1c-0.9-0.7-1.8-1.1-2.9-1.5c0-0.1,0-0.1-0.1-0.1c-0.9-0.8-1.7-1.7-2.7-2.4C140.6,113.5,141.5,113.6,142.4,113.9
		z M138.7,113.4C138.7,113.4,138.7,113.4,138.7,113.4c1.1,0.6,2,1.5,2.9,2.3c-1-0.2-1.9-0.5-2.9-0.6c-1.1-0.6-2.3-1.2-3.4-1.8
		C136.4,113.3,137.6,113.3,138.7,113.4z M134.5,113.3c0,0.1,0,0.2,0.1,0.2c1,0.5,1.9,1,2.8,1.5c-1.1-0.1-2.1-0.2-3.1-0.2
		c-0.2,0-0.4,0-0.6,0l-0.1-0.1c-0.9-0.4-1.7-1-2.5-1.4C132.3,113.3,133.4,113.3,134.5,113.3z M130.4,113.2c0,0.1,0.1,0.1,0.1,0.2
		c0.8,0.4,1.5,0.9,2.2,1.4c-1,0-2-0.1-2.9,0c-0.9-0.5-1.7-1.1-2.6-1.7C128.3,113.1,129.3,113.2,130.4,113.2z M126.3,113
		c0.9,0.6,1.7,1.1,2.6,1.7c-1.1,0-2.3,0.1-3.4,0.1c-1-0.6-1.9-1.3-2.9-2C123.9,112.9,125.1,112.9,126.3,113z M69.1,125.5
		c0-0.3,0-0.5,0-0.8c2.5,0.4,5.1,1.1,7.5,1.2c0,0.7,0.1,1.2,0.2,1.8c-2.5-0.1-5.1-0.3-7.6-0.6c-0.1-0.5-0.2-1-0.2-1.5
		C69.1,125.6,69.1,125.5,69.1,125.5z M60.2,120.9c-1.1,4.8,4.3,7.6,8,5.5c0.1,0.7,0.2,1.4,0.5,2.1c-2.5,0.2-5.1,0.2-7.4-0.6
		c-4.2-1.4-4.4-6.4-2-9.5c1.9-2.4,5.3-2.7,8.1-3c2.4-0.2,4.8-0.4,7.2-0.5c-1,0.4-2,1-2.9,1.5c-1,0.7-1.7,1.6-2.2,2.7
		C67.2,115.5,61.2,116.4,60.2,120.9z M69.1,120.2c-0.3,0.8-0.5,1.6-0.7,2.4c-0.2,0.9-0.2,1.8-0.2,2.7c-3.2,2.4-7.1,0-7.1-3.8
		c0-2.1,2-3.5,3.9-3.7C66.7,117.6,68.3,118.6,69.1,120.2z M76.6,125.5c-2.5-0.1-5.1-0.9-7.5-1.2c0.1-1,0.2-2,0.5-2.9
		c2.5,0.4,4.9,1.1,7.4,1.6C76.8,123.7,76.7,124.6,76.6,125.5z M69.8,120.8c0.4-1.1,1-2.1,1.8-3c0.1,0.1,0.1,0.1,0.1,0.1
		c2.4,0.3,4.8,1.2,7.1,1.8c-0.6,0.6-1.1,1.2-1.4,2.1c-0.1,0.2-0.2,0.4-0.2,0.6C74.7,122,72.3,121.2,69.8,120.8z M71.9,117.5
		c0.8-0.8,1.8-1.3,2.9-1.8h0.1c2.3,0.6,4.4,1.5,6.6,2.2c-0.8,0.4-1.6,0.8-2.3,1.4C76.8,118.7,74.3,117.9,71.9,117.5z M75.5,115.5
		c0.8-0.3,1.6-0.5,2.4-0.7c0.1,0,0.1,0,0.2-0.1c0.5-0.1,1.1-0.2,1.6-0.4c0.2-0.1,0.4-0.1,0.5-0.1c2.2,0.7,4.4,1.4,6.5,2.3
		c0,0,0,0-0.1,0c-1.5,0.3-3.1,0.6-4.6,1.2C79.9,117,77.8,116.1,75.5,115.5z M81.2,114.1c1.8-0.4,3.7-0.7,5.6-0.9
		c2.1,0.7,4,1.7,6.1,2.5c-1.8,0.2-3.6,0.4-5.3,0.7c0-0.1-0.1-0.1-0.1-0.1C85.5,115.4,83.4,114.7,81.2,114.1z M95.7,110.7
		c-1.2,0-2.4,0-3.6,0c-0.1-1.8-0.2-3.2,0.9-4.9c0.7-1.1,1.5-2.2,2.3-3.2c0,0.2,0,0.4,0,0.5C95.3,105.3,94.7,108.6,95.7,110.7z
		 M61.2,23.4c0.1-0.1,0.1-0.1,0.2-0.2c0.1-0.1,0.1-0.3,0-0.5c-1.4-2.1-2.9-4-2.5-6.7c0.4-3,3.7-0.8,5.8,1c-0.7,2.9-2,6.1-0.6,8.9
		c0.7,1.4,2.1,2.7,3.1,3.9c4,4.5,8,8.9,11.9,13.4c1.8,2.1,3.7,4.2,5.5,6.2c2.2,2.6,3.6,4.9,4.7,8.1c1.5,4.7,3.1,9.4,4.5,14.2
		c0.1,1.2,0.2,2.4,0.4,3.5c-0.8,0.5-1,1.2-1.1,2.1c-1.1-4.5-2.4-9-3.9-13.4c-1.4-4.2-3.1-8.2-6-11.7C77.7,45.5,72,38.8,66.4,32
		c-1.5-1.8-3.1-3.7-4.6-5.5c-0.6-0.7-1.2-1.6-1.9-2.3C60.3,24,60.7,23.7,61.2,23.4z M58.4,23.9c-0.3-0.5-0.7-0.9-1.1-1.2
		c0.6-0.7,1.1-1.4,1.7-2.1c0.5,0.9,1,1.7,1.4,2.3C59.7,23.3,59.1,23.6,58.4,23.9z M68.2,19c0.1,0.2,0.2,0.4,0.4,0.5
		c-0.4-0.3-0.7-0.7-1-1c-1.1-1.1-2.8-3-4.6-4.1c0.5-0.9,1.1-1.9,1.6-2.9c0.9,1,1.8,1.9,2.7,2.9C66,16.3,67,17.4,68.2,19z M93.2,54.6
		c0.3-0.1,0.6-0.2,0.9-0.4c0.7,6.8,1.7,13.5,2.5,20.3c-0.5,0.1-1.1,0.2-1.6,0.4c-0.8-6.8-1.5-13.5-2.3-20.3
		C92.9,54.6,93.1,54.6,93.2,54.6z M91.3,52.4c-0.1-0.7-0.2-1.8,0.6-2.1c0.7-0.2,1.5,0.2,2,0.7c0.5,0.4,0.8,0.8,0.7,1.5s-1,1-1.5,1.2
		C92,54,91.5,53.5,91.3,52.4z M94.2,76.5c0.5-0.8,2.7-1.4,3.6-0.8c-0.4,0.4-0.7,0.8-0.9,1.2c-1,0.2-2,0.2-2.9,0.8
		C94,77.3,94.1,76.9,94.2,76.5z M96.7,77.5c-0.2,0.4-0.3,0.8-0.4,1.2c-0.7,0.2-1.4,0.2-2.1,0.5c-0.1-0.3-0.1-0.6-0.1-0.9
		C94.8,77.6,95.7,77.6,96.7,77.5z M96.1,79.1c-0.1,0.5-0.2,1-0.2,1.5c-0.2,2.5-0.3,5-0.4,7.5c-0.4-2.9-0.9-5.7-1.3-8.5
		C94.8,79.3,95.5,79.2,96.1,79.1z M96.3,111.7C96.3,111.7,96.3,111.6,96.3,111.7C96.3,111.7,96.3,111.7,96.3,111.7
		c-3.9,0.1-7.7,0.3-11.5,0.8c0.1-0.1,0.1-0.2,0-0.3c-0.2-0.2-0.5-0.4-0.7-0.5C88.1,111.7,92.2,111.7,96.3,111.7z M84.4,112.6
		c-0.8,0.1-1.6,0.2-2.4,0.4c-0.7-0.3-1.3-0.8-1.9-1.1c0.8-0.1,1.7-0.1,2.3-0.1c0.2,0,0.4,0,0.6,0C83.5,112,84,112.2,84.4,112.6z
		 M87.9,113c1.8-0.2,3.6-0.3,5.3-0.4c1.9,1,3.8,1.8,5.8,2.7c-1.7,0.1-3.4,0.1-5.1,0.2l-0.1-0.1C91.9,114.9,89.9,113.8,87.9,113z
		 M94.3,112.7c1.3-0.1,2.7-0.1,4-0.1h0.1c0.6,0.1,1.2,0.2,1.8,0.2c1.7,0.7,3.4,1.7,5.1,2.6c-1.3,0-2.6,0-3.9,0c-0.4,0-0.8,0-1.2,0
		C98.2,114.5,96.2,113.6,94.3,112.7z M101.5,112.8c1.5,0.1,3.1,0.1,4.6,0.1c1.6,0.9,3.3,1.5,4.9,2.4c-1.5,0-3.1,0-4.7,0
		C104.6,114.5,103.1,113.6,101.5,112.8z M107,112.9c1.4,0,2.9-0.1,4.3-0.1h0.1c1.6,0.7,3.1,1.6,4.7,2.5c-1.4,0.1-2.9,0.1-4.2,0.1
		C110.3,114.4,108.6,113.7,107,112.9z M112.5,112.7c0.9-0.1,1.7-0.1,2.6-0.1c0.7,0,1.4,0.1,2.1,0.1c1.2,0.8,2.3,1.6,3.5,2.4
		c-1.2,0.1-2.4,0.1-3.6,0.2c-0.1,0-0.1,0-0.1,0C115.5,114.4,114,113.5,112.5,112.7z M118.1,112.7c1.2,0.1,2.4,0.1,3.7,0.1
		c1,0.6,2,1.4,3,2c-1.1,0.1-2.1,0.1-3.2,0.2C120.3,114.2,119.2,113.5,118.1,112.7z M143.7,94.1c0.2,3.1,0.5,6.7,0.2,10
		c-2,0.2-3.9,0.5-5.8,0.7c0.1-3,0.1-5.9-0.1-8.9c-0.1-0.9-0.2-1.7-0.3-2.6c-0.1-1.6,4.5-1.4,5.8-1.4
		C143.6,92.7,143.7,93.4,143.7,94.1z M138.1,87.9c1.5,0.1,3,0.2,4.1,1.3c0.5,0.5,0.8,1.1,1,1.8c-2.1,0-6.5-0.5-6.5,2.3
		c0,1.4,0.3,2.9,0.4,4.3c0.1,2.4,0.1,4.8,0,7.1c0,0.1,0,0.1,0,0.1c-2.2,0.2-4.3,0.5-6.5,0.8v-0.1c0-6.1,0-12.2-0.1-18.2
		C133,87.6,135.6,87.7,138.1,87.9z M130.2,106.7c4.5-0.5,9-1.1,13.5-1.7c-0.1,1-0.4,1.8-0.7,2.7c-0.3,1-1.8,0.9-2.6,1
		c-1.8,0.3-3.6,0.6-5.5,0.8c-4.4,0.7-8.8,1.2-13.2,1.7c-0.4,0.1-0.9,0.1-1.3,0.1c-0.8,0.1-1.5,0.1-2.3,0.2c0.7-1.2,1.5-2.4,2.6-3.4
		c0.7-0.7,1.5-0.6,2.4-0.7C125.6,107.2,127.9,107,130.2,106.7z M121.5,74.7c2,0,4,0.1,6,0.2c0.8,0.1,1.1,0.1,1.4,1
		c0.4,1.5,0.4,3.3,0.5,4.9c0.5,8.3,0.3,16.5,0.4,24.8c0,0.1,0,0.1,0.1,0.2c-0.4,0.1-0.8,0.1-1.2,0.1c-2.3,0.3-4.6,0.5-6.9,0.8
		c-2,0.2-3.5,3.1-4.3,4.5c-0.1,0.1-0.1,0.2-0.1,0.3c-0.4,0-0.7,0-1.1,0c-2.9-0.1-2.9-3.9-2.9-5.9c0-3.1,0.2-6.2,0.3-9.2
		c0.1-4.3,0.3-8.6,0.5-12.9c0.1-1.8,0-3.6,0.5-5.3c0.8-2.6,3.3-3.5,5.8-3.6C120.7,74.7,121.1,74.7,121.5,74.7z M105.8,74.8
		c3.6-0.1,7.2-0.1,10.9-0.1c-1.8,1-3,2.7-3.4,5.2c-0.7,5.2-0.5,10.7-0.6,16c-0.1,4-0.8,8.4-0.2,12.4c0.3,1.9,1,3,2,3.6
		c-2.6,0.1-5.1,0.1-7.6,0.1c-3,0.1-6.4,0.4-9.2-0.5c-2-0.7-1.5-4-1.5-5.6c0-1.5,0.1-3,0.1-4.5c0-0.1,0-0.1,0-0.2c0-0.5,0-1,0-1.5
		c0-0.1,0-0.1,0-0.1c0.1-1.8,0.1-3.7,0.1-5.6c0-0.1,0.1-0.1,0-0.2v-0.1c0.1-4,0.2-8,0.4-12c0.1-2.5,0.5-5.3,3.1-6.3
		C101.7,74.7,103.9,74.9,105.8,74.8z M91.3,42.8c1.3,1.3,3,2.6,4,4.2c1.9,2.9,2.7,7,3.5,10.3c1.4,5.5,2.6,11.1,3.6,16.6
		c-0.3,0-0.6,0.1-1,0.1c-1.2,0.1-2.1,0.5-2.9,1c-0.3-0.3-0.6-0.5-1-0.5c-0.9-7-1.8-13.9-2.6-20.9c0-0.1,0-0.1,0-0.1
		c0.7-0.7,0.9-1.7,0.2-2.8c-0.6-1-2.1-1.8-3.3-1.5c-1.5,0.3-1.7,2-1.5,3.2v0.1v0.1c0.2,1,0.7,1.7,1.4,2c0.5,3.9,0.9,7.9,1.3,11.9
		c-0.9-2.8-1.8-5.6-2.7-8.3c-0.8-2.6-1.7-5-3.3-7.1c-1.6-2.1-3.4-4-5.2-6c-4-4.5-8-9-11.9-13.4c-1.2-1.4-2.4-2.7-3.7-4.1
		c-1-1.1-1.9-2.1-2-3.7c-0.2-1.9,0.7-4,1.1-5.9c0.4,0.4,0.7,0.6,0.8,0.8c1.2,1.2,2.5,2.4,3.7,3.6c4.9,4.8,9.8,9.4,14.7,14.2
		C86.9,38.5,89.1,40.7,91.3,42.8z M74.7,17.6c1.7,2.9,3.4,5.7,5.1,8.6c1.9,3.1,3.7,6.4,5.6,9.5c-1.1-1.1-2.3-2.1-3.4-3.2
		c-3.1-3-6.3-6.1-9.4-9.1c-0.8-1.1-1.7-2.3-2.6-3.4c-1-1.4-2.9-3.1-2.1-4.8c0.1,0.2,0.3,0.3,0.4,0.5c0.3,0.4,0.7,0.7,1.2,0.8
		c0.4,0.1,0.8-0.2,1.1-0.5c0.8-0.8,0.5-1.9-0.1-2.7C72.4,12.3,74.1,16.6,74.7,17.6z M69.7,13.7c0.4,0.5,0.7,1,0.3,1.6
		c-0.3,0.5-0.8,0-1-0.2c-1.3-1.5-2.6-2.9-3.9-4.3c0.3-0.6,0.5-1.2,0.7-1.8C67.1,10.4,68.5,12,69.7,13.7z M44.5,14.7
		c1.1-1.5,1.7-2.5,2.1-4.3c0.4-1.8,2.1-1.7,3-3c1.1-1.6,2.3-3.1,3.4-4.7c1-1.3,3.9-1.5,5.8-1.7c-1.3,2-2.7,3.9-4,5.8
		c-0.4,0.7-1.5,0.5-2.2,1.1C52,8.4,52,9.6,51.9,10.2c-0.2,1.5-1.2,2.6-2.1,3.8c-0.9,1.3-1.8,2.6-2.7,3.9c-3.4,4.9-6.8,9.9-10.3,14.9
		c-0.4-1.4-0.7-3.4-1.5-4.8C38.4,23.6,41.4,19.1,44.5,14.7z M23.8,29.8c1.2-1.6,1.5-1.9,3.6-2.1c1.1-0.1,2.3-0.1,3.4-0.1
		c-0.9,0.9-0.9,2.3-0.7,3.6c-1.4,2.1-2.8,4.3-4.3,6.4c-2.4-0.1-5-0.4-7.4-0.2C20.2,34.9,22.1,32.4,23.8,29.8z M27,39.3
		c0.5,1,0.8,2.3,1.1,3.4c-0.2,0-0.5,0-0.7,0c-0.1,0-0.1,0-0.1,0c-0.1,0-0.2,0-0.3,0c-0.4,0-0.8,0-1.2,0.1c-0.7,0-1.3,0.1-2,0.1
		c-0.4-1.5-0.8-3.7,1.1-4.2c0.2-0.1,0.4-0.1,0.5-0.1c0.2,0,0.3,0,0.5,0C26.5,38.7,26.8,38.8,27,39.3z M17.8,38.5
		c1.9-0.1,3.7,0,5.6,0.1c-0.9,1.1-0.8,3-0.4,4.4c-2,0.1-3.9,0.2-5.8,0.2c-1.1,0.1-2.1,0.1-3.3,0.2C14.3,41.2,15.2,38.6,17.8,38.5z
		 M5.8,45.7c3.6-1.7,8.2-1.5,12.1-1.7c1.4-0.1,2.8-0.1,4.2-0.2c-1.4,0.6-2.7,1.4-3.6,2.6c0,0,0,0-0.1,0c-4.8,0-9.7,0.2-14.6,0.6
		C4.4,46.6,5,46.1,5.8,45.7z M18.7,63.2c0.3,1,0.5,1.2-0.5,1.7c-0.6,0.2-1.2,0.4-1.8,0.5c-0.5,0.1-0.9,0.2-1.4,0.2
		c-0.9-3-1.2-6.2-1.5-9.3c-0.4-3-0.5-6.2,1.3-8.8c1,0,2,0,3-0.1c-0.2,0.4-0.4,0.8-0.6,1.3C15.9,53.2,17.5,58.9,18.7,63.2z M7.3,55.9
		c0.2,3.4,1,6.8,2.1,10C8.2,66,7,66,5.7,66c-0.2,0-0.5,0-0.9,0.1C4,63,3.5,59.8,3.2,56.5C3,53.7,2.8,50.1,5,47.9
		c1.3-0.1,2.6-0.2,3.9-0.2C7.1,49.8,7.1,53.3,7.3,55.9z M7.9,57.1c-0.4-2.9-0.6-7.2,1.7-9.5c1.5-0.1,3.1-0.1,4.6-0.2
		c-1.5,2.4-1.6,5.2-1.3,8c0.4,3.4,0.7,6.8,1.7,10.1c-1.2,0.1-2.4,0.2-3.6,0.3c-0.4,0-0.7,0.1-1.1,0.1C8.9,63.1,8.2,60,7.9,57.1z
		 M2.5,65.8C1.7,62.2,1.1,58.5,1,54.8C1,52.3,1.5,49.9,2.9,48c0.1,0,0.1,0,0.1,0C3.5,48,3.9,48,4.4,47.9c-1.7,2.1-1.8,5-1.6,7.5
		C2.9,59,3.5,62.6,4.4,66C3.7,66.1,2.9,66,2.5,65.8z M33.6,52.1c-0.8,1.5-1.7,3-2.5,4.5c-2,3.4-3.9,7-5.7,10.4
		c-0.6,1.1-1.5,2.3-1.8,3.5c-0.4,1.2-0.1,2.7-0.1,4c-0.5,0-1,0.1-1.4,0.1c-0.2-0.7-0.5-1.3-0.7-2c-0.4-0.8-0.8-1.9-1.5-2.5
		c-0.6-0.5-1.3-0.2-1.6,0.5c-0.2,0.5-0.1,1.2,0.1,1.7c0.1,0.8,0.4,1.7,0.6,2.4c-0.4,0-0.9,0.1-1.3,0.1c-0.2-0.9-0.5-1.8-0.8-2.7
		c-0.2-0.6-0.5-1.7-1.2-2c-1.9-0.5-1.2,3.3-1,4.8c-0.4,0-0.7,0-1,0c-0.2-1.1-0.5-2.3-1-3.3c-0.2-0.5-0.6-1.2-1.2-1.3
		c-0.7-0.1-0.9,1-1,1.4c-0.2,1.1-0.1,2.2,0.1,3.3c-0.4,0.1-0.8,0.1-1.1,0.1c-0.2-1.1-0.5-2.3-1-3.3c-0.2-0.5-0.6-1.2-1.2-1.3
		c-0.7-0.1-0.9,1-1,1.4C6,72.9,6.1,74,6.2,75.1c-0.6,0-1.2,0.1-1.8,0.1c-0.4-2.8-1-5.6-1.6-8.4c1.8,0.6,4.8,0.1,6.5,0
		c3.1-0.1,6.7-0.1,9.6-1.2c0.5-0.2,1.2-0.5,1.2-1.2c0.1-0.7-0.4-1.5-0.5-2.1c-0.4-1.5-0.8-3.1-1.1-4.8c-0.7-2.8-1.1-6.1-0.3-8.9
		c1-3.4,6.1-4.7,9.1-4.8c1.8,0,3.4,0.2,4.8,1.5C34.1,47.1,34.8,49.8,33.6,52.1z M33.5,45.2c-0.5-0.5-1-1-1.6-1.4
		c-0.9-0.5-1.8-0.8-2.8-1c-0.3-0.8-0.5-1.7-0.8-2.6c-0.2-0.7-0.4-1.4-0.8-1.9c-0.2-0.2-0.4-0.4-0.7-0.5c1.3-1.8,2.5-3.6,3.7-5.4v0.1
		c0.7,2.2,1.3,4.4,1.9,6.6c0.5,1.7,0.8,3.8,1.8,5.2C34.1,44.7,33.8,44.9,33.5,45.2z M37.3,44.1c-2.1,1.4-2.9-1.9-3.3-3.3
		c-0.8-2.9-1.6-5.8-2.5-8.6c-0.4-1.5-1-3.9,1-4.5c2-0.6,2.3,1.5,2.8,2.9c1,3.1,2,6.2,3,9.3C38.7,41.6,38.9,43.1,37.3,44.1z
		 M49.2,29.5c-3.4,3.4-6.8,6.8-10.1,10.2c-0.6-1.9-1.2-3.8-1.8-5.7c0,0,0-0.1,0.1-0.1c3.6-5.2,7.1-10.3,10.7-15.4
		c0.9-1.3,1.8-2.6,2.7-3.9c0.6-0.9,1.7-2,2-3c0.3-1.1,0.1-3,1.7-3.1c0.6-0.1,1-0.4,1.2-0.9c1.5-2.1,3-4.2,4.4-6.4
		c2.4,0,5,2.9,5.3,5.3c0.3,2.6-1.8,5.6-3.1,7.7c-0.9-0.4-1.8-0.4-2.7,0c-2.3,1.1-1.9,3.4-1,5.6C55.9,23.3,52.4,26.3,49.2,29.5z
		 M81.6,54.7c-5.3-6.3-10.6-12.6-15.9-18.8c-2.3-2.7-4.6-5.5-6.9-8.1c-1-1.2-1.9-2.4-3-3.6c0.2-0.3,0.5-0.5,0.8-0.8
		c0.5,0.3,0.9,0.8,1.2,1.3c0,0,0,0,0,0.1c0.1,0.2,0.2,0.3,0.5,0.2c0.3-0.1,0.7-0.3,1-0.4c0.4,0.4,0.8,0.9,1.1,1.4
		c1,1.1,1.9,2.3,2.9,3.4c2.9,3.4,5.8,6.9,8.7,10.3c2.9,3.5,5.9,7.1,8.8,10.6c1.1,1.4,2.3,2.7,3.3,4.1c1.6,2.2,2.8,4.7,3.7,7.2
		c2.3,6.4,4,13,5.6,19.5c0,0,0,0.1,0.1,0.1c0.7,4.1,1.2,8.3,1.9,12.4c-0.1,1.9-0.1,3.7-0.1,5.6c-5.7-0.7-3.9-8.8-3.3-12.6
		c0.2-1.8-0.3-3.2-0.8-4.9c-0.5-1.8-1-3.6-1.5-5.5V76c0,0,0,0,0-0.1c-0.2-0.8-0.4-1.6-0.7-2.4c-1.2-4.4-2.4-8.7-3.9-13.1
		C84.4,58.1,83.3,56.7,81.6,54.7z M85,63c0.1,0.4,0.2,0.7,0.3,1c1.1,3.6,2.1,7.2,3.1,10.9c-0.7-0.2-1.5,0-2.3,0.2
		C85.7,71.2,85.4,67.1,85,63z M85.2,76.9c0.4-0.7,3.2-1.7,3.6-0.6c0.1,0.3,0.2,0.6,0.2,0.9c-1.5-0.1-3,0.2-4.1,1.2
		C84.9,77.8,85,77.3,85.2,76.9z M85.2,79.5c0-0.2-0.1-0.4-0.1-0.5c1-1.2,2.7-1.4,4.2-1.3c0.1,0.2,0.1,0.5,0.2,0.8
		c-1.5,0.1-3,0.4-4.3,1.2C85.2,79.6,85.2,79.5,85.2,79.5z M85.3,80.2c1.2-0.9,2.8-1.2,4.3-1.3c0,0.1,0.1,0.2,0.1,0.3
		c0.6,2.1,1.7,4.6,1.5,6.8c-0.2,2.2-0.8,4.4-0.8,6.7c-0.1,2.5,0.7,5,2.4,6.4c-1.4,1.6-2.7,3.3-4,4.9C87.6,96.1,86.5,88.1,85.3,80.2z
		 M80.5,93.5c0.2-1.4,1.1-2,2.5-2.2c1-0.1,2-0.2,3-0.2c0.4,2.4,0.7,4.8,1.1,7.2c-2.3,0-4.5-0.1-6.8,0C80,96.8,80.2,95,80.5,93.5z
		 M75.4,100.4c0.5-1.2,2-1.1,3.1-1.1c2.9,0,5.8,0,8.7,0c0.3,1.9,0.5,3.7,0.8,5.6c-1.2,1.5-2.4,1.1-4.3,1.1c-2.9,0-5.8,0-8.7,0
		C74.9,104.3,74.6,102.1,75.4,100.4z M84.7,107c1.2,0,2.4,0.4,3.3-0.6c2-2.2,3.7-4.6,5.6-6.9c0.5,0.2,1.1,0.5,1.8,0.5
		c0,0.4,0,0.7,0,1c-1.2,1.7-2.6,3.3-3.6,5.1c-0.9,1.4-0.7,3-0.6,4.6c-1.5,0-3,0-4.6,0c-2.3,0-4.6,0-6.9,0c-0.9,0-1.8,0-2.7-0.1
		c-2-0.1-2.4-2.1-2.5-3.7C77.9,107,81.3,107,84.7,107z M74.9,110.8c0.3,0.2,0.6,0.5,1,0.6c1,0.4,2.1,0.5,3.4,0.4
		c0.7,0.4,1.3,0.8,2,1.2c-0.8,0.2-1.6,0.3-2.4,0.5c-0.3,0.1-0.7,0.2-1,0.2c-0.1,0-0.2,0-0.2,0c-1.1-0.5-2.2-1.2-3.3-1.9
		c-0.5-0.3-1-0.7-1.5-1C73.5,110.8,74.2,110.8,74.9,110.8z M72,110.9c0.8,0.4,1.5,1,2.2,1.4c0.8,0.5,1.7,1.1,2.5,1.5
		c-1.4,0.1-2.7,0.1-4.1,0.2c-1.1-0.4-2-1-3-1.5c-0.8-0.4-1.6-0.8-2.4-1.2C68.8,111.1,70.4,111,72,110.9z M66.4,111.4
		c1.1,0.6,2.1,1.1,3.2,1.7c0.7,0.4,1.2,0.7,1.9,1c-1.5,0.1-3,0.2-4.5,0.4c-0.9-0.2-1.7-0.7-2.5-1.1c-0.9-0.4-1.7-0.9-2.6-1.2
		C63.4,111.9,64.9,111.6,66.4,111.4z M60.9,112.5c0.1,0,0.2-0.1,0.2-0.1c1.2,0.4,2.3,1,3.4,1.5c0.5,0.2,0.9,0.5,1.4,0.7
		c-0.4,0.1-0.9,0.1-1.3,0.2c-1,0.1-2.1,0.4-3,0.8c-1.8-0.4-3.4-1.3-5.2-1.6C57.7,113.3,59.3,112.8,60.9,112.5z M55.7,114.5
		c1.8,0.2,3.4,1,5.2,1.5c-1.2,0.7-2.3,1.5-3,2.7c-1.7-0.4-3.3-1-5.1-1.3C53.5,116.1,54.6,115.2,55.7,114.5z M52.7,117.8
		c1.7,0.3,3.3,0.9,5,1.2c-0.2,0.3-0.3,0.7-0.4,1c-0.2,0.5-0.3,1.1-0.4,1.7c-1.7-0.3-3.3-0.5-4.9-0.8C52,119.7,52.2,118.7,52.7,117.8
		z M51.9,121.4c1.6,0.3,3.3,0.5,4.9,0.8c-0.1,0.9,0,1.8,0.2,2.6c-1.6-0.1-3.1-0.2-4.8-0.3C52.1,123.5,51.9,122.4,51.9,121.4z
		 M52.4,124.9c1.6,0.1,3.1,0.2,4.8,0.3c0.3,0.8,0.8,1.5,1.4,2.2c-1.5,0-3.1,0.2-4.7,0.4C53.3,126.9,52.8,126,52.4,124.9z
		 M54.3,128.3c1.6-0.1,3.2-0.4,4.9-0.4c1,0.7,2,1.1,3.2,1.3c-1.6,0.4-3.3,0.6-4.9,0.8C56.2,129.7,55.1,129,54.3,128.3z M63.8,130.9
		C63.8,130.9,63.8,130.9,63.8,130.9c-1.8,0-3.6-0.1-5.2-0.5c1.7-0.2,3.3-0.5,5-1c1.8,0.2,3.6,0.1,5.2-0.1
		C67.3,130.2,65.5,130.5,63.8,130.9z M65.7,130.9c1.2-0.3,2.4-0.7,3.6-1.2c0.2,0.4,0.4,0.7,0.5,1C68.5,130.8,67.1,130.9,65.7,130.9z
		 M70.4,130c-0.2-0.4-0.5-0.8-0.7-1.3v-0.1c-0.1-0.3-0.2-0.7-0.3-1c2.5,0.3,5.1,0.5,7.6,0.6c0.2,0.7,0.5,1.4,1,2.1
		C75.4,130.3,72.9,130,70.4,130z M70.7,130.5c2.4,0.1,4.9,0.3,7.3,0.4c0.1,0,0.2-0.1,0.2-0.1c0.5,0.7,1,1.4,1.6,1.9
		c-2.3,0.2-4.5,0-6.8-0.1C72.1,132.1,71.3,131.3,70.7,130.5z M73.9,133.1c2.1,0.1,4.2,0.2,6.4,0c0.8,0.7,1.7,1.2,2.6,1.6
		C79.7,134.6,76.5,134.3,73.9,133.1z M147.6,127.5c-0.2,0.6-0.5,1.1-0.8,1.7c-1.7,3.2-5.9,3.1-9.1,3.3c-16.5,1-33,1.6-49.6,2
		c-0.6,0-1.2,0.1-2,0.1c-3.4-0.4-6.2-2-7.8-5.2c-1.7-3.4-1-7.8,2.1-10c3-2.1,7.9-2.4,11.4-2.7c4.1-0.4,8.3-0.5,12.4-0.5
		c8.4-0.1,16.7-0.5,25.1-0.6c4-0.1,8.2,0.1,12.1,1.1C146.6,118.2,149.1,122.7,147.6,127.5z"/>
	<path class="st83" d="M82.9,126.2c0.2,2.6,2,4.5,4.6,4.5c2.6,0.1,4.3-1.8,4.5-4.3C92.2,120.2,82.8,120.1,82.9,126.2z M88.2,129.7
		c-2.4,0.5-4.2-1.2-4.4-3.5c0-4.7,6.6-4.8,7.2-0.3C91.2,127.9,90.1,129.3,88.2,129.7z"/>
	<path class="st83" d="M138,117.9c-2.4,0.2-4.2,1.4-5.1,3.2c-13.2,0.1-26.5,1-39.7,1.1c-3.3-4.9-12.7-3.4-12.7,4
		c0.4,3.9,3,6.8,7,6.8c3.1,0.1,5.3-1.7,6.3-4.2c13-0.8,26-1.1,39-1.5c2.5,5.6,12.5,4.4,12.4-3C144.8,120.5,142,117.7,138,117.9z
		 M88.7,132c-3.9,0.8-6.8-2.1-7.2-5.8c-0.1-7,9.9-8.3,11.6-1.5C94.1,128.2,92.2,131.2,88.7,132z M132.4,126.4
		c-12.8,0.4-25.6,0.8-38.4,1.5c0.1-0.7,0.2-1.4,0.2-2.1c-0.1-1-0.2-1.9-0.6-2.7c13-0.1,25.9-1,38.9-1.1c-0.2,0.8-0.4,1.7-0.4,2.7
		C132.2,125.3,132.3,125.9,132.4,126.4z M138.5,130.1c-3.1,0.1-5.1-2.5-5.4-5.3c-0.4-3.1,1.5-5.2,4.4-5.8c3.7-0.8,6.4,2,6.7,5.5
		C144.3,127.8,141.8,130,138.5,130.1z"/>
	<path class="st83" d="M138.6,120.2c-2.4-0.1-4,1.7-4.1,4c-0.2,5.7,8.4,5.8,8.4,0.2C142.6,122.1,141.1,120.3,138.6,120.2z
		 M135.5,124.7c-0.2-1.8,0.8-3,2.5-3.4c2.1-0.5,3.7,1.1,3.9,3.1C142,128.7,136,128.8,135.5,124.7z"/>
	<path class="st83" d="M65,119.5c-1.4-0.1-2.4,1-2.5,2.4c-0.1,1.4,1,2.6,2.3,2.7c1.5,0.2,2.8-1.1,2.8-2.6
		C67.4,120.5,66.5,119.5,65,119.5z M63.5,122.1c-0.1-0.9,0.4-1.5,1.2-1.7c1.1-0.2,1.8,0.6,2,1.5C66.7,124,63.7,124.2,63.5,122.1z"/>
	<path class="st83" d="M61,16.4c-0.4,0-0.8,0.4-0.8,0.8c0,0.4,0.4,0.8,0.8,0.8s0.8-0.4,0.8-0.8C61.8,16.8,61.4,16.4,61,16.4z"/>
	<path class="st83" d="M36.5,41.3c-0.4,0-0.7,0.3-0.7,0.7c0,0.4,0.3,0.7,0.7,0.7c0.4,0,0.7-0.3,0.7-0.7
		C37.1,41.6,36.9,41.3,36.5,41.3z"/>
	<path class="st83" d="M32.9,29.2c-0.6,0-0.6,1,0,1C33.5,30.2,33.5,29.2,32.9,29.2z"/>
	<path class="st83" d="M62.2,6.6c0.6,0,1.1-0.5,1.1-1.1s-0.5-1.1-1.1-1.1c-0.6,0-1.1,0.5-1.1,1.1C61.2,6.1,61.6,6.6,62.2,6.6z"/>
	<path class="st83" d="M25,40.4C25,40.5,25,40.5,25,40.4c-0.1,0.2-0.1,0.5,0.1,0.7c0.1,0.1,0.2,0.2,0.4,0.2c-0.1,0-0.1,0-0.1,0
		c0.4,0.2,0.8-0.3,0.7-0.7C25.9,40.1,25.3,40,25,40.4z"/>
</g>
</svg>
