<?xml version="1.0" encoding="utf-8"?>
<!-- Generator: Adobe Illustrator 23.1.0, SVG Export Plug-In . SVG Version: 6.00 Build 0)  -->
<svg version="1.1" id="Шар_1" xmlns="http://www.w3.org/2000/svg" xmlns:xlink="http://www.w3.org/1999/xlink" x="0px" y="0px"
	 viewBox="0 0 150 96.95" style="enable-background:new 0 0 150 96.95;" xml:space="preserve">
<style type="text/css">
	.st0{fill:#EA6621;stroke:#020203;stroke-width:0.348;}
	.st1{fill:#FFFFFF;}
	.st2{fill:#F3911B;}
	.st3{fill:#F8D177;stroke:#020203;stroke-width:0.348;}
	.st4{fill:#616155;stroke:#020203;stroke-width:0.348;}
	.st5{fill:#C7DEC4;stroke:#020203;stroke-width:0.348;}
	.st6{fill:#E3F0E2;stroke:#020203;stroke-width:0.348;}
	.st7{fill:#4E4D4D;stroke:#020203;stroke-width:0.348;}
	.st8{fill:#D18C0A;stroke:#020203;stroke-width:0.348;}
	.st9{fill:#CDCCCC;stroke:#020203;stroke-width:0.348;}
	.st10{fill:#9A9999;stroke:#020203;stroke-width:0.348;}
	.st11{fill:#55554B;stroke:#020203;stroke-width:0.348;}
	.st12{fill:#F7B111;stroke:#020203;stroke-width:0.348;}
	.st13{fill:#F3DE9C;stroke:#020203;stroke-width:0.348;}
	.st14{fill:#9A9999;}
</style>
<g>
	<path class="st0" d="M150,48.01v17.94H50.29V5.04c0-2.67,2.08-5.04,5.04-5.04H89.4c2.67,0,5.04,2.38,5.04,5.04v32.23v0.17h0.17
		h44.81C145.17,37.45,150,42.28,150,48.01z"/>
	<path class="st1" d="M140.66,42.49h-40.21c-0.92,0-1.53-0.61-1.53-1.53c0-0.92,0.61-1.53,1.53-1.53h40.21
		c0.92,0,1.53,0.61,1.53,1.53C142.19,41.88,141.58,42.49,140.66,42.49z"/>
	<path class="st2" d="M141.58,46.79h-18.11c-0.31,0-0.92-0.31-0.92-0.92c0-0.61,0.31-0.92,0.92-0.92h18.11
		c0.31,0,0.92,0.31,0.92,0.92C142.5,46.48,142.19,46.79,141.58,46.79z"/>
	<path class="st2" d="M141.58,49.86h-18.11c-0.31,0-0.92-0.31-0.92-0.92c0-0.31,0.31-0.92,0.92-0.92h18.11
		c0.31,0,0.92,0.31,0.92,0.92C142.5,49.24,142.19,49.86,141.58,49.86z"/>
	<path class="st2" d="M141.58,52.62h-18.11c-0.31,0-0.92-0.31-0.92-0.92c0-0.31,0.31-0.92,0.92-0.92h18.11
		c0.31,0,0.92,0.31,0.92,0.92C142.5,52.31,142.19,52.62,141.58,52.62z"/>
	<path class="st2" d="M141.58,55.38h-18.11c-0.31,0-0.92-0.31-0.92-0.92c0-0.31,0.31-0.92,0.92-0.92h18.11
		c0.31,0,0.92,0.31,0.92,0.92C142.5,55.07,142.19,55.38,141.58,55.38z"/>
	<path class="st2" d="M141.58,58.14h-18.11c-0.31,0-0.92-0.31-0.92-0.92c0-0.31,0.31-0.92,0.92-0.92h18.11
		c0.31,0,0.92,0.31,0.92,0.92C142.5,57.84,142.19,58.14,141.58,58.14z"/>
	<path class="st3" d="M89.09,2.72H55.64c-0.28,0-0.46-0.07-0.57-0.18c-0.11-0.11-0.18-0.29-0.18-0.57s0.07-0.46,0.18-0.57
		c0.11-0.11,0.29-0.18,0.57-0.18h33.46c0.28,0,0.46,0.07,0.57,0.18c0.11,0.11,0.18,0.29,0.18,0.57c0,0.24-0.12,0.43-0.28,0.55
		C89.4,2.66,89.2,2.72,89.09,2.72z"/>
	<path class="st4" d="M88.17,42.32h-7.98c-0.25,0-0.52-0.13-0.72-0.33c-0.21-0.21-0.33-0.47-0.33-0.72c0-0.25,0.13-0.52,0.33-0.72
		c0.21-0.21,0.47-0.33,0.72-0.33h7.98c0.25,0,0.52,0.13,0.72,0.33c0.21,0.21,0.33,0.47,0.33,0.72c0,0.28-0.07,0.54-0.23,0.73
		C88.85,42.18,88.59,42.32,88.17,42.32z"/>
	<path class="st5" d="M78.04,36.18h-0.08l-0.05,0.06l-11,11.91h-6.98c-2.05,0-3.82-1.76-3.82-3.82V7.81c0-1.42,1.13-2.28,2.28-2.28
		h27.93c1.42,0,2.28,1.14,2.28,2.28v28.37H78.04z"/>
	<path class="st6" d="M63.11,41.12l-0.02-0.02l-0.03-0.01c-0.4-0.13-0.76-0.48-1.01-0.99c-0.25-0.51-0.4-1.17-0.4-1.92V5.52h24.69
		c1.42,0,2.28,1.14,2.28,2.28v9.45L66.88,41.13C65.71,42,64.27,41.99,63.11,41.12z"/>
	<path class="st4" d="M88.79,36.22h0.17v-0.17V7.81c0-1.31-0.98-2.63-2.63-2.63H58.09c-1.31,0-2.63,0.98-2.63,2.63v36.22
		c0,2.24,1.92,4.16,4.16,4.16h7.06h0.08l0.05-0.06l11-11.91H88.79z M78.35,37.71h-0.08l-0.05,0.06L67.48,49.43
		c-0.25,0.25-0.49,0.25-0.8,0.25h-7.06c-2.67,0-5.04-2.38-5.04-5.04V8.11c0-2.05,1.76-3.82,3.82-3.82h27.93
		c2.07,0,3.82,1.47,3.82,3.51v28.85c0,0.25-0.13,0.52-0.33,0.72c-0.21,0.21-0.47,0.33-0.72,0.33H78.35z"/>
	<path class="st7" d="M53.93,81.3l-3.6-15h99.61l-3.9,15H53.93z"/>
	<path class="st8" d="M80.5,60.47c5.61,0.3,10.36,2.31,13.98,5.48h-9.96c-1.22-0.31-2.46-0.61-4.01-0.61c-0.1,0-0.27-0.06-0.49-0.2
		c-0.21-0.13-0.45-0.33-0.69-0.57c-0.48-0.48-0.94-1.11-1.2-1.74c-0.26-0.63-0.29-1.21,0.01-1.63
		C78.44,60.79,79.13,60.47,80.5,60.47z"/>
	<path class="st8" d="M125.92,60.47c5.61,0.3,10.36,2.31,13.98,5.48h-9.96c-1.22-0.31-2.46-0.61-4.01-0.61
		c-0.15,0-0.35-0.06-0.58-0.2c-0.23-0.13-0.48-0.33-0.72-0.57c-0.49-0.48-0.94-1.11-1.18-1.73c-0.24-0.63-0.25-1.21,0.08-1.62
		C123.85,60.79,124.56,60.47,125.92,60.47z"/>
	<path class="st4" d="M92.91,81.47c0,8.5-6.98,15.48-15.48,15.48c-8.5,0-15.48-6.98-15.48-15.48v-0.3
		c0.31-8.5,6.98-15.18,15.48-15.18c8.5,0,15.17,6.67,15.48,15.18l0,0l0,0l0,0l0,0v0l0,0l0,0v0l0,0l0,0l0,0v0l0,0l0,0v0l0,0l0,0v0
		l0,0l0,0v0l0,0l0,0v0l0,0l0,0v0l0,0l0,0v0l0,0v0l0,0l0,0v0l0,0v0l0,0v0l0,0v0l0,0l0,0v0l0,0v0l0,0v0l0,0v0l0,0v0l0,0v0v0l0,0v0l0,0
		v0l0,0v0l0,0v0v0l0,0v0v0l0,0v0l0,0v0v0l0,0v0v0l0,0v0v0v0l0,0v0v0l0,0v0v0v0l0,0v0v0v0v0l0,0v0v0v0v0v0l0,0v0v0v0v0v0v0v0v0v0l0,0
		v0v0v0v0v0v0v0v0v0v0v0v0v0v0v0v0v0v0v0v0v0v0v0v0v0v0v0v0v0v0v0v0v0v0v0v0v0v0v0v0v0v0v0v0v0v0v0v0v0v0v0v0v0v0v0v0v0v0v0v0v0v0v0
		v0v0v0v0v0v0v0v0v0v0v0v0v0v0v0v0v0v0v0v0v0v0v0v0v0v0v0v0v0v0v0v0v0v0v0v0v0v0v0v0v0v0v0v0v0v0v0v0v0v0v0v0v0v0v0v0v0v0v0v0v0v0v0
		v0v0v0v0v0v0v0v0v0v0v0v0v0v0v0v0v0v0v0v0v0v0v0v0v0v0v0v0v0v0v0v0v0v0v0v0v0v0v0v0v0v0v0v0v0v0v0v0v0v0v0v0v0v0v0v0v0v0v0v0v0v0v0
		v0v0v0v0v0v0v0v0v0v0v0v0v0v0v0v0v0v0v0v0v0v0v0v0v0v0v0v0v0v0v0v0v0v0v0v0v0v0v0v0v0v0v0v0v0v0v0v0v0v0v0v0v0v0v0v0v0v0v0v0v0v0v0
		v0v0v0v0v0v0v0v0v0v0v0v0v0v0v0v0v0v0v0v0v0v0v0v0v0v0v0v0v0v0v0v0v0v0v0V81.47L92.91,81.47L92.91,81.47L92.91,81.47L92.91,81.47
		L92.91,81.47z"/>
	<path class="st9" d="M86.46,81.47c0,4.82-3.92,9.03-9.03,9.03c-4.82,0-9.03-3.92-9.03-9.03l0,0l0,0l0,0l0,0l0,0l0,0l0,0l0,0l0,0
		l0,0l0,0l0,0l0,0l0,0l0,0l0,0l0,0l0,0l0,0l0,0l0,0l0,0l0,0l0,0l0,0l0,0l0,0l0,0v0l0,0l0,0l0,0l0,0l0,0l0,0l0,0l0,0l0,0l0,0l0,0l0,0
		l0,0l0,0v0l0,0l0,0l0,0l0,0l0,0l0,0l0,0l0,0l0,0l0,0v0l0,0l0,0l0,0l0,0l0,0l0,0l0,0v0l0,0l0,0l0,0l0,0l0,0v0l0,0l0,0l0,0l0,0l0,0v0
		l0,0l0,0l0,0l0,0l0,0v0l0,0l0,0l0,0v0l0,0l0,0l0,0l0,0v0l0,0l0,0l0,0v0l0,0l0,0v0l0,0l0,0l0,0v0l0,0l0,0v0l0,0l0,0l0,0v0l0,0l0,0v0
		l0,0v0l0,0l0,0v0l0,0l0,0v0l0,0v0l0,0l0,0v0l0,0v0l0,0l0,0v0l0,0v0l0,0v0l0,0v0l0,0v0l0,0v0l0,0v0l0,0v0l0,0v0l0,0v0l0,0v0v0l0,0v0
		l0,0v0v0l0,0v0l0,0v0v0l0,0v0v0l0,0v0v0l0,0v0v0l0,0v0v0v0l0,0v0v0v0l0,0v0v0v0v0l0,0v0v0v0v0v0v0l0,0v0v0v0v0v0v0v0v0v0v0v0v0v0v0
		v0v0v0v0v0v0v0v0v0v0v0v0v0v0v0v0v0v0v0v0v0v0v0v0v0v0v0v0v0v0v0v0v0v0v0v0v0v0v0v0v0v0v0v0v0v0v0v0v0v0v0v0v0v0v0v0v0v0v0v0v0v0v0
		v0v0v0v0v0v0v0v0v0v0v0v0v0v0v0v0v0v0v0v0v0v0v0v0v0v0v0v0v0v0v0v0v0v0v0v0v0v0v0v0v0v0v0v0v0v0v0v0v0v0v0v0v0v0v0v0v0v0v0v0v0v0v0
		v0v0v0v0v0v0v0v0v0v0v0v0v0v0v0v0v0v0v0v0v0v0v0v0v0v0v0v0v0v0v0v0v0v0v0v0v0v0v0v0v0v0v0v0v0v0v0v0v0v0v0v0v0v0v0v0v0v0v0v0v0v0v0
		v0v0v0v0v0v0v0v0v0v0v0v0v0v0v0v0v0v0v0v0v0v0v0v0v0v0v0v0v0v0v0v0v0v0v0v0v0v0v0v0v0v0v0v0v0v0v0v0v0v0v0v0v0v0v0v0v0v0v0v0v0v0v0
		v0v0v0v0v0v0v0v0v0v0v0v0v0v0v0v0v0v0v0v0v0v0v0v0v0v0v0v0v0v0v0v0v0v0v0c0-4.81,3.91-8.73,9.03-8.73
		C82.25,72.44,86.46,76.35,86.46,81.47z"/>
	<path class="st4" d="M81.55,81.47c0,2.06-1.77,4.12-4.12,4.12c-2.06,0-4.12-1.77-4.12-4.12c0-2.36,1.76-4.12,4.12-4.12
		C79.79,77.35,81.55,79.11,81.55,81.47z"/>
	<path class="st10" d="M77.44,72.74c3.97-0.25,7.53,2.37,8.65,5.99c-0.5-0.82-1.23-1.57-2.12-2.2c-1.72-1.21-4.06-1.99-6.55-1.99
		c-2.5,0-4.76,0.86-6.44,2.15c-1.04,0.8-1.86,1.76-2.37,2.79c0.91-3.86,4.41-6.74,8.81-6.74L77.44,72.74L77.44,72.74z"/>
	<path class="st11" d="M77.43,65.99c7.08,0,12.9,4.63,14.82,11.1c-2.25-4.78-7.97-8.07-14.82-8.07c-6.84,0-12.57,3.29-14.82,8.07
		C64.53,70.62,70.35,65.99,77.43,65.99z"/>
	<path class="st12" d="M95.54,83.75c-1.42,0-2.28-1.13-2.28-2.28c0-8.69-7.14-15.83-15.83-15.83c-8.69,0-15.83,7.14-15.83,15.83
		c0,1.42-1.14,2.28-2.28,2.28c-1.42,0-2.28-1.13-2.28-2.28c0-11.26,9.13-20.7,20.7-20.7c11.25,0,20.69,9.12,20.7,20.68
		C98.14,82.61,96.97,83.75,95.54,83.75z"/>
	<path class="st13" d="M59.32,82.22c-0.28,0-0.46-0.07-0.57-0.18c-0.11-0.11-0.18-0.29-0.18-0.57c0-10.34,8.52-18.86,18.86-18.86
		c0.28,0,0.46,0.07,0.57,0.18c0.11,0.11,0.18,0.29,0.18,0.57c0,0.28-0.07,0.46-0.18,0.57c-0.11,0.11-0.29,0.18-0.57,0.18
		c-9.61,0-17.36,7.75-17.36,17.36c0,0.11-0.06,0.3-0.19,0.47C59.75,82.1,59.56,82.22,59.32,82.22z"/>
	<path class="st4" d="M138.34,81.47c0,8.55-6.93,15.48-15.48,15.48s-15.48-6.93-15.48-15.48c0-8.55,6.93-15.48,15.48-15.48
		S138.34,72.92,138.34,81.47z"/>
	<path class="st9" d="M131.58,81.47c0,4.82-3.92,9.03-9.03,9.03c-5.12,0-9.03-3.91-9.03-9.03l0,0l0,0l0,0l0,0l0,0l0,0l0,0l0,0l0,0
		l0,0l0,0l0,0l0,0l0,0l0,0l0,0l0,0l0,0l0,0l0,0l0,0l0,0l0,0l0,0l0,0l0,0l0,0l0,0v0l0,0l0,0l0,0l0,0l0,0l0,0l0,0l0,0l0,0l0,0l0,0l0,0
		l0,0l0,0v0l0,0l0,0l0,0l0,0l0,0l0,0l0,0l0,0l0,0l0,0v0l0,0l0,0l0,0l0,0l0,0l0,0l0,0v0l0,0l0,0l0,0l0,0l0,0v0l0,0l0,0l0,0l0,0l0,0v0
		l0,0l0,0l0,0l0,0l0,0v0l0,0l0,0l0,0v0l0,0l0,0l0,0l0,0v0l0,0l0,0l0,0v0l0,0l0,0v0l0,0l0,0l0,0v0l0,0l0,0v0l0,0l0,0l0,0v0l0,0l0,0v0
		l0,0v0l0,0l0,0v0l0,0l0,0v0l0,0v0l0,0l0,0v0l0,0v0l0,0l0,0v0l0,0v0l0,0v0l0,0v0l0,0v0l0,0v0l0,0v0l0,0v0l0,0v0l0,0v0l0,0v0v0l0,0v0
		l0,0v0v0l0,0v0l0,0v0v0l0,0v0v0l0,0v0v0l0,0v0v0l0,0v0v0v0l0,0v0v0v0l0,0v0v0v0v0l0,0v0v0v0v0v0v0l0,0v0v0v0v0v0v0v0v0v0v0v0v0v0v0
		v0v0v0v0v0v0v0v0v0v0v0v0v0v0v0v0v0v0v0v0v0v0v0v0v0v0v0v0v0v0v0v0v0v0v0v0v0v0v0v0v0v0v0v0v0v0v0v0v0v0v0v0v0v0v0v0v0v0v0v0v0v0v0
		v0v0v0v0v0v0v0v0v0v0v0v0v0v0v0v0v0v0v0v0v0v0v0v0v0v0v0v0v0v0v0v0v0v0v0v0v0v0v0v0v0v0v0v0v0v0v0v0v0v0v0v0v0v0v0v0v0v0v0v0v0v0v0
		v0v0v0v0v0v0v0v0v0v0v0v0v0v0v0v0v0v0v0v0v0v0v0v0v0v0v0v0v0v0v0v0v0v0v0v0v0v0v0v0v0v0v0v0v0v0v0v0v0v0v0v0v0v0v0v0v0v0v0v0v0v0v0
		v0v0v0v0v0v0v0v0v0v0v0v0v0v0v0v0v0v0v0v0v0v0v0v0v0v0v0v0v0v0v0v0v0v0v0v0v0v0v0v0v0v0v0v0v0v0v0v0v0v0v0v0v0v0v0v0v0v0v0v0v0v0v0
		v0v0v0v0v0v0v0v0v0v0v0v0v0v0v0v0v0v0v0v0v0v0v0v0v0v0v0v0v0v0v0v0v0v0v0c0-4.81,3.91-8.73,9.03-8.73
		C127.67,72.44,131.58,76.35,131.58,81.47z"/>
	<path class="st4" d="M126.67,81.47c0,2.06-1.77,4.12-4.12,4.12c-2.36,0-4.12-1.76-4.12-4.12s1.76-4.12,4.12-4.12
		C124.91,77.35,126.67,79.11,126.67,81.47z"/>
	<path class="st10" d="M122.56,72.74c4.25-0.25,7.66,2.4,8.7,6.07c-0.5-0.85-1.25-1.63-2.16-2.28c-1.72-1.21-4.06-1.99-6.55-1.99
		c-2.49,0-4.76,0.86-6.44,2.15c-1.04,0.8-1.86,1.76-2.37,2.79c0.91-3.86,4.41-6.74,8.81-6.74L122.56,72.74L122.56,72.74z"/>
	<path class="st11" d="M122.55,65.99c7.3,0,13.48,4.93,15.08,11.7c-2.04-5.1-7.95-8.67-15.08-8.67c-6.84,0-12.57,3.29-14.82,8.07
		C109.65,70.62,115.47,65.99,122.55,65.99z"/>
	<path class="st12" d="M140.97,83.75c-1.42,0-2.28-1.13-2.28-2.28c0-8.69-7.14-15.83-15.83-15.83c-8.69,0-15.83,7.14-15.83,15.83
		c0,1.42-1.14,2.28-2.28,2.28c-0.56,0-1.13-0.28-1.57-0.72c-0.44-0.44-0.72-1.01-0.72-1.57c0-11.26,9.13-20.7,20.7-20.7
		c11.25,0,20.67,9.11,20.7,20.66C143.25,82.64,142.38,83.75,140.97,83.75z"/>
	<path class="st13" d="M104.44,82.22c-0.28,0-0.46-0.07-0.57-0.18c-0.11-0.11-0.18-0.29-0.18-0.57c0-10.34,8.52-18.86,18.86-18.86
		c0.28,0,0.46,0.07,0.57,0.18c0.11,0.11,0.18,0.29,0.18,0.57c0,0.28-0.07,0.46-0.18,0.57c-0.11,0.11-0.29,0.18-0.57,0.18
		c-9.61,0-17.36,7.75-17.36,17.36c0,0.11-0.06,0.3-0.19,0.47C104.87,82.1,104.68,82.22,104.44,82.22z"/>
	<path class="st11" d="M30.34,79.63V27.01h3.95v56.74H0l5.36-3.95h24.8h0.17V79.63z"/>
	<path class="st4" d="M36.48,10.13h7.02v77h-7.02V10.13z"/>
	<path class="st14" d="M39.37,13.64h-0.92V82.7h0.92V13.64z"/>
	<path class="st4" d="M27.27,31h18.68v3.95H27.27V31z"/>
	<path class="st4" d="M27.27,56.17h33.72v3.95H27.27V56.17z"/>
	<path class="st4" d="M65.29,58.14c0,2.28-1.85,4.12-4.12,4.12c-2.28,0-4.12-1.85-4.12-4.12c0-2.28,1.85-4.12,4.12-4.12
		C63.44,54.02,65.29,55.87,65.29,58.14z"/>
	<path class="st12" d="M63.14,58.14c0,1.09-0.88,1.97-1.97,1.97c-1.09,0-1.97-0.88-1.97-1.97s0.88-1.97,1.97-1.97
		C62.25,56.17,63.14,57.05,63.14,58.14z"/>
</g>
</svg>
