<?xml version="1.0" encoding="utf-8"?>
<!-- Generator: Adobe Illustrator 23.1.0, SVG Export Plug-In . SVG Version: 6.00 Build 0)  -->
<svg version="1.1" id="Шар_1" xmlns="http://www.w3.org/2000/svg" xmlns:xlink="http://www.w3.org/1999/xlink" x="0px" y="0px"
	 viewBox="0 0 62.6 150.1" style="enable-background:new 0 0 62.6 150.1;" xml:space="preserve">
<style type="text/css">
	.st0{fill:url(#SVGID_1_);}
	.st1{fill:#E8E8E8;}
	.st2{fill:url(#SVGID_2_);}
	.st3{fill:url(#SVGID_3_);}
	.st4{fill:url(#SVGID_4_);}
	.st5{fill:url(#SVGID_5_);}
	.st6{fill:url(#SVGID_6_);}
	.st7{fill:url(#SVGID_7_);}
	.st8{fill:url(#SVGID_8_);}
	.st9{fill:url(#SVGID_9_);}
	.st10{fill:url(#SVGID_10_);}
	.st11{fill:url(#SVGID_11_);}
	.st12{fill:url(#SVGID_12_);}
	.st13{fill:url(#SVGID_13_);}
	.st14{fill:url(#SVGID_14_);}
	.st15{fill:url(#SVGID_15_);}
	.st16{fill:url(#SVGID_16_);}
	.st17{fill:url(#SVGID_17_);}
	.st18{fill:url(#SVGID_18_);}
	.st19{fill:url(#SVGID_19_);}
	.st20{fill:url(#SVGID_20_);}
	.st21{fill:url(#SVGID_21_);}
	.st22{fill:url(#SVGID_22_);}
	.st23{fill:url(#SVGID_23_);}
	.st24{fill:url(#SVGID_24_);}
	.st25{fill:url(#SVGID_25_);}
	.st26{fill:url(#SVGID_26_);}
	.st27{fill:url(#SVGID_27_);}
	.st28{fill:url(#SVGID_28_);}
	.st29{fill:#260A01;}
</style>
<g>
	
		<linearGradient id="SVGID_1_" gradientUnits="userSpaceOnUse" x1="54.1385" y1="103.2689" x2="50.9401" y2="106.4673" gradientTransform="matrix(1 0 0 -1 0 196.2553)">
		<stop  offset="0.5" style="stop-color:#FE9C0E"/>
		<stop  offset="1" style="stop-color:#FE7F00"/>
	</linearGradient>
	<path class="st0" d="M47.5,93.9c2.4-2.6,4.7-5.1,7.2-7.7l0.5-0.6L55,86.4c-0.6,2.7-1.2,5.2-1.9,7.6v0.2h-0.2
		c-1.7,0.1-3.5,0.1-5.3,0.2h-0.5L47.5,93.9z"/>
	<path class="st1" d="M38.5,89.2l0.2,0.2c0.9,0.7,1.9,1.2,3.1,1.3H42c0.5,0,0.9,0.1,1.4,0.1c0.7,0,1.3-0.1,1.9-0.2
		c1.7,0,2.7-1.3,3.2-2.2c0.6-0.9,0.9-2,1-3c0-0.2,0-0.2,0-0.4v-0.3c0.1-2-0.6-3.8-1.9-5l-0.2-0.2l4.6-5h0.1c1.7,0,3.2,0.1,4.9,0.1
		h0.2l-0.1,0.2c-0.8,4.2-1.4,7.3-2,10.3v0.1l-0.2,0.3c-2.7,2.9-5.4,5.8-8,8.7l-0.1,0.1h-0.1c-3.5,0.1-6.5,0.1-9.5,0.1
		c-0.6,0-1.2,0-1.7,0.1c-0.5,0-0.9,0-1.4,0.1h-0.5L38.5,89.2z"/>
	
		<linearGradient id="SVGID_2_" gradientUnits="userSpaceOnUse" x1="25.086" y1="124.5242" x2="17.6853" y2="131.9248" gradientTransform="matrix(1 0 0 -1 0 196.2553)">
		<stop  offset="0.5" style="stop-color:#FE9C0E"/>
		<stop  offset="1" style="stop-color:#FE7F00"/>
	</linearGradient>
	<path class="st2" d="M21.5,73.2c-0.2,0-0.4,0-0.6,0h-0.2V73c-0.6-3.1-1.3-6.3-2-9.5l-0.1-0.2h0.2c0.8,0,1.9-0.1,2.8-0.6l0.2-0.1
		L22,63c0.6,3.2,1.3,6.5,2,9.6v0.2l-0.2,0.1C23.3,73,22.4,73.2,21.5,73.2z"/>
	
		<linearGradient id="SVGID_3_" gradientUnits="userSpaceOnUse" x1="19.0399" y1="118.4034" x2="13.3458" y2="124.0974" gradientTransform="matrix(1 0 0 -1 0 196.2553)">
		<stop  offset="0.5" style="stop-color:#636363"/>
		<stop  offset="1" style="stop-color:#878787"/>
	</linearGradient>
	<path class="st3" d="M13.6,77c-0.6,0-1.4-0.1-2-0.9c-0.3-0.5-0.4-1.1-0.2-1.7c0.2-0.9,1.3-1,2.1-1c0.2,0,0.2,0,0.4,0l1.5-0.1
		c1.3-0.1,2.7-0.2,4.1-0.3h0.2V73c0.2,1.1,0.5,2.1,0.7,3.2l0.1,0.2h-0.2c-1.3,0.2-2.8,0.2-4.5,0.3c-0.2,0-0.6,0.1-0.9,0.1
		C14.5,76.9,14,77,13.6,77z"/>
	<path class="st1" d="M18.6,62.9c-0.3-1.7-0.6-3.3-0.9-5c-0.5-2.4-0.8-4.5-1-6.5v-0.2h0.2c0.2-0.1,0.6-0.1,0.8-0.2
		c0.8-0.2,1.5-0.2,2.2-0.5l0.2-0.1v0.2c0.2,2.6,0.7,5.4,1.3,8.7l0.6,3l-0.2,0.1c-1,0.5-2.1,0.6-3,0.6h-0.2L18.6,62.9z"/>
	
		<linearGradient id="SVGID_4_" gradientUnits="userSpaceOnUse" x1="46.5153" y1="141.6431" x2="35.9825" y2="152.1756" gradientTransform="matrix(1 0 0 -1 0 196.2553)">
		<stop  offset="0.5" style="stop-color:#FEE7A5"/>
		<stop  offset="1" style="stop-color:#FEBD57"/>
	</linearGradient>
	<path class="st4" d="M43.3,57.2c-0.6,0-1.1,0-1.6-0.1H41c-4.8-0.4-6.6-5-6.3-9.1c0.2-2.3,1.3-4.4,3.1-5.6c1.2-0.8,2.6-0.9,3.8-0.9
		c0.5,0,1,0,1.5,0.1h0.7l-0.5,0.3c-2,1.4-3.2,4-3.3,7.2c-0.1,2.5,1.2,6.1,3.4,7.7l0.5,0.4H43.3z"/>
	
		<linearGradient id="SVGID_5_" gradientUnits="userSpaceOnUse" x1="50.6608" y1="142.5997" x2="41.6847" y2="151.5757" gradientTransform="matrix(1 0 0 -1 0 196.2553)">
		<stop  offset="0.5" style="stop-color:#EF5401"/>
		<stop  offset="1" style="stop-color:#DE2201"/>
	</linearGradient>
	<path class="st5" d="M46,56.9c-1.6,0-3.2-1.9-3.9-3.1c-0.8-1.3-1.2-2.8-1.2-4.8c-0.1-3.7,2-6.8,5.2-7.4h0.1h0.1
		c1.4,0.3,2.5,0.9,3.5,2c1.3,1.6,1.9,3.9,1.7,6.4c0,0.1,0,0.2,0,0.2v0.2c-0.5,3.1-2.2,5.4-4.6,6.4C46.4,56.9,46.2,56.9,46,56.9z"/>
	
		<linearGradient id="SVGID_6_" gradientUnits="userSpaceOnUse" x1="32.7544" y1="131.8588" x2="26.0864" y2="138.5271" gradientTransform="matrix(1 0 0 -1 0 196.2553)">
		<stop  offset="0.5" style="stop-color:#FE9C0E"/>
		<stop  offset="1" style="stop-color:#FE7F00"/>
	</linearGradient>
	<path class="st6" d="M24.9,71.9c-0.6-3.1-1.3-6.1-1.9-9.3l-0.2-0.6l0.1-0.1c2.7-3,5.5-6,8.2-8.9l2.8-3.1l0.1,0.4
		c0.4,3.2,2,5.7,4.5,6.9l0.2,0.1l-0.2,0.2c-1.2,1.3-2.4,2.6-3.6,3.9c-3.3,3.5-6.6,7.1-9.8,10.6l-0.2,0.3L24.9,71.9z"/>
	<path class="st1" d="M25,87.3c-0.3,0-0.7,0-1-0.1h-0.2v-0.2c-1-4.2-2-8.6-3-13.5l-0.1-0.2H21c0.2,0,0.3,0,0.4,0
		c0.7,0,1.5-0.2,2.5-0.4l0.2-0.1l0.1,0.2c0.9,4.6,2,9.1,3,13.5v0.2l-0.2,0.1C26.4,87.1,25.7,87.3,25,87.3z"/>
	<path class="st1" d="M27.9,85.9c-0.9-3.7-1.7-7.6-2.6-11.7V74h0.2c1.1-0.1,2.2-0.1,3.5-0.1c2.4,0,4.7,0.1,7.1,0.2
		c0.9,0,1.8,0.1,2.7,0.1h0.4l-1.7,1.9c-3.1,3.3-6.1,6.6-9.2,9.9l-0.2,0.3L27.9,85.9z"/>
	
		<linearGradient id="SVGID_7_" gradientUnits="userSpaceOnUse" x1="31.4335" y1="99.99" x2="23.2649" y2="108.1585" gradientTransform="matrix(1 0 0 -1 0 196.2553)">
		<stop  offset="0.5" style="stop-color:#FE9C0E"/>
		<stop  offset="1" style="stop-color:#FE7F00"/>
	</linearGradient>
	<path class="st7" d="M28.8,97c-1.1-0.1-2.4-0.3-2.9-1.5c-0.3-0.8-0.5-1.6-0.6-2.4c0,0-0.2-0.8-0.2-1c-0.4-1.5-0.7-2.9-1.1-4.4
		l-0.1-0.3l0.3,0.1c0.2,0.1,0.6,0.1,0.8,0.1c0.7,0,1.4-0.2,2-0.4l0.2-0.1c0,0,0.7,3.2,0.8,3.4c0.3,1.3,0.6,2.8,1.4,3.7
		c0.7,0.8,1.4,0.9,2.4,1h0.6l-0.6,0.3c-0.8,0.5-1.7,1-2.8,1.3c-0.1,0-0.1,0-0.1,0.1L28.8,97L28.8,97z"/>
	
		<linearGradient id="SVGID_8_" gradientUnits="userSpaceOnUse" x1="42.3122" y1="110.8074" x2="35.2542" y2="117.8654" gradientTransform="matrix(1 0 0 -1 0 196.2553)">
		<stop  offset="0.5" style="stop-color:#FE9C0E"/>
		<stop  offset="1" style="stop-color:#FE7F00"/>
	</linearGradient>
	<path class="st8" d="M33.2,94.5c-0.9,0-1.6-0.1-2.2-0.2c-1.4-0.3-2-3-2.3-4.7c-0.1-0.3-0.1-0.6-0.2-0.8c-0.1-0.4-0.2-0.8-0.3-1.3
		L28,86.5l0.1-0.1c3-3.2,6-6.5,9-9.8l2.3-2.5h0.1c0.5,0,1,0,1.5,0.1c2,0,3.9,0.1,5.8,0.2c1.5,0,5,0.1,5,0.1l-4.4,4.8l-0.2-0.1
		c-0.6-0.4-1.2-0.6-1.9-0.8h-0.1c-0.3-0.1-0.6-0.1-0.9-0.1c-0.3,0-0.6,0-0.9,0c-0.3,0-0.6,0-0.9,0c-1.3,0-2.7,0.2-3.9,1
		c-1.1,0.9-1.9,2.3-2,4c-0.2,2.1,0.4,4.3,1.6,5.6l0.2,0.2l-0.2,0.2C36.5,91,34.9,92.7,33.2,94.5L33.2,94.5L33.2,94.5z"/>
	
		<linearGradient id="SVGID_9_" gradientUnits="userSpaceOnUse" x1="48.188" y1="108.7561" x2="42.1061" y2="114.8377" gradientTransform="matrix(1 0 0 -1 0 196.2553)">
		<stop  offset="0.5" style="stop-color:#EF5401"/>
		<stop  offset="1" style="stop-color:#DE2201"/>
	</linearGradient>
	<path class="st9" d="M44.9,89.7c-2,0-3.2-3.7-3.2-5.1c-0.2-2.6,1.3-4.8,3.5-5.3h0.1h0.1c0.9,0.2,1.8,0.7,2.4,1.5
		c0.8,1,1.2,2.5,1.1,4.1c0,0.2,0,0.3-0.1,0.5c-0.3,2-1.5,3.6-3.1,4.3C45.3,89.7,45.1,89.7,44.9,89.7z"/>
	
		<linearGradient id="SVGID_10_" gradientUnits="userSpaceOnUse" x1="45.1683" y1="108.3276" x2="38.1766" y2="115.3187" gradientTransform="matrix(1 0 0 -1 0 196.2553)">
		<stop  offset="0.5" style="stop-color:#FEE7A5"/>
		<stop  offset="1" style="stop-color:#FEBD57"/>
	</linearGradient>
	<path class="st10" d="M41.6,89.7c-3.2-0.3-4.4-3.3-4.3-6.1c0.1-1.6,0.8-3,2-3.8c0.9-0.6,1.9-0.7,2.8-0.7c0.2,0,0.4,0,0.6,0h0.5
		l-0.4,0.3c-1.3,1.1-2,2.9-2,5c0,1.5,0.7,3.7,2,5l0.4,0.4L41.6,89.7z"/>
	<path class="st1" d="M57.2,73.8c-2,0-4.2-0.1-6.2-0.1h-0.5l8.5-9.2c0,0-0.5,2.8-0.7,3.9C58,70.1,57.3,73.8,57.2,73.8L57.2,73.8z"/>
	
		<linearGradient id="SVGID_11_" gradientUnits="userSpaceOnUse" x1="56.7221" y1="129.0766" x2="49.228" y2="136.5707" gradientTransform="matrix(1 0 0 -1 0 196.2553)">
		<stop  offset="0.5" style="stop-color:#FE9C0E"/>
		<stop  offset="1" style="stop-color:#FE7F00"/>
	</linearGradient>
	<path class="st11" d="M47.2,73.5c-1.9-0.1-3.7-0.1-5.6-0.2c-1.2,0-2.4-0.1-3.7-0.2h-0.4l0.3-0.3c3.6-3.9,7.2-7.8,10.9-11.7
		c4.3-4.6,8.4-9.1,12.7-13.7l0.4-0.4l-0.1,0.6c-0.2,1.7-0.4,3.2-0.6,4.8c-0.1,0.6-0.2,1.2-0.2,1.7c-0.5,2.9-0.9,6-1.6,9.7v0.1
		l-9,9.7L47.2,73.5z"/>
	<path class="st1" d="M36.4,73.2C34,73.1,31.6,73,29,73c-1.4,0-2.7,0-3.9,0.1H25l-0.2-0.6l0.1-0.1c3.2-3.6,6.6-7.2,9.9-10.8
		c1.3-1.4,2.6-2.8,3.9-4.2l0.1-0.1l0.2,0.1c0.7,0.2,1.3,0.4,2,0.5h0.5c0.6,0,1.3,0.1,2,0.1c1,0,1.9-0.1,2.7-0.2
		c2.2-0.1,3.6-1.7,4.4-3.1c0.8-1.2,1.3-2.7,1.5-4.2c0-0.2,0-0.3,0-0.5v-0.1c0,0,0-0.3,0.1-0.4c0.2-1.8-0.2-3.7-1.1-5.2L51,44.1
		l0.1-0.1c0.7-0.8,1.5-1.6,2.2-2.4c1.9-2,3.9-4.1,5.7-6.2l0.2-0.2l0.2,0.3c1.4,3.1,2.2,6.3,2.4,9.5c0,0.5,0,0.9,0,1.6v0.1l-0.1,0.1
		c-4.3,4.7-8.7,9.5-13.1,14.1c-3.7,4.2-7.5,8.2-11.3,12.3l-0.1,0.1L36.4,73.2z"/>
	
		<linearGradient id="SVGID_12_" gradientUnits="userSpaceOnUse" x1="54.422" y1="155.6335" x2="47.9961" y2="162.0595" gradientTransform="matrix(1 0 0 -1 0 196.2553)">
		<stop  offset="0.5" style="stop-color:#FE9C0E"/>
		<stop  offset="1" style="stop-color:#FE7F00"/>
	</linearGradient>
	<path class="st12" d="M50.8,43.9c-1.1-1.7-2.7-2.8-4.6-3.1h-0.2H46c-0.4-0.1-0.8-0.1-1.1-0.1v-0.2v0.2c-0.5,0-0.9,0-1.3,0h-1.1
		l0.3-0.3c3.7-4,7.5-8,11.2-12.1l0.2-0.2l0.2,0.2c2,2,3.6,4.3,4.9,6.8l0.1,0.1L59,35.2c-1.9,2.2-3.9,4.3-5.8,6.4
		c-0.7,0.8-1.4,1.5-2.1,2.3l-0.2,0.2L50.8,43.9z"/>
	<path class="st1" d="M22.7,61.3c-0.7-3.6-1.5-7.5-1.8-11.4v-0.1l0.1-0.1c5.6-6.1,11.3-12.2,16.8-18.2c2.7-2.9,5.4-5.7,8-8.7
		l0.1-0.1l0.5,0.2c2.8,1.1,5.3,2.7,7.5,4.8l0.2,0.2l-0.2,0.2c-3.9,4.2-7.7,8.3-11.6,12.5l-0.1,0.1H42c-1.7,0-3.5,0.2-5,1.3
		c-1.9,1.3-2.8,3.7-3.1,5.5c-0.1,0.6-0.1,1.3-0.1,2v0.1c0,0-2,2.1-3,3.2c-2.6,2.8-5.4,5.7-8,8.7l-0.2,0.3V61.3z"/>
	
		<linearGradient id="SVGID_13_" gradientUnits="userSpaceOnUse" x1="33.5346" y1="159.5098" x2="27.1282" y2="165.9162" gradientTransform="matrix(1 0 0 -1 0 196.2553)">
		<stop  offset="0.5" style="stop-color:#FE9C0E"/>
		<stop  offset="1" style="stop-color:#FE7F00"/>
	</linearGradient>
	<path class="st13" d="M20.7,49.1c-0.3-4.7,0-8.8,1.1-12.4v-0.1c3-3.3,6.1-6.6,9.1-9.8c1.2-1.3,2.3-2.4,3.5-3.7h0.1
		c2-0.7,4-1.1,5.9-1.1c0.2,0,0.5,0,0.7,0c1.3,0.1,2.8,0.3,4.1,0.7l0.3,0.1L45.2,23c-2.6,2.8-5.2,5.7-7.9,8.4
		c-5.4,5.8-10.9,11.8-16.5,17.8l-0.3,0.3L20.7,49.1z"/>
	<path class="st1" d="M22.3,35.2c0.6-1.7,1.4-3.2,2.4-4.6c2-3,5-5.4,8.3-7l0.2,0.3L31,26.3c-2.7,3-5.6,6.1-8.3,9.1L22.3,35.2z"/>
	
		<linearGradient id="SVGID_14_" gradientUnits="userSpaceOnUse" x1="23.6644" y1="168.6317" x2="20.1054" y2="172.1908" gradientTransform="matrix(1 0 0 -1 0 196.2553)">
		<stop  offset="0.5" style="stop-color:#FE9C0E"/>
		<stop  offset="1" style="stop-color:#FE7F00"/>
	</linearGradient>
	<path class="st14" d="M19.2,24.9l0.2-0.1c2.7-0.9,5.4-1.5,8.1-1.5l0.1,0.4c-3.2,1.7-5.9,4.1-8,7l-0.4,0.5V24.9z"/>
	
		<linearGradient id="SVGID_15_" gradientUnits="userSpaceOnUse" x1="29.2268" y1="155.1544" x2="19.6434" y2="164.7377" gradientTransform="matrix(1 0 0 -1 0 196.2553)">
		<stop  offset="0.5" style="stop-color:#FE9C0E"/>
		<stop  offset="1" style="stop-color:#FE7F00"/>
	</linearGradient>
	<path class="st15" d="M16.6,50.8c-0.4-3.9-0.3-7.3,0.1-10.6c0.9-7.2,6-13.5,13.4-16.7c0.6-0.2,1-0.5,1.6-0.6
		c0.5-0.2,0.9-0.3,1.5-0.5l0.2,0.4c-1.8,0.7-3.5,1.7-5,3c-6.5,5-9.1,13.1-8.2,24.4v0.2h-0.2c-0.8,0.3-1.6,0.4-2.4,0.6
		c-0.2,0-0.9,0.2-0.9,0.2V50.8z"/>
	
		<linearGradient id="SVGID_16_" gradientUnits="userSpaceOnUse" x1="15.5184" y1="135.7072" x2="9.6718" y2="141.5534" gradientTransform="matrix(1 0 0 -1 0 196.2553)">
		<stop  offset="0.5" style="stop-color:#636363"/>
		<stop  offset="1" style="stop-color:#878787"/>
	</linearGradient>
	<path class="st16" d="M9.8,59.7c-0.6,0-1.4-0.1-2-0.9c-0.3-0.5-0.4-1.1-0.2-1.7C7.9,56,9,56,9.8,56c0.2,0,0.2,0,0.4,0l1.7-0.2
		c1.4-0.1,2.9-0.2,4.3-0.3h0.2l0.1,0.2c0.2,1.1,0.6,3.5,0.6,3.5h-0.2c-1.8,0.2-3.5,0.3-4.9,0.4c-0.2,0-0.6,0.1-0.9,0.1
		C10.7,59.6,10.2,59.7,9.8,59.7z"/>
	
		<linearGradient id="SVGID_17_" gradientUnits="userSpaceOnUse" x1="10.9414" y1="153.1992" x2="3.2053" y2="160.9354" gradientTransform="matrix(1 0 0 -1 0 196.2553)">
		<stop  offset="0.5" style="stop-color:#FE9C0E"/>
		<stop  offset="1" style="stop-color:#FE7F00"/>
	</linearGradient>
	<path class="st17" d="M1.1,51.2c-0.1-1.5-0.1-2.9,0-4.3c0.6-8.4,4.7-15.8,11.4-20.1l0.3-0.2v0.9l-0.1,0.1c-6,4.7-9.5,12.1-9.9,20.9
		c0,0.8,0,1.6,0,2.4v0.2H2.6c-0.4,0-0.9,0-1.3,0.2l-0.2,0.1V51.2z"/>
	<path class="st1" d="M3.1,63c-0.2-0.9-0.4-2-0.6-2.9c-0.6-2.7-1.1-5.5-1.3-8.3v-0.2h0.2c0.4-0.2,0.9-0.2,1.3-0.2h0.2v0.2
		c0.2,3.3,0.9,6.7,1.7,9.9c0.2,0.9,0.4,2,0.6,2.9l0.1,0.2H4.9c-0.5,0-0.9,0.1-1.3,0.2l-0.2,0.1L3.1,63z"/>
	
		<linearGradient id="SVGID_18_" gradientUnits="userSpaceOnUse" x1="8.7895" y1="122.9434" x2="2.0293" y2="129.7033" gradientTransform="matrix(1 0 0 -1 0 196.2553)">
		<stop  offset="0.5" style="stop-color:#FE9C0E"/>
		<stop  offset="1" style="stop-color:#FE7F00"/>
	</linearGradient>
	<path class="st18" d="M7,74.8c-0.2,0-0.3-0.1-0.6-0.1c-0.2,0-0.4,0-0.6,0l-0.3,0.1v-0.2c-0.6-3.1-1.3-6.2-2-9.3v-0.2l0.2-0.1
		C4.2,65,4.6,64.9,5,64.9h0.2v0.2c0.6,3.2,1.3,6.3,2,9.5l0.1,0.3L7,74.8z"/>
	<path class="st1" d="M8.2,87.5c-0.6-2.7-1.2-5.4-1.8-8.1c-0.2-0.9-0.4-1.7-0.6-2.6l-0.4-1.8h0.2c0.2,0,0.5-0.1,0.6-0.1
		c0.2,0,0.4,0,0.6,0.1l0.2-0.1l0.2,0.2C8.2,79.3,9,83.3,10,87.2l0.1,0.2H9.8c-0.5,0-0.9,0-1.3,0.1H8.4L8.2,87.5z"/>
	
		<linearGradient id="SVGID_19_" gradientUnits="userSpaceOnUse" x1="14.1408" y1="100.829" x2="7.4721" y2="107.4977" gradientTransform="matrix(1 0 0 -1 0 196.2553)">
		<stop  offset="0.5" style="stop-color:#FE9C0E"/>
		<stop  offset="1" style="stop-color:#FE7F00"/>
	</linearGradient>
	<path class="st19" d="M12.1,96.7c-2.2-0.9-2.7-3.6-3.2-6.1c-0.1-0.5-0.2-0.9-0.3-1.4l-0.3-1.3l0.2-0.1c0.4-0.1,0.9-0.1,1.3-0.1h0.2
		v0.2c0.2,0.6,0.2,1.3,0.4,2c0.4,2.2,0.9,4.7,1.9,6.5l0.3,0.6L12.1,96.7z"/>
	
		<linearGradient id="SVGID_20_" gradientUnits="userSpaceOnUse" x1="34.6333" y1="112.5395" x2="-3.8932" y2="151.066" gradientTransform="matrix(1 0 0 -1 0 196.2553)">
		<stop  offset="0.5" style="stop-color:#FE9C0E"/>
		<stop  offset="1" style="stop-color:#FE7F00"/>
	</linearGradient>
	<path class="st20" d="M16.3,97.1c-2.8,0-3.6-2.4-4.2-4.5c-0.8-3.2-1.5-6.5-2.1-9.2c-1.3-6.3-2.8-12.8-4.2-19.9
		c-0.2-0.8-0.3-1.6-0.5-2.4c-0.8-3.6-1.6-7.3-1.7-11c-0.2-8.4,3-16.1,8.8-21.3l0.3-0.3v3.2l-0.1,0.1c-4,3.2-6.1,7.6-6.9,14
		C5.6,48.1,5.6,50,7.5,51c0.3,0.2,0.6,0.2,1,0.2c0.3,0,0.6-0.1,0.9-0.1h0.2c1.7-0.2,3.5-0.4,5.7-0.6h0.2v0.2
		c0.2,1.2,0.3,2.4,0.6,3.6v0.2h-0.2c-0.9,0.1-1.9,0.2-2.8,0.2c-1.6,0.1-3.2,0.2-4.7,0.4c-0.5,0.1-0.9,0.3-1.3,0.8
		c-0.4,0.6-0.6,1.3-0.5,2c0.2,1.4,1.2,2.4,2.5,2.4c0.2,0,0.4,0,0.6,0c0.6,0,1.2-0.1,1.7-0.2c0.4-0.1,0.9-0.1,1.2-0.2
		c1.5-0.1,2.9-0.2,4.3-0.3H17V60c0.7,4,1.5,8,2.3,11.7l0.1,0.2h-0.2c-0.8,0.1-1.6,0.1-2.4,0.2c-1.6,0.1-3.2,0.2-4.7,0.4
		c-0.5,0.1-0.9,0.3-1.3,0.8c-0.4,0.6-0.6,1.3-0.5,2c0.2,1.4,1.2,2.4,2.5,2.4c0.2,0,0.4,0,0.6,0c0.6,0,1.2-0.1,1.7-0.2
		c0.4-0.1,0.9-0.1,1.2-0.2c1.3-0.1,2.7-0.2,4-0.3h0.2v0.2c0.8,3.7,1.7,7.2,2.5,10.7l0.1,0.2h-0.2c-0.9,0.1-1.8,0.1-2.7,0.2
		c-1.6,0.1-3.2,0.2-4.7,0.4c-1.4,0.2-2.2,1.3-2,2.8c0.2,1.2,1.2,2.5,2.4,2.5c2-0.1,3.9-0.2,5.4-0.3h0.2v0.2
		c-0.1,0.9-0.1,1.7-0.1,2.5v0.2h-0.2c-2,0.2-3.5,0.3-4.9,0.3C16.4,97.1,16.4,97.1,16.3,97.1z"/>
	
		<linearGradient id="SVGID_21_" gradientUnits="userSpaceOnUse" x1="15.8348" y1="149.3524" x2="7.2545" y2="157.9324" gradientTransform="matrix(1 0 0 -1 0 196.2553)">
		<stop  offset="0.5" style="stop-color:#EF5401"/>
		<stop  offset="1" style="stop-color:#DE2201"/>
	</linearGradient>
	<path class="st21" d="M9.3,50.3c-0.9,0-1.5-0.2-1.9-0.8c-1-1.2-0.7-3.5-0.5-5.3v-0.2c0.6-4.6,2.5-8.2,5.6-10.9l0.3-0.3v2.9
		c0,4.6,0,9.4,0,14v0.2h-0.2c-0.9,0.1-1.8,0.2-2.8,0.3C9.6,50.3,9.4,50.3,9.3,50.3z"/>
	
		<linearGradient id="SVGID_22_" gradientUnits="userSpaceOnUse" x1="22.6255" y1="101.7531" x2="16.6059" y2="107.7726" gradientTransform="matrix(1 0 0 -1 0 196.2553)">
		<stop  offset="0.5" style="stop-color:#636363"/>
		<stop  offset="1" style="stop-color:#878787"/>
	</linearGradient>
	<path class="st22" d="M16.8,93.4c-1,0-1.8-0.3-2.2-0.9c-0.4-0.6-0.5-1.2-0.2-1.7c0.5-0.9,1.9-1.1,3.3-1.2h0.6
		c1.7-0.1,3.4-0.2,5-0.4h0.2l0.1,0.2c0.2,1.1,0.6,2.1,0.8,3.2l0.1,0.2h-0.2c-1.4,0.2-3,0.2-4.6,0.4c-0.3,0-0.6,0.1-0.9,0.1
		C17.9,93.4,17.4,93.4,16.8,93.4z"/>
	
		<linearGradient id="SVGID_23_" gradientUnits="userSpaceOnUse" x1="44.9815" y1="67.9678" x2="16.4865" y2="96.4626" gradientTransform="matrix(1 0 0 -1 0 196.2553)">
		<stop  offset="0.5" style="stop-color:#636363"/>
		<stop  offset="1" style="stop-color:#878787"/>
	</linearGradient>
	<path class="st23" d="M37.9,133.2c-0.9,0-2-0.2-3.1-0.7c-0.7-0.3-1.3-0.7-2-1.3l-0.2-0.2l0.2-0.2c2-1.3,4.1-2.9,4.1-6
		c0-2.8-1.9-5.7-3.7-8.1c-0.9-1.3-2-2.7-3-3.9c-4.4-5.7-8.5-11-7.8-18.8v-0.2l2-0.2c0,0,0.4,1.4,0.5,1.7c0.6,2.2,2.4,2.4,4.4,2.6
		h0.2V98c0.7,6.7,4.1,11.6,7.3,15.4c2.4,2.8,4.3,5.7,5.7,9c1.3,2.8,1.2,6-0.2,8.2C41.4,132.3,39.8,133.2,37.9,133.2z"/>
	
		<linearGradient id="SVGID_24_" gradientUnits="userSpaceOnUse" x1="47.4839" y1="49.8161" x2="17.2375" y2="80.0623" gradientTransform="matrix(1 0 0 -1 0 196.2553)">
		<stop  offset="0.5" style="stop-color:#636363"/>
		<stop  offset="1" style="stop-color:#878787"/>
	</linearGradient>
	<path class="st24" d="M37.5,149c-5.7,0-11.3-2.4-15-6.5c-2.8-3.1-4-7.3-5.1-11.1c-0.6-2-1.3-4-1.9-5.9c-0.5-1.4-0.9-2.8-1.3-4.2
		c-0.2-0.9-0.2-1.5,0.1-2l0.2-0.2l0.2,0.2c2.8,3.2,4.2,7.2,5.4,11.1c0.9,2.5,1.7,5,2.9,7.4c2.8,5.2,8,8.2,14.3,8.2
		c0.4,0,0.9,0,1.3-0.1c6.1-0.4,12-3.6,15.3-8.4c0.8-1.1,1.4-2.4,2-3.7l0.4,0.2c-1.5,5.1-4.8,9.7-9.2,12.4
		C44.1,148.1,40.9,149,37.5,149z"/>
	
		<linearGradient id="SVGID_25_" gradientUnits="userSpaceOnUse" x1="52.5673" y1="57.4553" x2="21.0468" y2="88.9757" gradientTransform="matrix(1 0 0 -1 0 196.2553)">
		<stop  offset="0.5" style="stop-color:#D6D6D6"/>
		<stop  offset="1" style="stop-color:#AAAAAA"/>
	</linearGradient>
	<path class="st25" d="M36.4,145.7c-3.2-0.1-6.3-1-8.9-2.8c-2.4-1.7-4.3-4.3-5.7-8.1c-0.6-1.5-1.1-3.1-1.7-4.6
		c-1.3-3.9-2.6-7.9-5.4-11.1l-0.2-0.2l0.2-0.2c0.4-0.3,1-0.4,1.8-0.4c2,0,4.6,0.9,5.6,1.5c1.8,1,3.5,2.5,5,4.7
		c0.6,0.8,1.1,1.7,1.7,2.4c1.3,1.9,2.5,3.9,4.3,5.4c1.3,1.1,2.9,1.7,4.6,1.7c3,0,5.5-1.7,6.4-4.3c2.2-6.4-3.5-13.3-6.5-17
		c-3.2-3.9-6.4-8.5-7.1-14.7v-0.2h0.2c1.3,0,2.5,0.1,4.1,0.1c1.3,0,2.5,0,3.7,0h2.7v0.2c0.6,5.3,5.2,9.9,8.9,13.6l0.6,0.6
		c4.2,4.2,6.3,9.7,6.2,15.8c-0.4,3.5-1.8,7.1-3.9,10c-3.4,4.6-9.8,7.7-16.2,7.7L36.4,145.7z"/>
	<path class="st1" d="M35.3,97.1c-1.9,0-3.5,0-5-0.1l-0.1-0.4c0.9-0.4,1.9-0.9,2.7-1.5H33h0.4c1.6,0.1,3.3,0.1,5.1,0.1
		c2.1,0,4.3,0,7.1-0.1h0.5l-0.3,0.3c-0.4,0.4-0.8,0.7-1.1,1.1l-0.4,0.3l-0.1,0.1h-0.1C41.8,97,39.6,97,37.3,97
		C36.6,97.1,35.9,97.1,35.3,97.1z"/>
	
		<linearGradient id="SVGID_26_" gradientUnits="userSpaceOnUse" x1="50.4411" y1="98.4999" x2="47.0553" y2="101.8857" gradientTransform="matrix(1 0 0 -1 0 196.2553)">
		<stop  offset="0.5" style="stop-color:#FE9C0E"/>
		<stop  offset="1" style="stop-color:#FE7F00"/>
	</linearGradient>
	<path class="st26" d="M44.8,96.6c0.6-0.5,1-0.9,1.4-1.4l0.1-0.1h0.1c2-0.1,4.1-0.1,6.1-0.2h0.3l-0.1,0.3C52.2,96.8,50,97,47.9,97
		c-0.3,0-0.6,0-0.8,0s-0.5,0-0.6,0c-0.1,0-2,0-2,0L44.8,96.6z"/>
	
		<linearGradient id="SVGID_27_" gradientUnits="userSpaceOnUse" x1="57.8649" y1="176.5654" x2="43.2558" y2="191.1748" gradientTransform="matrix(1 0 0 -1 0 196.2553)">
		<stop  offset="0.5" style="stop-color:#D6D6D6"/>
		<stop  offset="1" style="stop-color:#AAAAAA"/>
	</linearGradient>
	<path class="st27" d="M52,25.1c-1.3-0.9-2.8-1.7-4.3-2.4l-0.2-0.1v-0.2c0-7.2,0-14.3,0-21.5V0.7h0.2c1.7,0,3.1,0,4.3,0.1h0.2V1
		c0,8,0,15.9,0,23.9v0.4L52,25.1z"/>
	
		<linearGradient id="SVGID_28_" gradientUnits="userSpaceOnUse" x1="27.8899" y1="158.8932" x2="2.5218" y2="184.2614" gradientTransform="matrix(1 0 0 -1 0 196.2553)">
		<stop  offset="0.5" style="stop-color:#D6D6D6"/>
		<stop  offset="1" style="stop-color:#AAAAAA"/>
	</linearGradient>
	<path class="st28" d="M13.6,49.7c0-8.1,0-16.2,0.1-24.3c0-8.1,0.1-16.2,0.1-24.3V0.8h0.2c0.3-0.1,0.8-0.1,1.3-0.1
		c0.6,0,1.3,0,1.9,0.1c0.4,0,0.8,0.1,1.2,0.1h0.2v0.2c0,10.6,0,21-0.1,31.6v0.1v0.1c-0.7,1.2-1.3,2.4-1.7,3.6
		c-1.3,3.6-1.7,8.1-1.2,13.2v0.2h-0.2c-0.5,0-0.9,0.1-1.4,0.1h-0.3L13.6,49.7L13.6,49.7z"/>
	<path class="st29" d="M53.8,95.5c3.1-11.2,5-22.8,7-34.3c1.6-9.5,3.5-18.2-1-27.2c-1.7-3.2-3.9-6-6.4-8c0-8.4,0-16.9,0.1-25.3
		c0-0.8-1.3-0.8-1.3,0c0,8.1,0,16.2-0.1,24.3c-1.3-0.9-2.8-1.7-4.3-2.4c0-7.3,0-14.6,0-21.9c0-0.8-1.3-0.8-1.3,0
		c0,7.2,0,14.3,0,21.4c-5.2-1.8-11-1.8-16.6,0.4c-0.8-0.1-1.6-0.1-2.4-0.1c-0.1,0-0.2-0.1-0.2-0.1c-2.7-0.2-5.3-0.1-7.9,0.6
		c0-7.4,0-14.8,0.1-22.2c0-0.8-1.3-0.8-1.3,0c0,10.7,0,21.3-0.1,32.1c-0.6,1.2-1.3,2.4-1.7,3.6c-1.4,4.1-1.7,8.8-1.2,13.3
		c-0.5,0-1,0.1-1.5,0.2c0-16.4,0.1-32.8,0.1-49.1c0-0.8-1.3-0.8-1.3,0c0,8.3,0,16.6-0.1,25C5.7,29.7,1.6,36.4,0.4,44.3
		C-0.6,49.8,0.5,55,1.6,60.4c1.5,7.5,3.1,15,4.6,22.4c0.8,3.5,1.6,7.1,2.4,10.6c0.8,3.2,2,4.7,5.4,4.6h0.1c2.2,0.7,5.4,0.1,7.3-0.2
		c0.6,4.9,2.8,9.1,5.9,13.2c2.1,2.8,4.4,5.3,6.2,8.3c0.9,1.4,1.6,2.9,2,4.5c0.9,3-1.3,5-3.6,6.3c-1.6-1.8-2.8-4.3-4-6.1
		c-1.7-2.6-4.4-5-7.4-6.1c-2.3-0.8-5.2-1.3-7.1,0.6c-1.5,1.4,0,4.3,0.6,5.7c2.5,6.5,3.2,13.5,7.6,19.1c4.2,5,12.3,7.7,18.7,6.6
		c11.6-2,18.4-13.5,17.4-24.8c-0.4-4.4-2.1-8.6-5-12c-3.7-4.5-9.9-8.8-10.6-15c2.2,0,4.5-0.1,6.7-0.2C50.9,97.8,53.1,97.5,53.8,95.5
		z M52.9,93.9c-1.7,0.1-3.5,0.1-5.3,0.2c2.4-2.6,4.7-5.1,7.2-7.7C54.2,88.9,53.5,91.4,52.9,93.9z M55,85.1c-2.8,3-5.5,6-8.3,9
		c-3.1,0.1-6.3,0.1-9.5,0.1c-1,0-2.1,0.1-3.2,0.1c1.5-1.6,2.9-3.2,4.4-4.7c0.8,0.7,1.9,1.2,3.2,1.3c1.2,0.1,2.4,0.2,3.6-0.1
		c1.5,0,2.7-1,3.4-2.4c0.6-0.9,0.9-2,1.1-3.1c0-0.2,0-0.3,0-0.5c0-0.1,0-0.2,0-0.3c0.1-1.9-0.6-3.9-2-5.1c1.4-1.6,2.9-3.1,4.3-4.7
		c1.7,0,3.2,0.1,4.9,0.1C56.4,78.2,55.7,81.7,55,85.1z M19,63.5c1,0,2-0.2,2.9-0.6c0.6,3.2,1.3,6.5,2,9.6c-0.9,0.3-2,0.6-3,0.4
		C20.2,69.8,19.6,66.7,19,63.5z M20.2,76.3c-1.5,0.2-3,0.2-4.5,0.3c-1.3,0.1-3.1,0.7-3.9-0.6c-0.3-0.5-0.3-1.1-0.2-1.6
		c0.2-0.9,1.6-0.9,2.4-0.9c1.9-0.2,3.7-0.2,5.6-0.5C19.7,74.1,20,75.2,20.2,76.3z M18.9,62.9c-0.3-1.7-0.6-3.3-0.9-5
		c-0.4-2.2-0.8-4.3-1-6.5c1-0.2,2-0.2,3-0.6c0.3,3,0.8,5.9,1.3,8.7c0.2,0.9,0.4,1.9,0.6,2.8C20.8,62.7,19.8,62.8,18.9,62.9z
		 M39.8,49.1c-0.1,2.4,1.2,6.1,3.5,8c-0.8,0-1.6-0.1-2.3-0.1c-4.6-0.4-6.4-4.8-6.1-8.9c0.2-2.1,1.2-4.2,3-5.4c1.5-1,3.5-0.9,5.3-0.8
		C41,43.4,39.9,46.2,39.8,49.1z M46.1,41.9c1.4,0.3,2.5,1,3.4,2c1.3,1.7,1.8,4,1.7,6.2c0,0.1,0,0.2,0,0.3c-0.4,2.8-2,5.3-4.6,6.2
		c-1.7,0.6-3.5-1.7-4.3-2.8c-0.9-1.4-1.1-3.1-1.2-4.7C41,45.8,42.7,42.6,46.1,41.9z M38.3,57.5c-4.4,4.7-9,9.5-13.3,14.3
		c-0.6-3.1-1.3-6.1-1.9-9.3c0-0.2-0.1-0.4-0.1-0.6c3.5-3.9,7.2-7.8,10.8-11.7C34.1,53.4,35.7,56.1,38.3,57.5z M24,73.2
		c0.9,4.5,2,9.1,3,13.5c-0.9,0.4-2,0.6-3,0.3c-1-4.5-2-9-3-13.4C22,73.7,23.1,73.4,24,73.2z M25.5,74.1c4.3-0.2,8.8,0.1,13.2,0.2
		c-3.5,3.9-7.1,7.6-10.6,11.5C27.2,81.9,26.4,78.1,25.5,74.1z M27.1,87.3c0.2,0.8,0.4,1.7,0.6,2.4c0.3,1.5,0.6,3.3,1.7,4.5
		c0.8,0.8,1.6,1,2.5,1c-0.9,0.6-1.8,1-2.8,1.3c-0.1,0-0.2,0.1-0.2,0.2c-1.1-0.1-2.3-0.3-2.7-1.3c-0.3-0.8-0.5-1.7-0.7-2.5v-0.1
		c-0.1-0.2-0.2-0.6-0.2-0.8c-0.4-1.5-0.7-2.9-1.1-4.4C25.2,87.9,26.2,87.7,27.1,87.3z M31.1,94.1c-1.5-0.3-2-3.9-2.3-5.4
		c-0.2-0.7-0.3-1.4-0.5-2.1c3.7-4.1,7.5-8.1,11.3-12.2c0.5,0,1,0,1.5,0.1c3.5,0.1,6.9,0.2,10.3,0.2c-1.3,1.4-2.7,2.9-4,4.3
		c-0.6-0.4-1.2-0.7-2-0.8c-0.1,0-0.1,0-0.2,0c-0.2-0.1-0.6-0.1-0.9-0.1c-2,0-4.2-0.3-5.8,1c-1.3,0.9-2,2.6-2.1,4.1
		c-0.2,2.1,0.3,4.3,1.7,5.7c-1.6,1.7-3.2,3.5-4.8,5.2C32.5,94.2,31.7,94.2,31.1,94.1z M41.9,84.5c-0.2-2.3,1-4.6,3.3-5
		c0.9,0.2,1.7,0.7,2.3,1.4c0.8,1.1,1.1,2.6,1,4c0,0.2,0,0.3-0.1,0.5c-0.3,1.8-1.3,3.5-3,4.1C43.2,90.2,42,85.9,41.9,84.5z
		 M42.7,89.7c-0.4,0-0.7,0-1.1-0.1c-3-0.2-4.3-3.1-4.1-5.9c0.1-1.4,0.7-2.8,1.9-3.7c0.9-0.6,2-0.7,3.2-0.6c-1.4,1.2-2,3.1-2,5.1
		C40.6,86.1,41.4,88.3,42.7,89.7z M58.3,68.2c-0.3,1.8-0.6,3.5-0.9,5.4c-2,0-4.2-0.1-6.2-0.1c2.6-2.8,5.2-5.6,7.8-8.4
		C58.6,66.1,58.4,67.1,58.3,68.2z M60.5,54.2c-0.5,3.2-1,6.5-1.6,9.7c-2.9,3.2-5.8,6.3-8.8,9.5c-2.8-0.1-5.7-0.2-8.5-0.2
		c-1.2,0-2.4-0.1-3.7-0.2c7.8-8.5,15.7-16.9,23.5-25.4C61.3,49.9,60.9,52.1,60.5,54.2z M61.6,45.2c0,0.5,0,1,0,1.6
		C53.5,55.6,45.3,64.3,37.2,73c-4-0.2-8-0.4-11.9-0.2c0-0.1-0.1-0.2-0.1-0.3c4.5-5,9.1-9.9,13.8-14.9c0.6,0.2,1.3,0.4,2.1,0.5
		c1.7,0.1,3.5,0.2,5.2-0.2c2-0.1,3.5-1.4,4.5-3.2c0.9-1.3,1.3-2.7,1.6-4.3c0-0.2,0-0.4,0.1-0.6c0-0.2,0-0.2,0.1-0.4
		c0.2-1.9-0.2-3.8-1.1-5.4c2.7-2.8,5.4-5.7,8-8.6C60.6,38.7,61.4,41.9,61.6,45.2z M58.9,35.2c-2.5,3-5.3,5.7-8,8.7
		c-1-1.6-2.6-2.8-4.6-3.2c-0.1,0-0.1,0-0.2,0c0,0,0,0-0.1,0c-0.4-0.1-0.7-0.1-1.2-0.1c-0.7,0-1.4,0-2,0c3.7-4,7.5-8,11.2-12.1
		C56.1,30.4,57.7,32.6,58.9,35.2z M46.2,23.2c2.8,1.1,5.3,2.8,7.4,4.8c-3.9,4.2-7.7,8.3-11.6,12.5c-1.8,0-3.6,0.2-5.1,1.3
		c-1.8,1.3-2.8,3.5-3.2,5.7c-0.1,0.7-0.1,1.3-0.1,2c-3.6,3.9-7.3,7.8-10.9,11.7c-0.8-3.7-1.5-7.6-1.8-11.3
		c8.2-9,16.5-17.9,24.9-26.9C46,23.1,46.1,23.1,46.2,23.2z M41.1,22.1c1.4,0.1,2.8,0.3,4.1,0.7C37.1,31.5,29,40.3,20.9,49
		c-0.3-4.2-0.2-8.3,1.1-12.3c4.1-4.6,8.3-9.1,12.5-13.5C36.7,22.4,38.9,22,41.1,22.1z M22.5,35.2c0.6-1.6,1.3-3.1,2.4-4.6
		c2-2.9,5-5.4,8.3-6.9C29.6,27.6,26,31.4,22.5,35.2z M19.4,25.1c2.6-0.9,5.3-1.5,8-1.5c-3.2,1.7-6,4.2-8,7.1
		C19.4,28.8,19.4,26.9,19.4,25.1z M16.9,40.2c1-7.6,6.5-13.5,13.3-16.5c0,0,0,0,0.1,0c0.5-0.2,1-0.4,1.5-0.6
		c0.5-0.2,0.9-0.3,1.5-0.5c-1.7,0.7-3.5,1.7-5.1,3c-7.7,6.1-9.1,15.4-8.3,24.7c-0.9,0.4-2,0.5-3,0.6C16.4,47.3,16.4,43.8,16.9,40.2z
		 M16.2,55.6c0.2,1.1,0.4,2.1,0.6,3.2c-1.7,0.2-3.2,0.2-4.9,0.4C10.6,59.3,8.9,60,8,58.6c-0.3-0.5-0.3-1.1-0.2-1.6
		c0.2-0.9,1.6-0.9,2.4-0.9C12.2,56,14.2,55.9,16.2,55.6z M1.3,46.9C1.8,38.8,5.8,31.4,12.6,27c0,0.2,0,0.3,0,0.5
		c-6.5,5.1-9.6,12.9-9.9,21c0,0.9,0,1.7,0,2.5c-0.5,0-0.9,0-1.3,0.2C1.2,49.7,1.2,48.3,1.3,46.9z M2.7,60.1
		c-0.6-2.8-1.1-5.6-1.3-8.3c0.4-0.2,0.9-0.2,1.3-0.2c0.3,4.3,1.4,8.7,2.3,12.8c-0.5,0-0.9,0.1-1.3,0.2C3.3,63.1,3,61.6,2.7,60.1z
		 M3.8,65.2c0.5-0.1,0.9-0.2,1.3-0.2c0.6,3.2,1.3,6.3,2,9.5c-0.5-0.1-0.9-0.1-1.3,0C5,71.5,4.4,68.3,3.8,65.2z M8.5,87.4
		c-0.6-2.7-1.2-5.4-1.8-8.1c-0.3-1.4-0.6-2.8-0.9-4.2c0.4,0,0.8-0.1,1.2,0c0.1,0,0.2,0,0.2,0c0.9,4,1.7,8.1,2.7,12.1
		C9.4,87.3,8.9,87.3,8.5,87.4z M8.9,89.1c-0.1-0.4-0.2-0.8-0.2-1.1c0.4-0.1,0.9-0.1,1.3-0.1c0.6,2.7,0.9,6.1,2.3,8.6
		C9.7,95.4,9.4,91.8,8.9,89.1z M21.3,96.6c-1.7,0.2-3.2,0.3-4.9,0.3c-2.9,0.2-3.7-2-4.2-4.3c-0.7-3.1-1.4-6.1-2.1-9.2
		c-1.5-6.6-2.8-13.3-4.3-20C5.1,59,4,54.6,3.8,50.1c-0.2-8,2.8-15.8,8.7-21.1c0,0.9,0,1.7,0,2.6C8.1,35.2,6.3,40,5.6,45.8
		c-0.2,2.1-0.4,4.3,1.7,5.4c0.8,0.4,1.6,0.2,2.4,0.2c1.9-0.2,3.8-0.4,5.7-0.6c0.2,1.3,0.3,2.4,0.6,3.6c-2.5,0.2-5,0.2-7.6,0.6
		c-1.3,0.2-2,1.7-1.9,3c0.2,1.4,1.2,2.4,2.7,2.7c1.1,0.2,2.4-0.2,3.5-0.2c1.4-0.1,2.8-0.2,4.3-0.3c0.7,3.9,1.5,7.8,2.3,11.7
		c-2.4,0.2-4.7,0.2-7.1,0.6c-1.3,0.2-2,1.7-1.9,3c0.2,1.4,1.2,2.4,2.7,2.7c1.1,0.2,2.4-0.2,3.5-0.2c1.3-0.1,2.7-0.2,4-0.3
		c0.8,3.5,1.6,7.2,2.5,10.7c-2.4,0.2-5,0.2-7.4,0.6c-1.6,0.2-2.4,1.5-2.2,3c0.2,1.3,1.3,2.7,2.7,2.7c1.8,0,3.6-0.2,5.4-0.3
		C21.3,94.9,21.3,95.8,21.3,96.6z M12.6,33.3c0,5.5,0,11,0,16.5c-0.9,0.1-1.8,0.2-2.8,0.3c-3.6,0.4-3.1-3.3-2.7-5.9
		C7.7,39.9,9.4,36.1,12.6,33.3z M19.4,93c-1.4,0.1-3.7,0.8-4.6-0.6c-1.3-2.1,1.5-2.4,2.9-2.5c1.9-0.2,3.7-0.2,5.6-0.4
		c0.2,1.1,0.6,2.1,0.8,3.2C22.6,92.7,21,92.9,19.4,93z M37.1,124.9c0-2.9-2.1-6-3.7-8.3c-5.1-7.2-11.7-13.2-10.7-22.7
		c0.6-0.1,1.2-0.1,1.7-0.2c0.2,0.5,0.2,1,0.4,1.5c0.6,2.3,2.4,2.6,4.6,2.7c0.7,6.1,3.5,10.9,7.4,15.6c2.3,2.8,4.2,5.7,5.7,8.9
		c2.6,5.7-0.9,12.7-7.7,9.8c-0.7-0.3-1.3-0.8-1.9-1.3C35.3,129.6,37.1,127.9,37.1,124.9z M46.7,146.3c-7.6,4.8-18.1,2.5-24-3.9
		c-2.8-3-3.9-7.2-5-11c-0.9-3.4-2.2-6.7-3.2-10.1c-0.2-0.9-0.2-1.4,0-1.9c4.6,5.2,5.1,12.4,8.3,18.5c3.2,5.9,9.2,8.7,15.8,8.3
		c6-0.4,12-3.5,15.4-8.5c0.8-1.2,1.4-2.4,2-3.7C54.3,139,51.1,143.5,46.7,146.3z M50.5,112.4c4.3,4.3,6.2,9.8,6.1,15.7
		c-0.4,3.5-1.7,7-3.8,9.9c-3.6,5-10.3,7.7-16.5,7.6c-3.2-0.1-6.2-1-8.8-2.8c-2.8-2-4.5-5-5.7-8c-2.1-5.4-3.2-11.3-7.1-15.8
		c1.7-1.1,6,0.4,7.2,1c2,1.1,3.6,2.8,5,4.6c1.9,2.7,3.4,5.7,5.9,7.9c3.5,3,9.8,2,11.4-2.7c2.1-6.2-2.8-12.6-6.5-17.2
		c-3.6-4.4-6.4-8.8-7-14.6c2.9,0.1,5.8,0.1,8.7,0c0.6,0,1.1,0,1.6,0C41.6,103.8,46.8,108.6,50.5,112.4z M44,96.8
		c-2.3,0.1-4.5,0.1-6.8,0.1c-2.3,0-4.6,0-6.9-0.1c0.9-0.4,1.9-0.9,2.8-1.5c0.1,0,0.2,0,0.3,0c4.1,0.1,8.1,0.1,12.2,0
		C45.1,95.8,44.6,96.3,44,96.8C44.1,96.8,44.1,96.8,44,96.8z M46.1,96.8c-0.4,0-0.7,0-1.1,0c0.5-0.5,1-0.9,1.4-1.5
		c2-0.1,4.1-0.1,6.1-0.2C51.8,97.1,47.8,96.7,46.1,96.8z"/>
</g>
</svg>
