<?xml version="1.0" encoding="utf-8"?>
<!-- Generator: Adobe Illustrator 23.1.0, SVG Export Plug-In . SVG Version: 6.00 Build 0)  -->
<svg version="1.1" id="Шар_1" xmlns="http://www.w3.org/2000/svg" xmlns:xlink="http://www.w3.org/1999/xlink" x="0px" y="0px"
	 viewBox="0 0 150 152.7" style="enable-background:new 0 0 150 152.7;" xml:space="preserve">
<style type="text/css">
	.st0{fill-rule:evenodd;clip-rule:evenodd;fill:#C77C38;}
	.st1{fill-rule:evenodd;clip-rule:evenodd;fill:#BA631E;}
	.st2{fill-rule:evenodd;clip-rule:evenodd;fill:#6C4126;}
	.st3{fill-rule:evenodd;clip-rule:evenodd;fill:#9E6C53;}
	.st4{fill-rule:evenodd;clip-rule:evenodd;fill:#C7CBC7;}
	.st5{fill-rule:evenodd;clip-rule:evenodd;fill:#C6E3F8;}
	.st6{fill:none;stroke:#6B5B4B;stroke-width:8.0347;}
	.st7{fill-rule:evenodd;clip-rule:evenodd;fill:#6B5B4B;}
</style>
<g>
	<path class="st0" d="M75,25.9L18.1,66v80.2h111.3V64.7L75,25.9z"/>
	<path class="st1" d="M130.7,100.9H19.4c-1.7,0-3.4-0.7-4.6-1.9c-1.2-1.2-1.9-2.9-1.9-4.6c0-1.7,0.7-3.4,1.9-4.6
		c1.2-1.2,2.9-1.9,4.6-1.9h111.3c1.7,0,3.4,0.7,4.6,1.9c1.2,1.2,1.9,2.9,1.9,4.6c0,1.7-0.7,3.4-1.9,4.6
		C134,100.2,132.4,100.9,130.7,100.9z"/>
	<path class="st1" d="M130.7,71H19.4c-1.7,0-3.4-0.7-4.6-1.9c-1.2-1.2-1.9-2.9-1.9-4.6c0-1.7,0.7-3.4,1.9-4.6
		c1.2-1.2,2.9-1.9,4.6-1.9h111.3c1.7,0,3.4,0.7,4.6,1.9c1.2,1.2,1.9,2.9,1.9,4.6c0,1.7-0.7,3.4-1.9,4.6C134,70.3,132.4,71,130.7,71z
		"/>
	<path class="st1" d="M19.4,139.7c-1.7,0-3.4,0.7-4.6,1.9c-1.2,1.2-1.9,2.9-1.9,4.6c0,1.7,0.7,3.4,1.9,4.6c1.2,1.2,2.9,1.9,4.6,1.9
		h40.1v-12.9H19.4z"/>
	<path class="st1" d="M130.7,139.7H90.6v12.9h40.1c1.7,0,3.4-0.7,4.6-1.9c1.2-1.2,1.9-2.9,1.9-4.6c0-1.7-0.7-3.4-1.9-4.6
		C134,140.4,132.4,139.7,130.7,139.7z"/>
	<path class="st1" d="M59.5,113.8H19.4c-1.7,0-3.4,0.7-4.6,1.9c-1.2,1.2-1.9,2.9-1.9,4.6c0,1.7,0.7,3.4,1.9,4.6
		c1.2,1.2,2.9,1.9,4.6,1.9h40.1V113.8z"/>
	<path class="st1" d="M130.7,113.8H90.6v12.9h40.1c1.7,0,3.4-0.7,4.6-1.9c1.2-1.2,1.9-2.9,1.9-4.6c0-1.7-0.7-3.4-1.9-4.6
		C134,114.5,132.4,113.8,130.7,113.8z"/>
	<path class="st2" d="M137.4,81.4L74.9,35.8L12.5,79c-1.6,1.3-3.7,1.8-5.7,1.5c-2-0.3-3.9-1.3-5.1-3c-1.3-1.6-1.8-3.7-1.5-5.7
		c0.3-2,1.3-3.9,3-5.1L75.2,16l72,53.3c0.8,0.6,1.5,1.4,1.9,2.3c0.5,0.9,0.8,1.9,0.9,2.9c0.1,1,0,2-0.3,3c-0.3,1-0.8,1.9-1.4,2.7h0
		c-1.3,1.6-3.2,2.6-5.2,2.8C141.1,83.3,139,82.7,137.4,81.4z"/>
	<path class="st3" d="M132,58V33.6h-15.5v12.9L132,58z"/>
	<path class="st2" d="M59.5,100.9h31v51.7h-31V100.9z"/>
	<path class="st4" d="M69.9,126.8c0,0.7-0.3,1.3-0.8,1.8c-0.5,0.5-1.1,0.8-1.8,0.8c-0.7,0-1.3-0.3-1.8-0.8c-0.5-0.5-0.8-1.1-0.8-1.8
		c0-0.7,0.3-1.3,0.8-1.8c0.5-0.5,1.1-0.8,1.8-0.8c0.7,0,1.3,0.3,1.8,0.8C69.6,125.4,69.9,126.1,69.9,126.8z"/>
	<path class="st5" d="M62.1,62.1H88V88H62.1V62.1z"/>
	<path class="st6" d="M62.1,62.1H88V88H62.1V62.1z"/>
	<path class="st7" d="M88,72.4H77.6V62.1h-5.2v10.3H62.1v5.2h10.3V88h5.2V77.6H88V72.4z"/>
	<path class="st4" d="M119,28.5c-0.7,0-1.3-0.3-1.8-0.8c-0.5-0.5-0.7-1.2-0.8-1.8c0-0.7,0.3-1.3,0.8-1.8c1-1,2.7-1,3.7,0
		c0.5,0.5,0.8,1.2,0.8,1.8c0,0.7-0.3,1.3-0.8,1.8C120.4,28.2,119.7,28.5,119,28.5z"/>
	<path class="st4" d="M129.4,28.5c-0.7,0-1.3-0.3-1.8-0.8c-0.5-0.5-0.8-1.1-0.8-1.8V15.5c0-0.7,0.3-1.3,0.8-1.8
		c0.5-0.5,1.1-0.8,1.8-0.8c0.7,0,1.3,0.3,1.8,0.8c0.5,0.5,0.8,1.1,0.8,1.8v10.3c0,0.7-0.3,1.3-0.8,1.8
		C130.7,28.2,130.1,28.5,129.4,28.5z"/>
	<path class="st4" d="M129.4,10.3c-0.7,0-1.3-0.3-1.8-0.8c-0.5-0.5-0.8-1.1-0.8-1.8V2.6c0-0.7,0.3-1.3,0.8-1.8
		c0.5-0.5,1.1-0.8,1.8-0.8c0.7,0,1.3,0.3,1.8,0.8c0.5,0.5,0.8,1.1,0.8,1.8v5.2c0,0.7-0.3,1.3-0.8,1.8
		C130.7,10.1,130.1,10.3,129.4,10.3z"/>
	<path class="st4" d="M119,20.7c-0.7,0-1.3-0.3-1.8-0.8c-0.5-0.5-0.8-1.1-0.8-1.8v-5.2c0-0.7,0.3-1.3,0.8-1.8
		c0.5-0.5,1.1-0.8,1.8-0.8s1.3,0.3,1.8,0.8c0.5,0.5,0.8,1.1,0.8,1.8v5.2c0,0.7-0.3,1.3-0.8,1.8C120.4,20.4,119.7,20.7,119,20.7z"/>
	<path class="st4" d="M119,7.8c-0.7,0-1.3-0.3-1.8-0.8s-0.8-1.1-0.8-1.8V2.6c0-0.7,0.3-1.3,0.8-1.8c0.5-0.5,1.1-0.8,1.8-0.8
		s1.3,0.3,1.8,0.8c0.5,0.5,0.8,1.1,0.8,1.8v2.6c0,0.7-0.3,1.3-0.8,1.8C120.4,7.5,119.7,7.8,119,7.8z"/>
</g>
</svg>
