<?xml version="1.0" encoding="utf-8"?>
<!-- Generator: Adobe Illustrator 23.1.0, SVG Export Plug-In . SVG Version: 6.00 Build 0)  -->
<svg version="1.1" id="Layer_1" xmlns="http://www.w3.org/2000/svg" xmlns:xlink="http://www.w3.org/1999/xlink" x="0px" y="0px"
	 viewBox="0 0 80.4 54" style="enable-background:new 0 0 80.4 54;" xml:space="preserve">
<style type="text/css">
	.st0{fill:url(#SVGID_1_);}
	.st1{fill:url(#SVGID_2_);}
	.st2{fill:url(#SVGID_3_);}
	.st3{fill:url(#SVGID_4_);}
	.st4{fill:url(#SVGID_5_);}
	.st5{fill:url(#SVGID_6_);}
	.st6{fill:url(#SVGID_7_);}
	.st7{fill:url(#SVGID_8_);}
	.st8{fill:url(#SVGID_9_);}
	.st9{fill:#7DAADB;}
	.st10{fill:url(#SVGID_10_);}
	.st11{fill:url(#SVGID_11_);}
	.st12{fill:url(#SVGID_12_);}
	.st13{fill:url(#SVGID_13_);}
	.st14{fill:url(#SVGID_14_);}
	.st15{fill:url(#SVGID_15_);}
	.st16{fill:url(#SVGID_16_);}
	.st17{fill:url(#SVGID_17_);}
	.st18{fill:url(#SVGID_18_);}
	.st19{fill:url(#SVGID_19_);}
	.st20{fill:url(#SVGID_20_);}
	.st21{fill:url(#SVGID_21_);}
	.st22{fill:url(#SVGID_22_);}
	.st23{fill:url(#SVGID_23_);}
	.st24{fill:url(#SVGID_24_);}
	.st25{fill:url(#SVGID_25_);}
	.st26{fill:url(#SVGID_26_);}
	.st27{fill:url(#SVGID_27_);}
	.st28{fill:url(#SVGID_28_);}
	.st29{fill:url(#SVGID_29_);}
	.st30{fill:url(#SVGID_30_);}
	.st31{fill:url(#SVGID_31_);}
	.st32{fill:url(#SVGID_32_);}
	.st33{fill:url(#SVGID_33_);}
	.st34{fill:url(#SVGID_34_);}
	.st35{fill:url(#SVGID_35_);}
	.st36{fill:url(#SVGID_36_);}
	.st37{fill:url(#SVGID_37_);}
	.st38{fill:url(#SVGID_38_);}
	.st39{fill:url(#SVGID_39_);}
	.st40{fill:url(#SVGID_40_);}
	.st41{fill:url(#SVGID_41_);}
	.st42{fill:url(#SVGID_42_);}
	.st43{fill:url(#SVGID_43_);}
	.st44{fill:url(#SVGID_44_);}
	.st45{fill:url(#SVGID_45_);}
	.st46{fill:url(#SVGID_46_);}
	.st47{fill:url(#SVGID_47_);}
	.st48{fill:url(#SVGID_48_);}
	.st49{fill:url(#SVGID_49_);}
	.st50{fill:url(#SVGID_50_);}
	.st51{fill:url(#SVGID_51_);}
	.st52{fill:url(#SVGID_52_);}
	.st53{fill:#260A01;}
</style>
<g>
	
		<linearGradient id="SVGID_1_" gradientUnits="userSpaceOnUse" x1="69.5229" y1="242.9679" x2="56.403" y2="256.0878" gradientTransform="matrix(1 0 0 -1 0 279)">
		<stop  offset="0.5" style="stop-color:#FEE7A5"/>
		<stop  offset="1" style="stop-color:#FEBD57"/>
	</linearGradient>
	<path class="st0" d="M48.4,31.4c0-0.1,0-0.2,0-0.3V31l0.1,0c0.2-0.1,0.4-0.2,0.6-0.3c0.2-0.1,0.4-0.2,0.6-0.3h0c2-0.2,4-0.3,6-0.5
		c7.2-0.6,14.6-1.2,21.9-2.1l0.2,0l-0.2,0.2c-0.3,0.4-0.7,0.9-1.1,1.3l0,0h0c-1.8,0.2-3.7,0.3-5.5,0.4c-4.5,0.3-9.1,0.7-13.7,1.1h0
		c0,0,0,0,0,0c0,0-0.1,0-0.1,0C53.9,30.9,51.1,31.2,48.4,31.4L48.4,31.4L48.4,31.4z"/>
	
		<linearGradient id="SVGID_2_" gradientUnits="userSpaceOnUse" x1="73.2557" y1="240.6534" x2="64.9522" y2="248.9568" gradientTransform="matrix(1 0 0 -1 0 279)">
		<stop  offset="0.5" style="stop-color:#EF5401"/>
		<stop  offset="1" style="stop-color:#DE2201"/>
	</linearGradient>
	<path class="st1" d="M67,39.6c0-0.4,0-0.8,0-1.2v0c0,0,0,0,0-0.1l0,0c0,0-0.1-0.1-0.2-0.1h0l-0.4,0.1v-0.1c0-0.3,0-0.6,0-0.9
		c0.1-1.5,0.2-3.4-0.7-4.5c-0.5-0.5-1-0.8-1.7-1l-0.1,0l0-0.1c0.1-0.3,0.3-0.8,0.6-1.1c0,0,0,0,0-0.1l0,0h0.1c2.3-0.2,4.7-0.3,7-0.5
		h0h0c2.6,0.2,2.5,4.9,2.5,7.2v0.3h-0.1c-0.2,0-0.3,0-0.5,0.1h-0.1v-0.1c-0.1-2.2-0.6-6-2.5-6c-0.1,0-0.2,0-0.3,0
		c-2.6,0.5-2.7,5.2-2.8,7.6v0.5h-0.1c-0.2,0-0.3,0-0.5,0c0,0-0.1,0-0.1,0l-0.2,0.1L67,39.6z"/>
	
		<linearGradient id="SVGID_3_" gradientUnits="userSpaceOnUse" x1="65.688" y1="240.3781" x2="59.73" y2="246.336" gradientTransform="matrix(1 0 0 -1 0 279)">
		<stop  offset="0.5" style="stop-color:#FE9C0E"/>
		<stop  offset="1" style="stop-color:#FE7F00"/>
	</linearGradient>
	<path class="st2" d="M61.2,39.2c0-1.7,0-4.8-1.1-6.7L60,32.4l0.3,0c0.7-0.1,1.5-0.2,2.2-0.2c1.6,0,2.6,0.5,3.1,1.7
		c0.4,1,0.3,2.3,0.2,3.4c0,0.4,0,0.7,0,1.1v0.1h-0.1c-0.7,0.2-1.4,0.3-2,0.4c-0.8,0.2-1.7,0.3-2.5,0.5l-0.1,0L61.2,39.2z"/>
	
		<linearGradient id="SVGID_4_" gradientUnits="userSpaceOnUse" x1="62.8489" y1="246.6768" x2="59.9903" y2="249.5354" gradientTransform="matrix(1 0 0 -1 0 279)">
		<stop  offset="0.5" style="stop-color:#FE9C0E"/>
		<stop  offset="1" style="stop-color:#FE7F00"/>
	</linearGradient>
	<path class="st3" d="M59.7,31.9c-0.3-0.3-0.6-0.6-1-0.9l-0.3-0.2l0.3,0c1.7-0.2,3.3-0.3,5-0.4H64l-0.1,0.2c-0.2,0.3-0.3,0.6-0.4,1
		l0,0.1h-0.1c-0.2,0-0.5,0-0.7,0c-0.8,0-1.6,0.1-2.4,0.2L59.7,31.9L59.7,31.9z"/>
	
		<linearGradient id="SVGID_5_" gradientUnits="userSpaceOnUse" x1="52.9717" y1="252.7363" x2="42.5239" y2="263.184" gradientTransform="matrix(1 0 0 -1 0 279)">
		<stop  offset="0.5" style="stop-color:#FE9C0E"/>
		<stop  offset="1" style="stop-color:#FE7F00"/>
	</linearGradient>
	<path class="st4" d="M48.1,30.5c-0.6-1-1.9-1.9-2.4-2.3l0,0v0c0-3.2-0.2-6.5-0.4-9.7c-0.1-1.1-0.1-2.2-0.2-3.4L45,13.4h0.1
		c0.2,0,0.4,0,0.6,0c0.6,0,1.2,0,1.9,0c0.5,0,0.9,0,1.4,0h0.1v0.1c0,5.6,0.1,11.1,0.2,16.4v0.1l0,0c-0.2,0.1-0.3,0.2-0.5,0.3
		c-0.2,0.1-0.3,0.2-0.5,0.3l-0.1,0L48.1,30.5z"/>
	
		<linearGradient id="SVGID_6_" gradientUnits="userSpaceOnUse" x1="43.7868" y1="240.1228" x2="36.9263" y2="246.9833" gradientTransform="matrix(1 0 0 -1 0 279)">
		<stop  offset="0.5" style="stop-color:#FE9C0E"/>
		<stop  offset="1" style="stop-color:#FE7F00"/>
	</linearGradient>
	<path class="st5" d="M37.3,44.7c0.7-1.4,0.5-3.6,0.5-5.1c0-0.2,0-0.4,0-0.7c0-1.4-0.2-2.8-0.5-4.1c-0.1-0.7-0.3-1.6-0.8-2.2
		l-0.1-0.1c0,0,0.2-0.1,0.3-0.1c0.6-0.2,1-0.8,1.4-1.4c0.1-0.2,0.2-0.3,0.3-0.4c1.2-1.8,3.9-1.9,6-2.1c0.4,0,0.7,0,1.1-0.1h0l0,0
		c0.8,0.5,1.4,1,1.9,1.6c0.4,0.4,0.5,0.8,0.5,1.1c-0.2,0.5-1,0.8-1.6,1c-1.1,0.3-2.4,0.7-3.4,1.5c-2.5,2.1-3,5.3-3.6,8.3l-0.1,0.4
		c-0.2,1.3-0.7,2-1.8,2.4l-0.2,0.1V44.7z"/>
	
		<linearGradient id="SVGID_7_" gradientUnits="userSpaceOnUse" x1="38.8213" y1="236.0806" x2="31.302" y2="243.6001" gradientTransform="matrix(1 0 0 -1 0 279)">
		<stop  offset="0.5" style="stop-color:#FEE7A5"/>
		<stop  offset="1" style="stop-color:#FEBD57"/>
	</linearGradient>
	<path class="st6" d="M34.5,45.6c0.7-1.4,0.6-3.5,0.5-5.2c0-0.2,0-0.4,0-0.6v-0.2c-0.1-2.1-0.2-4.7-1.2-6.5l-0.1-0.1l0.2,0
		c0.7-0.1,1.4-0.2,2.1-0.3h0l0,0c1.2,1,1.3,3.5,1.3,5.2c0,0.3,0,0.5,0,0.7c0.1,1.2,0,2.4,0,3.6v0.2c0,0.9-0.2,2.1-0.7,2.8v0h0
		c-0.7,0.2-1.4,0.4-2,0.6l-0.2,0L34.5,45.6z"/>
	
		<linearGradient id="SVGID_8_" gradientUnits="userSpaceOnUse" x1="33.6063" y1="269.6965" x2="21.8408" y2="281.4621" gradientTransform="matrix(1 0 0 -1 0 279)">
		<stop  offset="0.5" style="stop-color:#EF5401"/>
		<stop  offset="1" style="stop-color:#DE2201"/>
	</linearGradient>
	<path class="st7" d="M38.9,3.9c-2.2-0.4-5.1-1-8.1-1.2c-0.7-0.1-1.5-0.1-2.4-0.1c-2.5,0-5,0.3-7.5,0.6c-0.7,0.1-1.4,0.2-2.1,0.2
		l-2.7,0.3l0.1-0.2c0.9-2,3.1-2.2,5-2.5l0.2,0c1.7-0.2,3.7-0.4,6-0.5c1,0,1.9-0.1,2.9-0.1c1.2,0,2.3,0.1,3.3,0.2
		c0.9,0.2,1.8,0.5,2.6,0.8l0.1,0c0.4,0.1,0.8,0.3,1.1,0.4l0.2,0c1,0.4,1.4,0.9,1.4,1.8v0.1H38.9z"/>
	
		<linearGradient id="SVGID_9_" gradientUnits="userSpaceOnUse" x1="20.5454" y1="251.5195" x2="7.6298" y2="264.4352" gradientTransform="matrix(1 0 0 -1 0 279)">
		<stop  offset="0.5" style="stop-color:#FE9C0E"/>
		<stop  offset="1" style="stop-color:#FE7F00"/>
	</linearGradient>
	<path class="st8" d="M2.5,22.3c0-1,0-1.7,0-2.5v-0.1h0.1c3.8,0,7.7,0,11.6,0h5.5c0.5,0,1.2,0,1.8,0.1c0.7,0,1.4,0.1,2.2,0.1
		c0.7,0,1.4,0,2-0.1h0.1v0.1c0,0.8,0,1.6,0,2.4v0.1h-0.1c-4.1,0-8.3,0-12.5,0c-3.5,0-7,0-10.5,0H2.5V22.3z"/>
	<path class="st9" d="M2.4,18.5L2.4,18.5c4.8,0,9.6,0,14.4,0h2.6c1.4,0,2.8,0,4.1,0h0.1c1.6,0,3.2,0,4.1-1.4c0.7-1,0.9-2.4,1-3.7
		c0-0.3,0.1-0.7,0.1-1c0.3-1.7,0.6-3.6,0.8-5.5V6.9h0.1c0.2,0,0.4,0,0.6,0.1h0.1v0.1c-0.2,2.2-0.4,4.5-0.7,6.4l0,0.3
		c-0.2,2.1-0.5,4.4-2.8,5.2c-0.8,0.3-1.7,0.3-2.4,0.3c-0.3,0-0.7,0-1,0c-0.3,0-0.6,0-0.9,0l-9.8,0c-3.4,0-6.9,0-10.4,0H2.3L2.4,18.5
		z"/>
	
		<linearGradient id="SVGID_10_" gradientUnits="userSpaceOnUse" x1="24.0896" y1="258.2853" x2="8.2807" y2="274.0942" gradientTransform="matrix(1 0 0 -1 0 279)">
		<stop  offset="0.25" style="stop-color:#CDDEF0"/>
		<stop  offset="0.5" style="stop-color:#E9F0FF"/>
		<stop  offset="1" style="stop-color:#9BB1C4"/>
	</linearGradient>
	<path class="st10" d="M18.9,18.4c-1.6,0-3.3,0-4.9,0c-1.2,0-11.5,0-11.5,0l0-0.1c0.5-2.3,1-4.7,1.5-7c0.2-0.8,0.3-1.6,0.5-2.4V8.8
		h0.1c2.5-0.2,5-0.4,7.4-0.6c1.4-0.1,2.8-0.2,4.2-0.3c2.9-0.2,5.2-0.4,7.4-0.5c0.5,0,1.1-0.1,1.7-0.2c1.1-0.1,2.3-0.2,3.4-0.2
		c0.3,0,0.6,0,0.9,0h0.1v0.1c-0.2,2.2-0.6,4.7-1.2,7.8c-0.2,1-0.4,2.3-1.5,3.1c-0.7,0.5-1.6,0.5-2.5,0.6
		C22.6,18.4,20.8,18.4,18.9,18.4z"/>
	
		<linearGradient id="SVGID_11_" gradientUnits="userSpaceOnUse" x1="4.3441" y1="264.8914" x2="1.5054" y2="267.7301" gradientTransform="matrix(1 0 0 -1 0 279)">
		<stop  offset="0.5" style="stop-color:#636363"/>
		<stop  offset="1" style="stop-color:#878787"/>
	</linearGradient>
	<path class="st11" d="M2.4,15.8l0-0.5c0-0.5,0-1.1-0.1-1.6v-0.1c0-1.1-0.1-2.6,0.5-3.6l0,0h0c0.3,0,0.5-0.1,0.8-0.1h0.1l-0.2,0.9
		c-0.3,1.7-0.7,3.4-1,5.2L2.4,15.8z"/>
	
		<linearGradient id="SVGID_12_" gradientUnits="userSpaceOnUse" x1="4.3234" y1="262.6835" x2="0.1085" y2="266.8983" gradientTransform="matrix(1 0 0 -1 0 279)">
		<stop  offset="0.5" style="stop-color:#D6D6D6"/>
		<stop  offset="1" style="stop-color:#AAAAAA"/>
	</linearGradient>
	<path class="st12" d="M1.9,18.5c-0.7-0.9-0.6-2.9-0.5-4.2c0-0.3,0-0.6,0-0.9c0-0.7,0-1.4,0-2.1c0-0.7,0.4-1.1,1.1-1.3l0.2,0
		l-0.1,0.2c-0.3,0.8-0.3,1.7-0.4,2.5v0.2c0,0.9,0,1.8,0.1,2.7c0,0.5,0,1,0.1,1.5c-0.1,0.4-0.2,0.9-0.3,1.3L2,18.6L1.9,18.5z"/>
	
		<linearGradient id="SVGID_13_" gradientUnits="userSpaceOnUse" x1="5.8108" y1="249.1473" x2="-1.2619" y2="256.2198" gradientTransform="matrix(1 0 0 -1 0 279)">
		<stop  offset="0.5" style="stop-color:#FE9C0E"/>
		<stop  offset="1" style="stop-color:#FE7F00"/>
	</linearGradient>
	<path class="st13" d="M3.8,31.7c-0.9-0.1-1.7-0.1-2.4-0.2c-0.2,0-0.3,0-0.5,0c-0.2,0-0.2-0.3-0.2-2.4c0-0.2,0-0.3,0-0.4
		c0-2-0.1-4.1,0-6.2c0-0.5,0-0.9,0.1-1.4c0.1-0.6,0.7-1,1.2-1.4L2,19.7h0h0.1h0.2v0.1c0,0.8,0,1.6,0,2.6v0c0,0,0,0,0,0.1v0v0.3
		c0,0.3,0,0.7,0,1v0.1c0,1,0,1.9,0.2,2.9c0.2,1,0.5,2,0.8,3c0.2,0.6,0.4,1.2,0.5,1.8l0,0.1L3.8,31.7z"/>
	
		<linearGradient id="SVGID_14_" gradientUnits="userSpaceOnUse" x1="15.5965" y1="229.3259" x2="9.9681" y2="234.9545" gradientTransform="matrix(1 0 0 -1 0 279)">
		<stop  offset="0.5" style="stop-color:#606060"/>
		<stop  offset="1" style="stop-color:#464646"/>
	</linearGradient>
	<path class="st14" d="M15.3,49.2c-2.7,0-5-1.9-5.6-4.8l0-0.1h0.2c0.9,0.1,1.9,0.2,2.8,0.3h0.1v0.1c0.2,1.9,1.6,3.6,3.4,4.3l0,0.2
		C15.8,49.2,15.6,49.2,15.3,49.2z"/>
	
		<linearGradient id="SVGID_15_" gradientUnits="userSpaceOnUse" x1="19.8882" y1="230.7053" x2="14.7158" y2="235.8775" gradientTransform="matrix(1 0 0 -1 0 279)">
		<stop  offset="0.5" style="stop-color:#606060"/>
		<stop  offset="1" style="stop-color:#464646"/>
	</linearGradient>
	<path class="st15" d="M17.6,48.8c-2.2,0-4.2-1.7-4.5-4v-0.1h0.1c2.4,0.3,4.9,0.6,7.3,0.9l1.5,0.2l-0.1,0.1
		c-0.7,1.4-1.8,2.3-3.2,2.8C18.4,48.8,18,48.8,17.6,48.8z"/>
	
		<linearGradient id="SVGID_16_" gradientUnits="userSpaceOnUse" x1="27.7637" y1="228.7768" x2="9.7988" y2="246.7417" gradientTransform="matrix(1 0 0 -1 0 279)">
		<stop  offset="0.5" style="stop-color:#D6D6D6"/>
		<stop  offset="1" style="stop-color:#AAAAAA"/>
	</linearGradient>
	<path class="st16" d="M30.8,46.3c-1.1,0-2.3-0.2-3.4-0.3c-0.5-0.1-1-0.2-1.5-0.2l-2.3-0.3c-4.7-0.5-9.7-1.1-14.5-1.7l-0.8-0.1
		c-1.6-0.2-3.1-0.4-4.7-0.7c-1.2-0.3-2.1-0.7-2.4-1.7L1,41l0.2,0.2c0.6,0.4,1.5,0.5,2.1,0.7l0.3,0c0.9,0.2,1.9,0.3,2.8,0.5
		c2.9,0.5,5.7,0.9,8.1,1.2c3.2,0.4,6,0.8,8.7,1.1l0.7,0.1c1.6,0.2,3.2,0.3,4.8,0.4c0.2,0,0.3,0,0.5,0c0.2,0,0.4,0,0.6,0
		c0.3,0,0.7,0,1.2-0.2c0.7-0.3,0.9-1.2,1-1.8c0.5-2.2,0.3-4.5-0.4-6.3l-0.1-0.2l0.2,0.1c0.3,0.1,0.5,0.3,0.7,0.5
		c0.7,0.7,0.7,1.9,0.7,2.9v0.2c0,2.1,0,4.4-1.4,6c0,0,0,0,0,0l0,0l-0.1,0C31.4,46.3,31.1,46.3,30.8,46.3z"/>
	
		<linearGradient id="SVGID_17_" gradientUnits="userSpaceOnUse" x1="31.7276" y1="230.9189" x2="8.6236" y2="254.0229" gradientTransform="matrix(1 0 0 -1 0 279)">
		<stop  offset="0.5" style="stop-color:#FE9C0E"/>
		<stop  offset="1" style="stop-color:#FE7F00"/>
	</linearGradient>
	<path class="st17" d="M32.4,46c1-1.4,1.1-3.1,1.2-4.8v-0.3c0-1.5,0.1-3-0.8-4.1C32.3,36,31.2,36,30.2,36c-0.2,0-0.5,0-0.7,0
		c-0.2,0-0.4,0-0.6,0c-0.1,0-0.2,0-0.3,0c-2.1-0.1-4.1-0.2-6-0.3c-4.3-0.2-8.9-0.5-13.5-0.8c-0.7,0-1.4-0.1-2.1-0.1
		c-1.8-0.1-3.7-0.2-5.5-0.5H1.5V32h0.1c0.4,0,0.7,0.1,1.1,0.1c0.3,0,0.5,0,0.8,0c2.1,0.2,4.1,0.3,6.2,0.4c4.7,0.3,9.5,0.5,14.4,0.8
		c1.6,0.1,2.8,0.1,4,0.1c1.8,0,3.5-0.1,5.1-0.3h0.1l0,0c1,1.6,1.2,3.9,1.3,5.8l0,0.5c0,0.2,0,0.3,0,0.6c0.2,1.9,0.3,4.4-0.7,5.9
		c0,0,0,0,0,0v0h0c-0.4,0.1-0.9,0.2-1.2,0.2l-0.2,0L32.4,46z"/>
	
		<linearGradient id="SVGID_18_" gradientUnits="userSpaceOnUse" x1="41.5754" y1="225.2079" x2="33.7269" y2="233.0566" gradientTransform="matrix(1 0 0 -1 0 279)">
		<stop  offset="0.5" style="stop-color:#606060"/>
		<stop  offset="1" style="stop-color:#464646"/>
	</linearGradient>
	<path class="st18" d="M40.7,53.4c-0.6,0-1.2,0-1.8-0.1h-0.3c-3.6-0.2-5.4-3.6-5.4-6.7v-0.1h0.1c1.2-0.2,2.4-0.6,3.4-1h0
		c0,0,0,0,0.1,0l0.7-0.2v0.1c0,2.8,1.2,5.4,3.1,6.9c0.5,0.3,0.9,0.6,1.5,0.8v0.2C41.6,53.4,41.2,53.4,40.7,53.4z"/>
	
		<linearGradient id="SVGID_19_" gradientUnits="userSpaceOnUse" x1="51.7882" y1="236.4392" x2="43.2227" y2="245.0047" gradientTransform="matrix(1 0 0 -1 0 279)">
		<stop  offset="0.5" style="stop-color:#EF5401"/>
		<stop  offset="1" style="stop-color:#DE2201"/>
	</linearGradient>
	<path class="st19" d="M48.6,44.7c0.1-1.7,0-3.4-0.4-5.1c-0.5-2-2.6-4.7-4.8-4.7c-0.3,0-0.7,0.1-0.9,0.2l-0.3,0.1l0.2-0.3
		c0.3-0.4,0.7-0.8,1.2-1.1c0.8-0.6,1.7-0.9,2.6-1.1c0.2,0,0.4-0.1,0.6-0.2h0h0c2,1,2.2,2.8,2.4,4.7c0,0.3,0,0.5,0.1,0.8
		c0.3,2.6,0.5,4.6,0.5,6.5v0.1h-0.1c-0.3,0.1-0.7,0.1-1,0.2L48.6,44.7L48.6,44.7z"/>
	
		<linearGradient id="SVGID_20_" gradientUnits="userSpaceOnUse" x1="53.7982" y1="229.5548" x2="49.1405" y2="234.2124" gradientTransform="matrix(1 0 0 -1 0 279)">
		<stop  offset="0.5" style="stop-color:#606060"/>
		<stop  offset="1" style="stop-color:#464646"/>
	</linearGradient>
	<path class="st20" d="M53.8,49.5c-0.3,0-0.6,0-0.9,0c-0.2,0-0.5,0-0.7,0c-2-0.1-3.3-1.6-3.5-4l0-0.1l0.1,0c0.4,0,0.8-0.1,1.2-0.2
		c0.1,0,0.1,0,0.1-0.1v0v-0.1c0-0.3,0-0.6,0-0.9v-0.1h0.1c0.1,0,0.3,0,0.4,0c0,0,0.3,0,0.3,0v0.1c0,1.9,0.9,4.3,2.9,5.4L53.8,49.5z"
		/>
	
		<linearGradient id="SVGID_21_" gradientUnits="userSpaceOnUse" x1="59.0747" y1="236.9872" x2="48.3383" y2="247.7236" gradientTransform="matrix(1 0 0 -1 0 279)">
		<stop  offset="0.5" style="stop-color:#EF5401"/>
		<stop  offset="1" style="stop-color:#DE2201"/>
	</linearGradient>
	<path class="st21" d="M50.7,43.4c-0.2,0-0.3,0-0.4,0h-0.1v-0.1c-0.1-1.7-0.3-3.7-0.6-6l0-0.4c-0.2-1.8-0.4-3.4-2.1-4.4l-0.2-0.1
		l0.3-0.1c0.2-0.1,0.3-0.2,0.4-0.2h0h0c2.7-0.3,5.7-0.6,9.1-0.9c3.6,0.2,3.6,5.4,3.6,8.5c0,0.2,0,0.5,0,0.7v0.1c0,0-0.5,0-0.7,0.1
		H60v-0.1c0-2.9-0.6-6.4-3.3-7.1c-0.2,0-0.3,0-0.5,0c-2.1,0-3.6,2.9-3.9,3.5c-1,2-0.9,4.3-0.8,6.6v0.1h-0.2
		C51.1,43.4,50.9,43.4,50.7,43.4z"/>
	
		<linearGradient id="SVGID_22_" gradientUnits="userSpaceOnUse" x1="65.0712" y1="237.0321" x2="61.9224" y2="240.1812" gradientTransform="matrix(1 0 0 -1 0 279)">
		<stop  offset="0.5" style="stop-color:#FEE7A5"/>
		<stop  offset="1" style="stop-color:#FEBD57"/>
	</linearGradient>
	<path class="st22" d="M59.9,41.7c0-0.2,0-0.5,0-0.8v-0.1H60c0.1,0,0.2,0,0.4,0c0.2,0,0.4,0,0.6,0c0,0,0,0,0.1,0
		c0.1,0,0.2-0.1,0.2-0.2c0-0.2,0-0.4,0-0.7v-0.1h0.1c0.9-0.2,1.7-0.4,2.6-0.5c0.9-0.2,1.7-0.3,2.6-0.5l0.1,0v0.1c0,0.4,0,0.8,0,1.2
		v0.5h-0.1c-2.2,0.5-4.4,0.9-6.5,1.3L59.9,41.7L59.9,41.7z"/>
	
		<linearGradient id="SVGID_23_" gradientUnits="userSpaceOnUse" x1="69.4374" y1="233.8154" x2="65.1522" y2="238.1006" gradientTransform="matrix(1 0 0 -1 0 279)">
		<stop  offset="0.5" style="stop-color:#606060"/>
		<stop  offset="1" style="stop-color:#464646"/>
	</linearGradient>
	<path class="st23" d="M68.2,45c-2.2,0-3-1.4-3.4-3.6v-0.1l0.1,0c0.8-0.2,1.4-0.3,2-0.5c0.1,0,0.1,0,0.1-0.1l0.1-0.3l0,0.3
		c0.2,1,0.7,3.3,2.2,4l0.3,0.2l-0.3,0C69,44.9,68.7,44.9,68.2,45L68.2,45z"/>
	
		<linearGradient id="SVGID_24_" gradientUnits="userSpaceOnUse" x1="74.4652" y1="236.0876" x2="72.8567" y2="237.6961" gradientTransform="matrix(1 0 0 -1 0 279)">
		<stop  offset="0.5" style="stop-color:#606060"/>
		<stop  offset="1" style="stop-color:#464646"/>
	</linearGradient>
	<path class="st24" d="M73,42.6c0.2-0.5,0.3-1.1,0.4-1.8h0.2c0.2,0.8,0.5,1.4,0.9,1.8l0.2,0.2H74c-0.3,0-0.6,0-0.9,0h-0.2L73,42.6z"
		/>
	
		<linearGradient id="SVGID_25_" gradientUnits="userSpaceOnUse" x1="80.4807" y1="243.3743" x2="73.6917" y2="250.1634" gradientTransform="matrix(1 0 0 -1 0 279)">
		<stop  offset="0.5" style="stop-color:#EF5401"/>
		<stop  offset="1" style="stop-color:#DE2201"/>
	</linearGradient>
	<path class="st25" d="M78.9,36.5c0-0.3,0-0.7,0-0.9c-0.1-1.2-0.5-4.1-2.5-4.6c-0.1,0-0.2,0-0.3,0c-0.7,0-1.2,0.6-1.5,1.7h-0.2
		c-0.3-1.2-0.7-2.1-1.4-2.6l-0.2-0.2h0.2c1.2-0.1,2.4-0.2,3.6-0.3c0.1,0,0.1,0,0.2-0.1c0,0,0.2-0.2,0.2-0.2h0
		c2.8,0.8,2.8,4.9,2.7,7.1v0.1h-0.1c-0.2,0-0.3,0-0.5,0L78.9,36.5L78.9,36.5z"/>
	<path class="st9" d="M34.2,25.3c-0.3,0-0.6,0-0.9,0h-0.1l0-0.6h0.1c1.9,0,3.8-0.1,5.4-1.1c1.3-0.8,1.9-2.1,2.1-4
		c0.2-2.7,0.1-5.5,0.1-8.2c0-1.2,0-2.6-0.1-3.8V7.5l0.8,0.1v0.1c0,2.7,0,5.5,0,8.2v2.9c0,2.8-0.9,4.7-2.8,5.7
		C37.4,25.2,35.7,25.3,34.2,25.3z"/>
	
		<linearGradient id="SVGID_26_" gradientUnits="userSpaceOnUse" x1="41.5647" y1="258.3488" x2="30.5637" y2="269.3498" gradientTransform="matrix(1 0 0 -1 0 279)">
		<stop  offset="0.25" style="stop-color:#CDDEF0"/>
		<stop  offset="0.5" style="stop-color:#E9F0FF"/>
		<stop  offset="1" style="stop-color:#9BB1C4"/>
	</linearGradient>
	<path class="st26" d="M33.2,24.5v-0.1c0.1-1.8,0.2-3.6,0.2-5.3V19h0.2c0.7,0,1.5-0.2,2.1-0.4c1-0.3,1.1-1.4,1.1-2.3
		c0.1-1.3,0.1-2.7,0.1-4.5v-0.3c0-0.9,0-1.8-0.3-2.7c-0.4-1-1.7-1-2.6-1h-0.2V7.7c0-0.4,0-0.8,0-1.2V6.4h0.1
		c1.4,0.2,2.8,0.5,4.1,0.7c0.8,0.1,1.6,0.2,2.4,0.4h0.1v0.1c0,1.3,0,2.6,0,3.9c0,2.4,0.1,4.9,0,7.3c-0.1,1.7-0.3,3.4-1.9,4.6
		c-1.6,1.2-3.8,1.2-5.4,1.2L33.2,24.5L33.2,24.5z"/>
	
		<linearGradient id="SVGID_27_" gradientUnits="userSpaceOnUse" x1="37.907" y1="263.1431" x2="32.8265" y2="268.2235" gradientTransform="matrix(1 0 0 -1 0 279)">
		<stop  offset="0.5" style="stop-color:#D6D6D6"/>
		<stop  offset="1" style="stop-color:#AAAAAA"/>
	</linearGradient>
	<path class="st27" d="M35.2,18.1c0.2-0.5,0.2-0.9,0.3-1.5v-0.2c0.1-1.2,0.2-2.3,0.2-3.3c0-1,0-2-0.1-3V10c0-0.5-0.1-1-0.3-1.5
		l-0.1-0.2l0.2,0c1,0.3,1,1.5,1.1,2.3c0,1.7,0,3.4-0.1,5.4c0,1-0.2,1.8-1.1,2.2l-0.2,0.1L35.2,18.1z"/>
	
		<linearGradient id="SVGID_28_" gradientUnits="userSpaceOnUse" x1="36.9538" y1="262.6303" x2="30.9169" y2="268.6672" gradientTransform="matrix(1 0 0 -1 0 279)">
		<stop  offset="0.5" style="stop-color:#636363"/>
		<stop  offset="1" style="stop-color:#878787"/>
	</linearGradient>
	<path class="st28" d="M33.3,18.5c-0.2,0-0.4-0.1-0.6-0.2c-0.4-0.4-0.3-1.2-0.3-1.7c0-0.1,0-0.2,0-0.3c0-1.5,0.1-3.1,0.2-4.5
		c0-0.8,0.1-1.6,0.1-2.4c0-0.7,0-1.1,0.9-1.1c0,0,0.1,0,0.1,0c0.5,0,0.9,0,1.4,0.1h0l0,0c0.3,0.6,0.3,1.3,0.3,1.8
		c0.1,1,0.1,1.9,0.1,2.6c0,0.7,0,1.4-0.1,2c0,0.3,0,0.5,0,0.8c0,0.1,0,0.2,0,0.4c0,0.8-0.1,1.6-0.5,2.3l0,0h0c-0.1,0-0.2,0-0.3,0
		C34.2,18.5,33.8,18.5,33.3,18.5z"/>
	
		<linearGradient id="SVGID_29_" gradientUnits="userSpaceOnUse" x1="43.6101" y1="249.2908" x2="11.9371" y2="280.9637" gradientTransform="matrix(1 0 0 -1 0 279)">
		<stop  offset="0.5" style="stop-color:#FE9C0E"/>
		<stop  offset="1" style="stop-color:#FE7F00"/>
	</linearGradient>
	<path class="st29" d="M28.3,33c-1.7,0-3.4-0.1-5.3-0.2l-0.6,0l0.1-0.1c0.3-0.7,0.7-1.3,1.1-1.9c0.3-0.5,0.5-0.9,0.8-1.4
		c0.5-0.9,1-1.9,1.2-2.9c0.3-1.9,0.3-3.9,0.3-5.8v-1H26c1-0.2,1.8-0.5,2.4-1c1.2-0.9,1.5-2.6,1.7-3.8c0.3-2.7,0.7-5.4,0.9-8.1l0.1,0
		l-0.1,0v0c0,0,0,0,0,0l0,0h0c-0.6-0.1-1.2-0.1-1.9-0.1c-0.9,0-1.9,0.1-2.8,0.2c-0.5,0-0.9,0.1-1.4,0.1c-2.6,0.2-5.2,0.3-7.6,0.5
		c-1.6,0.1-3.3,0.3-4.9,0.4C9.7,7.9,7.1,8.1,4.5,8.3h0h0C3.8,7.9,3.5,7.5,3.5,7.1s0.3-0.9,0.9-1.2C5,5.4,5.9,5.3,6.7,5.2
		c0.2,0,0.4,0,0.5-0.1c1.6-0.2,3.1-0.4,4.6-0.5c2.9-0.3,6.1-0.7,9.2-1l1.1-0.1c2.2-0.2,4.5-0.5,6.8-0.5c1,0,1.9,0,2.8,0.1
		c3.3,0.3,6.6,1,9.6,1.6C41.8,4.9,42.4,5,43,5.2C44,5.4,44.1,6,44.2,7c0.1,0.7,0.1,1.4,0.2,2.1l0,0.5c0.2,2.4,0.3,4.8,0.4,7.3
		c0,1,0.1,2,0.2,3c0.2,2.7,0.3,5.5,0.3,8.2v0.1h-0.1c-0.3,0-0.5,0-0.8,0.1c-1.9,0.2-4.1,0.3-5.6,1.5c-0.4,0.3-0.7,0.7-0.9,1.1
		c-0.3,0.4-0.6,0.9-1,1.2c-0.6,0.5-1.8,0.6-2.7,0.7c-0.3,0-0.5,0-0.8,0.1C31.8,32.9,30.1,33,28.3,33z M42.4,24.9
		c-0.5,0-1.1,0.2-1.4,0.2l0,0c-0.3,0.2-0.7,0.8-0.8,1.4c0,0.2,0,0.5,0.2,0.7c0.2,0.2,0.4,0.2,0.7,0.2h0.1c0.7,0,1.2-0.1,1.7-0.2
		c0.4-0.1,0.5-0.3,0.6-0.7c0-0.4,0-1-0.2-1.4C43.1,25,42.7,24.9,42.4,24.9z M33.6,6C33.6,6,33.6,6,33.6,6c-0.1,0-0.1,0-0.1,0
		c-0.1,0-0.1,0.1-0.1,0.2c0,0.4,0,0.9,0,1.3v0.3h-0.1c-0.9,0-1,0.4-1,1.6c0,0.9-0.1,1.7-0.1,2.6c0,1.1-0.1,2.1-0.1,3.2
		c0,0.2,0,0.4,0,0.7c-0.1,1-0.2,2.3,0.5,2.9c0.1,0.1,0.2,0.2,0.4,0.2l0.1,0V19c-0.1,2.1-0.2,4.3-0.2,6.5c0,0.1,0,0.2,0.1,0.2
		c0,0,0.1,0,0.1,0c0.2,0,0.4,0,0.7,0c3.2,0,7.1-0.5,8.1-4.5c0.4-1.4,0.3-2.9,0.3-4.4c0-0.5,0-1,0-1.4c0-2.4,0-5,0-8.1
		c0-0.1,0-0.2-0.2-0.2c-1.2-0.2-2.5-0.4-3.7-0.6C36.7,6.4,35.2,6.2,33.6,6L33.6,6V5.9V6V5.9V6z"/>
	
		<linearGradient id="SVGID_30_" gradientUnits="userSpaceOnUse" x1="42.6868" y1="251.8942" x2="41.1311" y2="253.4501" gradientTransform="matrix(1 0 0 -1 0 279)">
		<stop  offset="0.5" style="stop-color:#D6D6D6"/>
		<stop  offset="1" style="stop-color:#AAAAAA"/>
	</linearGradient>
	<path class="st30" d="M41,27.1c-0.2,0-0.4-0.1-0.4-0.3c-0.1-0.3,0.2-1,0.5-1.2c0.4-0.2,0.8-0.2,1.2-0.2h0.1c0,0,0.1,0,0.2,0
		c0.2,0,0.4,0,0.5,0.4c0.2,0.8,0.1,0.9,0,1c-0.4,0.3-1.1,0.3-1.6,0.3h-0.1C41.2,27.1,41.1,27.1,41,27.1z"/>
	
		<linearGradient id="SVGID_31_" gradientUnits="userSpaceOnUse" x1="23.0888" y1="237.3292" x2="20.4374" y2="239.9806" gradientTransform="matrix(1 0 0 -1 0 279)">
		<stop  offset="0.25" style="stop-color:#CDDEF0"/>
		<stop  offset="0.5" style="stop-color:#E9F0FF"/>
		<stop  offset="1" style="stop-color:#9BB1C4"/>
	</linearGradient>
	<path class="st31" d="M21.9,42.4c-0.5,0-1.1-0.4-1.4-0.7c-0.5-0.6-0.4-1.4-0.3-1.8c0.2-0.9,0.7-1.4,1.4-1.6c0.1,0,0.1,0,0.2,0
		c0.7,0,1.3,0.5,1.6,1.2c0.4,1,0,2.3-0.9,2.8C22.3,42.4,22.1,42.4,21.9,42.4z"/>
	
		<linearGradient id="SVGID_32_" gradientUnits="userSpaceOnUse" x1="28.9967" y1="236.6351" x2="25.8014" y2="239.8305" gradientTransform="matrix(1 0 0 -1 0 279)">
		<stop  offset="0.25" style="stop-color:#CDDEF0"/>
		<stop  offset="0.5" style="stop-color:#E9F0FF"/>
		<stop  offset="1" style="stop-color:#9BB1C4"/>
	</linearGradient>
	<path class="st32" d="M27.5,43.3c-0.7,0-1.3-0.5-1.7-0.9c-0.5-0.7-0.5-1.6-0.4-2.1c0.2-1,0.9-1.7,1.7-1.9c0.1,0,0.2,0,0.2,0
		c0.8,0,1.6,0.6,1.9,1.4c0.5,1.2,0,2.7-1.1,3.3C28,43.2,27.8,43.3,27.5,43.3z"/>
	
		<linearGradient id="SVGID_33_" gradientUnits="userSpaceOnUse" x1="3.5492" y1="240.1462" x2="2.1997" y2="241.4959" gradientTransform="matrix(1 0 0 -1 0 279)">
		<stop  offset="0.25" style="stop-color:#CDDEF0"/>
		<stop  offset="0.5" style="stop-color:#E9F0FF"/>
		<stop  offset="1" style="stop-color:#9BB1C4"/>
	</linearGradient>
	<path class="st33" d="M2.9,39.3c-0.3,0-0.5-0.2-0.6-0.4c-0.2-0.3-0.2-0.8-0.2-1c0.2-0.7,0.5-0.8,0.7-0.8c0.4,0,0.7,0.3,0.7,0.7
		c0.1,0.5,0,1.3-0.5,1.5C3,39.3,2.9,39.3,2.9,39.3z"/>
	
		<linearGradient id="SVGID_34_" gradientUnits="userSpaceOnUse" x1="26.7174" y1="229.8627" x2="6.4762" y2="250.1038" gradientTransform="matrix(1 0 0 -1 0 279)">
		<stop  offset="0.5" style="stop-color:#636363"/>
		<stop  offset="1" style="stop-color:#878787"/>
	</linearGradient>
	<path class="st34" d="M29.8,45c-0.3,0-0.5,0-0.8,0c-0.2,0-0.4,0-0.6,0c-1.6,0-3.1-0.2-4.6-0.4c-0.3,0-0.7-0.1-1.1-0.1
		c-6.2-0.7-11.7-1.4-16.9-2.3c-0.7-0.1-1.3-0.2-2-0.3c-0.3,0-0.6-0.1-0.9-0.2l-0.1,0c-0.5-0.1-1.4-0.3-1.8-0.7l0,0v0
		c0-0.1,0-0.2,0-0.3c-0.1-1.9-0.2-3.9-0.2-5.8v-0.1h0.1c1.6,0.2,3.2,0.3,4.8,0.5c0.5,0,1,0.1,1.4,0.1c3.5,0.3,7.2,0.5,11.7,0.7
		c3.4,0.2,7.1,0.4,10.9,0.5c0.2,0,0.3,0,0.4,0c0.4,0,0.8,0,1.2,0.1h0l0,0c1,2.2,0.9,4.7,0.6,6.3c-0.1,0.6-0.3,1.7-1.3,2.1
		C30.5,45,30.2,45,29.8,45z M27.4,37.9c-1.2,0-2.1,0.9-2.4,2.1c-0.2,1,0.1,2.1,0.7,2.8c0.4,0.5,1,0.8,1.6,0.9c0,0,0.1,0,0.2,0
		c0.6,0,1.1-0.2,1.5-0.7c0.6-0.6,0.9-1.6,0.9-2.5c0-1.2-0.9-2.4-2.2-2.5C27.6,37.9,27.5,37.9,27.4,37.9z M21.8,37.9
		c-1,0-1.8,0.7-2.1,1.8c-0.1,0.9,0.1,1.7,0.6,2.3c0.3,0.4,0.8,0.7,1.4,0.7c0,0,0.1,0,0.1,0c0.5,0,1-0.2,1.3-0.6
		c0.5-0.5,0.8-1.3,0.7-2.2c0-1-0.8-2.1-1.9-2.2C21.9,37.9,21.8,37.9,21.8,37.9z M6.1,37.1c-0.7,0-1.2,0.7-1.3,1.3
		c-0.1,0.5,0,1.4,0.4,1.9c0.2,0.3,0.5,0.4,0.9,0.4c0.3,0,0.6-0.1,0.9-0.3c0.4-0.5,0.6-1.2,0.5-1.7c0-0.7-0.5-1.4-1.2-1.5
		C6.2,37.1,6.2,37.1,6.1,37.1z M2.9,36.7c-0.6,0-1,0.5-1.1,1.1c-0.1,0.5,0,1.2,0.3,1.6c0.2,0.2,0.4,0.3,0.7,0.3
		c0.3,0,0.5-0.1,0.7-0.3C4,39.1,4.1,38.4,4,38c0-0.6-0.4-1.2-1-1.3C2.9,36.7,2.9,36.7,2.9,36.7z"/>
	
		<linearGradient id="SVGID_35_" gradientUnits="userSpaceOnUse" x1="6.9656" y1="239.3637" x2="5.3124" y2="241.0169" gradientTransform="matrix(1 0 0 -1 0 279)">
		<stop  offset="0.25" style="stop-color:#CDDEF0"/>
		<stop  offset="0.5" style="stop-color:#E9F0FF"/>
		<stop  offset="1" style="stop-color:#9BB1C4"/>
	</linearGradient>
	<path class="st35" d="M6.1,40.2c-0.3,0-0.6-0.3-0.7-0.5c-0.3-0.4-0.2-0.9-0.2-1.2c0.2-0.6,0.5-1,0.9-1h0c0.5,0,0.7,0.4,0.9,0.9
		c0.2,0.6,0,1.6-0.7,1.9C6.3,40.2,6.2,40.2,6.1,40.2z"/>
	
		<linearGradient id="SVGID_36_" gradientUnits="userSpaceOnUse" x1="21.4113" y1="245.3631" x2="6.3716" y2="260.4026" gradientTransform="matrix(1 0 0 -1 0 279)">
		<stop  offset="0.5" style="stop-color:#FEE7A5"/>
		<stop  offset="1" style="stop-color:#FEBD57"/>
	</linearGradient>
	<path class="st36" d="M22.1,32.8c-6-0.3-11-0.6-15.7-0.9l-0.4,0c-0.7,0-1.3-0.1-1.9-0.1H4v-0.1c-0.2-0.7-0.4-1.3-0.6-1.9
		c-0.3-0.9-0.5-1.7-0.7-2.6c-0.2-1.1-0.2-2.2-0.2-3.3c0-0.3,0-0.6,0-0.9v-0.4h0.1c3.8,0,7.6,0,11.4,0c3.9,0,7.8,0,11.6,0h0.1v0.1
		c0,1.4-0.1,2.6-0.2,3.8c-0.1,1.1-0.7,2.1-1.2,3c-0.3,0.5-0.6,1-0.9,1.6c-0.3,0.6-0.7,1.2-1.1,1.9l0,0L22.1,32.8z M22.2,24.1
		c-2.9,0-5.8,0-8.7,0s-5.8,0-8.7,0c0,0-0.1,0-0.1,0c-0.1,0-0.1,0.1-0.1,0.2c0,0.2,0,0.4,0,0.6c0.2,1.6,0.3,3.6,1.4,4.8
		c0.2,0.2,0.3,0.3,0.5,0.3c1.6,0.2,3.2,0.3,5.2,0.4c1.4,0.1,2.8,0.1,4.1,0.2l1.3,0c0.1,0,0.2,0,0.3,0c0.2,0,0.4,0,0.6,0
		c0.4,0,1,0,1.5-0.3c1.5-0.8,2.1-3.3,2.6-5c0.1-0.3,0.2-0.7,0.3-1c0-0.1,0-0.1,0-0.2C22.3,24.2,22.2,24.1,22.2,24.1z"/>
	<path class="st9" d="M20,29.4c-2.6-0.1-5.5-0.2-8.3-0.2h-0.3c-1,0-2-0.1-3-0.1c-0.6,0-1.3-0.2-1.6-0.9c-0.3-0.9-0.5-1.9-0.5-2.9
		c0-0.2-0.1-0.6-0.1-0.6h0.1c2.4,0,4.8,0,7.2,0c2.8,0,5.5,0,8.3,0h0.1l-0.2,0.7C21.3,26.6,20.9,28.2,20,29.4L20,29.4L20,29.4z"/>
	
		<linearGradient id="SVGID_37_" gradientUnits="userSpaceOnUse" x1="16.4914" y1="246.054" x2="6.5476" y2="255.9979" gradientTransform="matrix(1 0 0 -1 0 279)">
		<stop  offset="0.25" style="stop-color:#CDDEF0"/>
		<stop  offset="0.5" style="stop-color:#E9F0FF"/>
		<stop  offset="1" style="stop-color:#9BB1C4"/>
	</linearGradient>
	<path class="st37" d="M18.1,30.3c-0.2,0-0.4,0-0.6,0c-0.2,0-0.3,0-0.4,0l-1.4,0c-1,0-2-0.1-2.9-0.1c-1.5,0-2.8-0.1-4.1-0.2
		c-0.1,0-0.3,0-0.5,0c-0.7,0-1.5,0-1.8-0.3c-1-0.9-1.2-3.1-1.3-4.5l0-0.5h1L6,25c0.1,1,0.2,2.1,0.5,3c0.2,0.6,0.5,0.9,0.9,1
		c0.6,0.2,1.3,0.2,1.9,0.2H10c0.2,0,0.3,0,0.5,0c3.1,0.1,6.2,0.2,9.2,0.3h0.2l-0.2,0.2c-0.1,0.1-0.1,0.2-0.2,0.2
		C19.2,30.3,18.6,30.3,18.1,30.3z"/>
	
		<linearGradient id="SVGID_38_" gradientUnits="userSpaceOnUse" x1="74.1915" y1="246.7102" x2="52.3699" y2="268.5317" gradientTransform="matrix(1 0 0 -1 0 279)">
		<stop  offset="0.5" style="stop-color:#FE9C0E"/>
		<stop  offset="1" style="stop-color:#FE7F00"/>
	</linearGradient>
	<path class="st38" d="M49.7,29.7c-0.2-5.3-0.2-10.8-0.2-16.3v-0.1h0.1c3.2,0.3,6.4,0.5,9.5,0.7c6.7,0.5,13.6,1,20.4,1.8h0.1v0.1
		c0,2.1,0,4.2-0.1,6.2c0,1.6-0.1,3.2-0.1,4.8V27h-0.1c-7.8,1-15.9,1.7-23.6,2.3c-2,0.2-3.9,0.3-5.9,0.5L49.7,29.7L49.7,29.7z
		 M51.6,15.3c0,0-0.1,0-0.1,0c0,0-0.1,0.1,0,0.2c0.2,2.8,0.2,5.6,0.1,8.3c0,1.2,0,2.4,0,3.6c0,0,0,0.1,0,0.1c0,0.1,0.1,0.1,0.2,0.1
		c8.8-0.5,17.6-1,26-1.7h0l0.1,0.1l0-0.1c0.1,0,0.1-0.1,0.1-0.2v-8.5c0-0.1,0-0.2-0.1-0.2h0c0,0,0,0-0.1,0c-1.4-0.1-2.7-0.2-4-0.2
		C66.4,16.5,58.9,16,51.6,15.3v-0.1V15.3z"/>
	
		<linearGradient id="SVGID_39_" gradientUnits="userSpaceOnUse" x1="72.6598" y1="248.5905" x2="60.2805" y2="260.9698" gradientTransform="matrix(1 0 0 -1 0 279)">
		<stop  offset="0.5" style="stop-color:#FEE7A5"/>
		<stop  offset="1" style="stop-color:#FEBD57"/>
	</linearGradient>
	<path class="st39" d="M51.9,26.4L51.9,26.4c2.3,0,4.6-0.2,6.9-0.4c1.1-0.1,2.1-0.2,3.2-0.2l3.3-0.2c3.3-0.2,6.7-0.4,10.1-0.6l0.3,0
		c0.3,0,0.6,0,0.9,0h0l0.1,0h-0.1c0-0.8,0-1.6,0-2.5c0-1.6-0.1-3.3,0-4.8v-0.1l0.9,0l0,0.1v8h-0.1c-8.3,0.7-16.8,1.2-25.4,1.7h-0.1
		L51.9,26.4z"/>
	
		<linearGradient id="SVGID_40_" gradientUnits="userSpaceOnUse" x1="71.8433" y1="249.5234" x2="55.0025" y2="266.3643" gradientTransform="matrix(1 0 0 -1 0 279)">
		<stop  offset="0.5" style="stop-color:#EF5401"/>
		<stop  offset="1" style="stop-color:#DE2201"/>
	</linearGradient>
	<path class="st40" d="M51.9,26.2c0-0.8,0-1.5,0-2.3c0-2.6,0.1-5.4-0.1-8v-0.1H52c7.2,0.7,14.7,1.1,21.8,1.5l2.7,0.2v0.1
		c-0.1,1.6-0.1,3.3,0,4.9c0,0.8,0,1.6,0,2.3v0.1h-0.1c-2.3,0-4.7,0.2-6.9,0.4c-1.1,0.1-2.2,0.2-3.2,0.2l-3.6,0.2
		c-3.2,0.2-6.5,0.4-9.8,0.6h-0.2c-0.2,0-0.5,0-0.7,0L51.9,26.2L51.9,26.2z"/>
	
		<linearGradient id="SVGID_41_" gradientUnits="userSpaceOnUse" x1="48.1879" y1="229.8884" x2="38.3837" y2="239.6927" gradientTransform="matrix(1 0 0 -1 0 279)">
		<stop  offset="0.5" style="stop-color:#606060"/>
		<stop  offset="1" style="stop-color:#464646"/>
	</linearGradient>
	<path class="st41" d="M43.2,52.9c-0.9,0-2-0.5-2.9-1.3c-1.7-1.6-2.4-4.3-2.4-6.3l0-0.1l0.1,0c1.6-0.7,1.9-2.7,2.2-4.5
		c0.1-0.7,0.2-1.4,0.4-2c0.2-0.9,0.6-1.6,0.9-2.3v0h0c0,0,0,0,0.1,0c0.5-0.5,1.1-0.8,1.8-0.8c1.4,0,2.7,1,3.4,2
		c0.9,1.3,1.2,2.9,1.3,4.1c0.5,3.8-0.4,7.5-2.4,10c-0.3,0.3-0.5,0.6-0.9,0.9C44.3,52.7,43.8,52.9,43.2,52.9z M44,38.5
		c-0.9,0-1.6,0.7-2.2,2c-0.9,2.1-1.4,5.2-0.3,7.6c0.2,0.3,0.4,0.8,0.8,1.2c0.4,0.3,0.8,0.5,1.2,0.5c0.1,0,0.2,0,0.2,0
		c0.9-0.1,1.7-0.8,2.2-2.1c0.5-1.1,0.7-2.4,0.8-4c0.1-1.9-0.2-3.3-0.8-4.2c-0.4-0.6-1.1-1-1.8-1L44,38.5z"/>
	<path class="st9" d="M41,45.9c-0.1-1.1,0-2.2,0.2-3.4v-0.1h0.1c0.7,0,1.4,0.3,1.7,0.7c0.3,0.4,0.4,0.9,0.3,1.5
		c-0.2,1-1.6,1.2-2.2,1.3L41,45.9L41,45.9z"/>
	
		<linearGradient id="SVGID_42_" gradientUnits="userSpaceOnUse" x1="45.8361" y1="232.1722" x2="40.4873" y2="237.521" gradientTransform="matrix(1 0 0 -1 0 279)">
		<stop  offset="0.5" style="stop-color:#636363"/>
		<stop  offset="1" style="stop-color:#878787"/>
	</linearGradient>
	<path class="st42" d="M42.6,49.3c-0.1,0-0.2,0-0.2,0h0l0,0c-0.6-0.6-0.9-1.6-1-1.9c-0.1-0.3-0.2-0.7-0.2-1.2V46h0.1
		c1.1-0.2,2.3-0.5,2.4-1.7c0-0.5-0.1-0.9-0.4-1.3c-0.4-0.4-1-0.7-1.7-0.7h-0.1l0-0.1c0.2-0.5,0.3-1.1,0.5-1.6
		c0.4-0.9,0.9-1.4,1.4-1.7h0h0c2.1,0.3,2.1,3.3,2.1,4.8c0,0.9-0.1,3.7-1.4,5C43.6,49,43.1,49.3,42.6,49.3z"/>
	
		<linearGradient id="SVGID_43_" gradientUnits="userSpaceOnUse" x1="46.8017" y1="231.8525" x2="40.9225" y2="237.7317" gradientTransform="matrix(1 0 0 -1 0 279)">
		<stop  offset="0.5" style="stop-color:#D6D6D6"/>
		<stop  offset="1" style="stop-color:#AAAAAA"/>
	</linearGradient>
	<path class="st43" d="M43.5,49.7c-0.2,0-0.5-0.1-0.7-0.2l-0.3-0.2l0.3,0c2.6-0.2,2.7-4.8,2.7-5.7c0-1.2,0-4.1-1.7-4.8l-0.3-0.1
		l0.3-0.1c0.1,0,0.2,0,0.3,0h0c0.9,0,1.5,0.7,1.8,1.4c0.5,1,0.6,2.4,0.6,3.8c0,1.2-0.2,2.4-0.7,3.6c-0.4,1.2-1.1,2-1.9,2.3
		C43.8,49.7,43.6,49.7,43.5,49.7z"/>
	
		<linearGradient id="SVGID_44_" gradientUnits="userSpaceOnUse" x1="59.9027" y1="233.2868" x2="51.4456" y2="241.744" gradientTransform="matrix(1 0 0 -1 0 279)">
		<stop  offset="0.5" style="stop-color:#606060"/>
		<stop  offset="1" style="stop-color:#464646"/>
	</linearGradient>
	<path class="st44" d="M55.3,49.2c-0.5,0-0.9-0.1-1.4-0.3c-1.7-0.9-2.6-3.1-2.6-5v-0.1h0.1h0c0.1,0,0.2,0,0.2,0c0,0,0.1,0,0.1,0
		c0.1,0,0.1-0.1,0.1-0.2c-0.1-1.9-0.2-3.4,0.2-5c0.3-1.7,1.9-4.8,4.1-4.8c0.3,0,0.7,0.1,1.1,0.2c2.4,1.1,2.2,5.7,2.2,7.5
		c0,1.7-0.2,4.2-1.4,6.1C57.2,48.6,56.3,49.2,55.3,49.2z M56.3,36.6c-0.7,0-1.4,0.6-1.9,1.7c-1,2.2-1,4.8-0.2,6.8
		c0.3,0.6,0.9,1.3,1.7,1.3c0.1,0,0.2,0,0.3,0c0.7-0.2,1.3-0.8,1.7-1.8c0.4-1,0.6-2.2,0.7-3.6c0-1.6-0.2-2.7-0.7-3.5
		C57.6,36.9,56.9,36.6,56.3,36.6v-0.1V36.6z"/>
	<path class="st9" d="M53.7,42.6c0-0.7,0-1.4,0.1-2.1v-0.1h0.1c0.1,0,0.2,0,0.3,0c0.3,0,0.7,0,1,0.2c0.5,0.2,0.4,0.8,0.4,1.1
		c0,0.9-1,0.9-1.6,0.9h-0.2l-0.1,0V42.6z"/>
	
		<linearGradient id="SVGID_45_" gradientUnits="userSpaceOnUse" x1="57.9191" y1="235.2607" x2="53.2978" y2="239.882" gradientTransform="matrix(1 0 0 -1 0 279)">
		<stop  offset="0.5" style="stop-color:#636363"/>
		<stop  offset="1" style="stop-color:#878787"/>
	</linearGradient>
	<path class="st45" d="M55.2,46.1c-0.7-0.4-1-1.4-1.2-1.9c-0.1-0.4-0.2-0.9-0.3-1.4v-0.1h0.1c1,0,1.8-0.1,1.9-1c0-0.4,0-0.8-0.3-1.2
		c-0.3-0.3-0.8-0.3-1.2-0.3c-0.1,0-0.2,0-0.3,0h-0.1l0-0.1c0.1-0.7,0.3-1.3,0.6-1.9c0.2-0.5,0.7-1.2,1.3-1.5h0h0
		c1.8,0.5,1.6,3.2,1.5,4.5c-0.1,1.2-0.3,4.3-2,4.7l0,0.1H55.2z"/>
	
		<linearGradient id="SVGID_46_" gradientUnits="userSpaceOnUse" x1="58.7515" y1="234.9946" x2="53.6898" y2="240.0563" gradientTransform="matrix(1 0 0 -1 0 279)">
		<stop  offset="0.5" style="stop-color:#D6D6D6"/>
		<stop  offset="1" style="stop-color:#AAAAAA"/>
	</linearGradient>
	<path class="st46" d="M55.8,46.3c-0.1,0-0.2,0-0.2,0l-0.3-0.1l0.3-0.1c1.5-0.6,1.7-3.3,1.8-4.7c0.2-2.5-0.2-4-1.2-4.5l-0.3-0.2
		l0.3,0c0.1,0,0.2,0,0.2,0c0.8,0,1.4,0.7,1.6,1.4c0.7,1.7,0.6,4-0.1,6.1c-0.3,1.1-0.9,1.8-1.6,2.1C56.1,46.2,56,46.3,55.8,46.3z"/>
	
		<linearGradient id="SVGID_47_" gradientUnits="userSpaceOnUse" x1="73.8848" y1="237.2913" x2="67.2219" y2="243.9543" gradientTransform="matrix(1 0 0 -1 0 279)">
		<stop  offset="0.5" style="stop-color:#606060"/>
		<stop  offset="1" style="stop-color:#464646"/>
	</linearGradient>
	<path class="st47" d="M70.3,44.5c-2.2,0-2.7-3.9-2.8-4.4V40h0.1c0.2,0,0.3,0,0.5,0c0.1,0,0.2-0.1,0.2-0.2c0-0.2,0-0.5,0-0.7
		c0.1-2.2,0.2-5,1.6-6.7c0.3-0.3,0.6-0.5,0.9-0.5c1.1,0,1.9,2.6,2.1,3.4c0.2,1.2,0.3,2.4,0.3,3.8c0,0.5,0,0.9-0.1,1.4
		c-0.2,0.8-0.3,1.6-0.6,2.3c0,0,0,0.1,0,0.1c-0.5,1-1.1,1.6-1.9,1.6C70.4,44.5,70.4,44.5,70.3,44.5z M70.7,34.4
		c-0.2,0-0.4,0.1-0.6,0.2c-0.6,0.5-0.8,1.7-0.9,2.4c-0.2,1-0.1,2.1,0.1,3.2c0.1,0.7,0.3,1.7,1.1,2.1c0.1,0.1,0.2,0.1,0.3,0.1
		c0.3,0,0.7-0.3,0.9-0.5c0.5-0.8,0.6-1.8,0.7-2.8c0.1-1.2,0-2.4-0.3-3.6C71.7,35,71.3,34.4,70.7,34.4z"/>
	<path class="st9" d="M69.3,39.3c0-0.6,0-1.2,0-1.7v-0.1l0.3,0c0.4,0.1,0.9,0.2,0.9,0.8c0,0.6-0.3,0.9-1,1.2l-0.1,0V39.3z"/>
	
		<linearGradient id="SVGID_48_" gradientUnits="userSpaceOnUse" x1="72.4407" y1="238.493" x2="68.4187" y2="242.515" gradientTransform="matrix(1 0 0 -1 0 279)">
		<stop  offset="0.5" style="stop-color:#636363"/>
		<stop  offset="1" style="stop-color:#878787"/>
	</linearGradient>
	<path class="st48" d="M70.3,42.3c-0.5-0.3-0.7-1.3-0.9-1.8c-0.1-0.2-0.1-0.5-0.2-0.9v-0.1l0.1,0c0.8-0.2,1.2-0.6,1.2-1.2
		c0-0.7-0.5-0.8-1-0.9l-0.2,0v-0.1c0.1-0.5,0.2-0.9,0.3-1.4c0.1-0.4,0.3-1,0.8-1.3l0.1,0l0,0.1c0.8,0.7,0.9,2.1,1,3.1V38
		c0.1,1.9-0.2,3.3-1,4.1v0l0,0.2L70.3,42.3z"/>
	
		<linearGradient id="SVGID_49_" gradientUnits="userSpaceOnUse" x1="72.8336" y1="238.4623" x2="68.6458" y2="242.6499" gradientTransform="matrix(1 0 0 -1 0 279)">
		<stop  offset="0.5" style="stop-color:#D6D6D6"/>
		<stop  offset="1" style="stop-color:#AAAAAA"/>
	</linearGradient>
	<path class="st49" d="M70.7,42.4C70.7,42.4,70.6,42.4,70.7,42.4l-0.3,0l0.2-0.1c1-1.2,1.1-2.9,1-4.2c0-1-0.1-2.5-0.9-3.3l-0.2-0.2
		h0.2c0.1,0,0.1,0,0.2,0c0.5,0.1,0.8,0.7,0.9,1.2c0.4,1.5,0.5,3.1,0.2,4.7c-0.1,0.7-0.3,1.6-0.9,2C70.9,42.4,70.8,42.4,70.7,42.4z"
		/>
	
		<linearGradient id="SVGID_50_" gradientUnits="userSpaceOnUse" x1="79.0033" y1="238.9595" x2="73.0128" y2="244.9499" gradientTransform="matrix(1 0 0 -1 0 279)">
		<stop  offset="0.5" style="stop-color:#606060"/>
		<stop  offset="1" style="stop-color:#464646"/>
	</linearGradient>
	<path class="st50" d="M75.9,42.6c-0.9,0-1.6-1.2-1.9-1.8c-0.3-0.8-0.4-1.7-0.5-2.6l0-0.2h0.1c0.2,0,0.4-0.1,0.7-0.1l0.2,0
		c0,0,0,0,0.1,0l0,0c0,0,0,0,0-0.1v0c0-0.2,0-0.3,0-0.5c0-0.6,0-1.3,0-2v0v0c0,0,0-0.1,0-0.1c0-1.3,0.2-3.5,1.4-3.5
		c0.2,0,0.3,0,0.5,0.2c1.5,0.7,1.7,3,1.8,4c0.2,1.7,0.2,4.8-1.4,6.5C76.7,42.4,76.3,42.6,75.9,42.6z M76.6,33.3
		c-0.5,0-0.9,0.8-1.1,1.3c-0.4,1.7-0.6,4.1,0.4,5.5c0.2,0.2,0.4,0.3,0.6,0.3c0.1,0,0.2,0,0.2-0.1c0.6-0.3,0.8-1.1,0.9-1.7
		c0.2-0.8,0.2-1.8,0.1-2.9c0-0.8-0.2-1.6-0.6-2.2C77,33.4,76.8,33.3,76.6,33.3z"/>
	<path class="st9" d="M75.4,37.9c0-0.4,0-0.8,0-1.2v-0.1h0.1c0.3,0,0.5,0.2,0.5,0.4c0.1,0.3-0.2,0.7-0.5,0.9l-0.1,0V37.9z"/>
	
		<linearGradient id="SVGID_51_" gradientUnits="userSpaceOnUse" x1="78.0267" y1="240.3169" x2="74.5714" y2="243.7721" gradientTransform="matrix(1 0 0 -1 0 279)">
		<stop  offset="0.5" style="stop-color:#636363"/>
		<stop  offset="1" style="stop-color:#878787"/>
	</linearGradient>
	<path class="st51" d="M76.2,40.3c-0.5-0.4-0.8-1.8-0.8-1.8c0-0.1,0-0.3-0.1-0.4V38l0.2,0h0c0.4-0.2,0.6-0.7,0.5-1
		c0-0.2-0.2-0.5-0.7-0.5h-0.1v-0.1c0-0.6,0.2-1.2,0.3-1.7c0.1-0.3,0.3-0.9,0.6-1.1l0.1-0.1l0,0.1c0.5,0.9,0.5,2,0.5,2.9v0.3v0.5
		c0,0.3,0,0.7,0,1C76.8,39,76.8,39.9,76.2,40.3L76.2,40.3L76.2,40.3z"/>
	
		<linearGradient id="SVGID_52_" gradientUnits="userSpaceOnUse" x1="78.5068" y1="240.3599" x2="74.8634" y2="244.0033" gradientTransform="matrix(1 0 0 -1 0 279)">
		<stop  offset="0.5" style="stop-color:#D6D6D6"/>
		<stop  offset="1" style="stop-color:#AAAAAA"/>
	</linearGradient>
	<path class="st52" d="M76.6,40.3c0.5-0.7,0.4-1.9,0.4-2.7c0-0.2,0-0.3,0-0.5c0-0.2,0-0.3,0-0.5c0-1,0-2.1-0.5-3l-0.1-0.2h0.2
		c0.1,0,0.2,0,0.2,0c0.5,0.2,0.6,0.8,0.7,1.2c0.3,1.2,0.3,2.6,0,4c-0.1,0.5-0.2,1-0.6,1.5c-0.1,0.1-0.2,0.2-0.2,0.2L76.6,40.3z"/>
	<path class="st53" d="M77.3,28.9c0.3-0.4,0.6-0.8,1-1.2c0,0,0,0,0-0.1c0.5,0,0.9-0.1,1.4-0.2c0,0,0,0,0,0c0.1,0,0.2-0.1,0.2-0.3
		c0-3.8,0.2-7.7,0.1-11.6c0-0.2-0.1-0.3-0.2-0.3c0,0,0,0-0.1,0c-10.2-1.1-20.3-1.7-30.5-2.6c-1.4,0-2.8,0.1-4.2,0.1
		c-0.1-1.8-0.2-3.6-0.3-5.3c0-0.7,0-1.8-0.5-2.3c-0.8-0.8-2.2-0.8-3.3-1C40.5,4.1,40,4,39.6,3.9c0-0.6,0.1-1.5-0.5-1.8
		c-1-0.7-2.5-1.1-3.7-1.5c-2.4-0.8-5-0.7-7.6-0.6c-2.6,0.1-5.2,0.3-7.7,0.7c-2,0.3-3.8,0.9-4.5,2.9v0c-2.4,0.3-4.8,0.5-7.2,0.8
		C7,4.6,1.7,4.9,2.9,7.6c0.2,0.5,0.6,0.7,1.1,1C4,8.9,4,9.1,3.9,9.4c-0.9,0-2,0-2.5,0.7c-0.5,0.8-0.5,1.7-0.5,2.7
		c0,1.4,0,2.8,0.1,4.2c0,0.9,0.1,1.7,0.9,2.2c0,0,0,0.1,0,0.1c-1.4,1.1-1.6,1.8-1.7,3.6c-0.1,2.9,0,5.8,0.1,8.7
		c0,0.2,0.1,0.3,0.2,0.3c0.2,0.1,0.4,0.1,0.6,0.2c0,0.7,0,1.4,0,2.1c-0.1,0-0.3,0-0.4,0c0,0,0,0-0.1,0h0c0,0,0,0,0,0
		c-0.1,0-0.3,0.1-0.2,0.3c0.1,1.9,0.1,3.9,0.2,5.8c0,1,0.1,2,1,2.6c1.3,0.9,3.3,0.9,4.7,1.2c1,0.2,2,0.3,2.9,0.4v0
		c0.5,2.9,2.7,5,5.7,5.3c3.2,0.3,6.2-0.9,7.6-3.8v0c0.2,0,0.3,0,0.5,0c2.3,0.3,4.6,0.5,6.9,0.8c0.9,0.1,1.9,0.1,2.8-0.1
		c0.1,3.3,1.8,6.7,5.3,7.1c2.3,0.3,4.8,0.4,6.7-0.8c0.3-0.2,0.6-0.4,0.9-0.7c0,0,0-0.1,0.1-0.1c0.2-0.2,0.5-0.5,0.7-0.8
		c1-1.5,1.7-3.1,2-4.9c0.3,1.2,1,2.2,2,3c0.7,0.4,1.4,0.3,2.1,0.4c1.1,0,2.1,0.1,3.2-0.1c3.2-0.7,3.9-4.7,4.1-7.5
		c1.4-0.3,2.9-0.5,4.3-0.8c0.2,1.2,0.5,2.7,1.6,3.4c0.8,0.6,1.9,0.6,2.9,0.6c1.3,0,2.8-0.3,3.6-1.4c0.2-0.3,0.4-0.6,0.5-0.9
		c0.9,0,1.8,0,2.8-0.1c0.1,0,0.1,0,0.2-0.1c0.1,0,0.2,0,0.3,0c2.4-0.5,2.9-3.6,2.9-6c0.3,0,0.5-0.1,0.8-0.1c0.1,0,0.2,0,0.2-0.1
		c0,0,0,0,0,0c0,0,0.1-0.1,0.1-0.2C80.2,34.1,80.2,30,77.3,28.9z M79.5,15.9c0,3.7-0.1,7.3-0.1,11c-9.8,1.2-19.7,1.9-29.5,2.8
		c-0.2-5.4-0.2-10.9-0.2-16.3C59.6,14.3,69.6,14.9,79.5,15.9z M49.7,30.3c9.3-0.8,18.6-1.4,27.8-2.6c-0.3,0.4-0.7,0.9-1.1,1.3
		c-6.4,0.5-12.8,1-19.2,1.5h0c0,0-0.1,0-0.1,0c-2.8,0.2-5.7,0.5-8.5,0.8c0-0.1,0-0.3,0-0.4C48.9,30.8,49.2,30.5,49.7,30.3z
		 M67.1,38.4C67.1,38.4,67.1,38.4,67.1,38.4c0-0.1,0-0.1,0-0.2s0,0,0-0.1c-0.1-0.1-0.2-0.1-0.3-0.1c-0.1,0-0.2,0-0.3,0.1
		c0-1.7,0.5-4.1-0.7-5.4c-0.5-0.5-1.1-0.9-1.7-1c0.1-0.4,0.3-0.8,0.5-1.1c0,0,0-0.1,0.1-0.1c2.3-0.2,4.7-0.3,7-0.5
		c2.6,0.2,2.5,5.3,2.4,7.3c-0.2,0-0.3,0-0.5,0.1c-0.1-2.3-0.6-6.5-2.9-6c-2.8,0.6-2.8,5.8-2.8,8.1c-0.2,0-0.3,0-0.5,0
		c-0.1,0-0.1,0-0.2,0C67.1,39.2,67.1,38.8,67.1,38.4z M65.7,33.8c0.5,1.2,0.2,3.1,0.2,4.5c-1.5,0.3-3,0.6-4.5,0.9
		c0-2.1-0.1-4.9-1.1-6.8C62.1,32.2,64.7,31.7,65.7,33.8z M59.8,31.9c-0.3-0.3-0.6-0.7-1-0.9c1.7-0.2,3.3-0.3,5-0.4
		c-0.2,0.3-0.3,0.7-0.4,1C62.2,31.5,60.9,31.7,59.8,31.9z M49,13.4c0,5.5,0.1,11,0.2,16.4c-0.3,0.2-0.7,0.4-1,0.6
		c-0.6-1-1.9-1.9-2.5-2.4c0-4.3-0.3-8.7-0.6-13.1c0-0.5,0-1-0.1-1.6C46.4,13.5,47.7,13.4,49,13.4z M37.9,39c0-1.4-0.2-2.8-0.5-4.1
		c-0.2-0.7-0.3-1.6-0.8-2.2c0,0,0.1,0,0.1,0c0.8-0.3,1.2-1.2,1.7-1.8c1.4-2.1,4.8-1.9,7-2.1c0.7,0.5,1.4,1,1.9,1.6
		c1.1,1.2,0,1.6-1,1.9c-1.2,0.3-2.4,0.7-3.4,1.6c-2.6,2.2-3.1,5.6-3.7,8.8c-0.2,1.3-0.8,1.9-1.8,2.3C38.2,43.1,37.9,40.5,37.9,39z
		 M35.1,39.8c-0.1-2.1-0.2-4.8-1.2-6.7c0.7-0.1,1.4-0.2,2.1-0.3c0,0,0,0,0,0c1.3,1.1,1.2,4.3,1.3,5.8c0.1,1.2,0,2.4,0,3.6
		c-0.1,0.9-0.1,2.1-0.7,2.9c-0.7,0.2-1.3,0.4-2,0.6C35.4,44,35.1,41.5,35.1,39.8z M21.4,1.1c2-0.2,4-0.4,6-0.5
		c2.1-0.1,4.1-0.2,6.2,0.1c0.9,0.2,1.9,0.5,2.8,0.8c0.4,0.2,0.9,0.3,1.3,0.5c1,0.4,1.3,0.8,1.3,1.7c-2.7-0.5-5.4-1-8.1-1.2
		c-4-0.3-8.1,0.3-12,0.7c-0.9,0.1-1.7,0.2-2.6,0.3C17.2,1.6,19.5,1.3,21.4,1.1z M4.3,5.8c0.7-0.5,1.9-0.5,2.8-0.6
		c1.5-0.2,3.1-0.4,4.6-0.5c3.1-0.3,6.1-0.7,9.2-1c3.5-0.3,7.1-0.8,10.6-0.5c3.2,0.3,6.4,1,9.6,1.6c0.6,0.1,1.2,0.2,1.7,0.4
		c1,0.2,1,0.8,1.2,1.7c0.1,0.9,0.1,1.7,0.2,2.6c0.2,2.4,0.3,4.9,0.4,7.3c0.2,3.7,0.5,7.5,0.5,11.2c-2.1,0.2-4.8,0.2-6.5,1.6
		c-0.8,0.6-1.1,1.7-1.9,2.3c-0.8,0.6-2.5,0.6-3.4,0.7c-3.6,0.5-7.1,0.3-10.7,0.1c0.6-1.1,1.3-2.2,1.9-3.3c0.5-0.9,1-1.9,1.2-3
		c0.3-2.2,0.2-4.5,0.3-6.7c0.9-0.2,1.7-0.5,2.4-1c1.2-0.9,1.6-2.5,1.7-3.9c0.3-2.7,0.7-5.4,0.9-8.1v0v0v0c0,0,0,0,0-0.1
		c0,0,0,0-0.1,0h0c-2-0.3-4.1,0-6.1,0.1c-2.6,0.2-5.1,0.3-7.6,0.5C12.9,7.6,8.8,8,4.5,8.3C3.3,7.5,3.1,6.7,4.3,5.8z M19.6,19.8
		c1.7,0,4,0.3,6,0c0,0.8,0,1.6,0,2.4c-7.7,0-15.3,0-23,0c0-0.8,0-1.6,0-2.5C8.3,19.8,13.9,19.8,19.6,19.8z M2.4,19.2
		c0-0.2,0.1-0.4,0.2-0.6c4.8,0,9.6,0,14.3,0c2.2,0,4.5,0,6.7,0c1.6,0,3.3,0,4.3-1.4c0.9-1.3,0.9-3.3,1.2-4.7
		c0.3-1.8,0.6-3.6,0.8-5.5c0.2,0,0.4,0,0.5,0.1c-0.2,2.1-0.5,4.3-0.7,6.4c-0.3,2.1-0.5,4.6-2.8,5.4c-1.3,0.5-2.9,0.3-4.3,0.3
		c-1.6,0-3.1,0-4.6,0C12.8,19.2,7.6,19.2,2.4,19.2z M2.6,23.8c0-0.4,0-0.8,0-1.2c7.7,0,15.3,0,23,0c0,1.2-0.1,2.5-0.2,3.8
		c-0.1,1-0.7,2.1-1.2,3c-0.7,1.2-1.4,2.2-2,3.4h0c-5.2-0.3-10.5-0.5-15.7-0.9c-0.8,0-1.6-0.1-2.3-0.2c-0.4-1.5-1-3-1.3-4.5
		C2.6,26,2.6,24.9,2.6,23.8z M4.6,8.8c3.9-0.3,7.8-0.6,11.6-0.9c2.4-0.2,4.9-0.4,7.4-0.5c1.9-0.1,4-0.4,5.9-0.3
		c-0.3,2.6-0.7,5.2-1.2,7.8c-0.2,1.1-0.4,2.3-1.5,3c-0.7,0.5-1.6,0.5-2.4,0.5c-4.7,0-9.4,0-14.1,0c-2.6,0-5.2,0-7.8,0
		C3.3,15.1,3.9,11.9,4.6,8.8z M3.7,10c-0.4,1.9-0.8,3.9-1.2,5.9c0-0.7-0.1-1.4-0.1-2.1c0-1.1-0.1-2.6,0.5-3.6C3.1,10,3.5,10,3.7,10z
		 M1.4,13.4c0-0.7,0-1.4,0-2.1c0-0.7,0.5-1.1,1-1.2C2.1,11,2.1,12,2.1,12.8c0,1.4,0.1,2.8,0.2,4.2c-0.1,0.5-0.2,0.9-0.3,1.4
		C1,17.4,1.4,14.5,1.4,13.4z M0.8,31.4c-0.2,0-0.1-2.3-0.1-2.7c0-2.1-0.1-4.1,0-6.2c0-0.4,0-0.9,0.1-1.3c0.1-0.7,0.7-1,1.3-1.4h0
		c0,0,0.1,0,0.2,0c0,0.9,0,1.7,0,2.6c0,0,0,0.1,0,0.2c0,0.4,0,0.9,0,1.3c0,1,0,2,0.2,3c0.3,1.7,0.9,3.2,1.4,4.8
		c-0.8,0-1.6-0.1-2.4-0.2C1.2,31.4,1,31.4,0.8,31.4z M1.1,40.8c0-0.1,0-0.2,0-0.3c-0.1-1.9-0.2-3.8-0.2-5.8C2.9,35,5,35.1,7.1,35.3
		C11,35.5,15,35.8,18.9,36c3.6,0.2,7.2,0.4,10.9,0.5c0.5,0,1.1,0,1.6,0.1c0.9,1.9,1,4.1,0.5,6.2c-0.2,0.8-0.4,1.7-1.2,2
		c-0.7,0.2-1.6,0-2.2,0c-1.9,0-3.8-0.3-5.7-0.5c-5.7-0.6-11.3-1.4-16.9-2.3c-0.7-0.1-1.3-0.2-2-0.3c-0.3,0-0.6-0.1-0.9-0.2
		C2.5,41.4,1.6,41.2,1.1,40.8z M15.3,49.1c-2.8,0-4.9-2.1-5.5-4.7c0.9,0.1,1.9,0.2,2.8,0.3c0.2,2,1.7,3.7,3.4,4.3
		C15.8,49.1,15.6,49.1,15.3,49.1z M18.7,48.6c-2.5,0.7-5.1-1.2-5.5-3.8c2.9,0.3,5.7,0.7,8.6,1C21,47.2,20,48.1,18.7,48.6z
		 M31.7,46.2c-1.9,0.2-4-0.3-5.8-0.5c-5.6-0.6-11.2-1.2-16.7-2c-1.8-0.2-3.7-0.4-5.5-0.8c-1.2-0.2-2.1-0.6-2.4-1.6
		c0.7,0.5,1.8,0.6,2.4,0.7c0.9,0.2,1.9,0.3,2.8,0.5c2.7,0.4,5.4,0.8,8.1,1.2c2.9,0.4,5.8,0.7,8.7,1.1c1.8,0.2,3.7,0.4,5.5,0.5
		c0.8,0,1.6,0.2,2.3-0.2c0.7-0.3,0.9-1.2,1.1-1.9c0.5-2.1,0.4-4.4-0.4-6.4c0.2,0.1,0.5,0.2,0.7,0.4c0.7,0.7,0.7,2,0.7,2.9
		c0,2.1,0,4.4-1.4,6C31.7,46.1,31.7,46.2,31.7,46.2z M32.5,46.1c1-1.4,1.2-3.1,1.2-4.8c0-1.6,0.2-3.3-0.9-4.6
		c-0.9-1.1-2.9-0.8-4.2-0.9c-2-0.1-4-0.2-6-0.3c-4.5-0.2-9-0.5-13.5-0.8c-2.5-0.2-5-0.2-7.5-0.6c0-0.7,0-1.4,0-2.1
		c0.6,0.1,1.3,0.1,1.9,0.1c2.1,0.2,4.1,0.3,6.2,0.4c4.8,0.3,9.6,0.5,14.4,0.8c3.1,0.2,6,0.2,9.1-0.2c1.1,1.7,1.2,4.3,1.3,6.2
		c0.1,1.8,0.5,4.8-0.6,6.4c0,0,0,0,0,0.1C33.3,45.9,32.9,46,32.5,46.1z M38.6,53.2c-3.5-0.2-5.3-3.4-5.3-6.6c1.2-0.2,2.3-0.6,3.5-1
		c0,0,0.1,0,0.2,0c0.2,0,0.3-0.1,0.5-0.2c0,2.6,1.1,5.4,3.1,7c0.5,0.4,1,0.7,1.5,0.8C40.9,53.4,39.7,53.3,38.6,53.2z M45.7,51.4
		c-0.3,0.3-0.6,0.6-0.9,0.9c-1.4,1-3.1,0.4-4.4-0.8C38.8,50,38,47.4,38,45.2c0,0,0,0,0-0.1c2.3-1.1,2-4.4,2.6-6.6
		c0.2-0.8,0.5-1.6,0.9-2.3c0,0,0.1,0,0.1-0.1c1.6-1.6,4-0.3,5.1,1.2c0.8,1.2,1.2,2.7,1.3,4.1C48.4,44.8,47.8,48.7,45.7,51.4z
		 M48.3,39.6C47.7,37.2,45,34,42.4,35c0.3-0.4,0.7-0.8,1.2-1.1c1-0.7,2.1-0.9,3.2-1.3c2.2,1.1,2.1,3.3,2.4,5.4
		c0.3,2.2,0.5,4.3,0.5,6.5c-0.3,0.1-0.7,0.1-1,0.2C48.8,42.9,48.7,41.2,48.3,39.6z M52.3,49.3c-2.2-0.1-3.2-1.9-3.4-4v0
		c0.4-0.1,0.9-0.2,1.2-0.2c0.1,0,0.2-0.1,0.2-0.2c0,0,0,0,0-0.1c0,0,0,0,0,0v0c0-0.3,0-0.6,0-0.9c0.2,0,0.3,0,0.5,0
		c0,2.1,1,4.5,3,5.5C53.3,49.3,52.8,49.3,52.3,49.3z M59.4,41.4c0,2-0.3,4.3-1.4,6c-1,1.4-2.3,2.2-4,1.3c-1.7-0.8-2.5-3.1-2.5-4.9
		c0.1,0,0.2,0,0.3,0c0,0,0.1,0,0.1,0c0.1,0,0.2-0.1,0.2-0.3c-0.1-1.7-0.2-3.4,0.2-5c0.4-2.1,2.4-5.7,5.1-4.5
		C59.5,35,59.5,39.4,59.4,41.4z M56.6,33.1c-2.1-0.5-3.8,1.9-4.5,3.4c-1,2-0.9,4.5-0.8,6.6c-0.4,0-0.8,0-1.1,0c-0.1-2-0.3-4-0.6-6
		c-0.3-2-0.4-3.8-2.2-4.9c0,0,0.1,0,0.2-0.1c0.2-0.1,0.3-0.2,0.4-0.2c3-0.3,6.1-0.6,9.1-0.9c3.8,0.2,3.5,6.2,3.5,9.1
		c-0.2,0-0.4,0-0.7,0C60,37.5,59.5,33.8,56.6,33.1z M60,41.7c0-0.2,0-0.5,0-0.8c0.3,0,0.7,0,1-0.1c0,0,0.1,0,0.1,0
		c0.1,0,0.2-0.1,0.2-0.3c0-0.2,0-0.4,0-0.7c1.7-0.4,3.5-0.7,5.2-1c0,0.5,0,1,0,1.6C64.3,40.9,62.2,41.3,60,41.7z M68.3,44.9
		c-2.3,0-3-1.4-3.4-3.5c0.7-0.2,1.4-0.3,2-0.5c0.1,0,0.2-0.1,0.2-0.2c0.3,1.5,0.9,3.4,2.3,4.1C69,44.8,68.7,44.9,68.3,44.9z
		 M72.9,40.4c-0.1,0.7-0.3,1.6-0.6,2.3c0,0,0,0.1,0,0.1c-0.3,0.8-0.9,1.5-1.8,1.6c-2,0.2-2.7-2.8-2.9-4.3c0.2,0,0.3,0,0.5,0
		s0.3-0.1,0.3-0.3c0.1-2.3,0-5.5,1.6-7.4c1.5-1.8,2.6,2,2.8,2.9c0.2,1.2,0.2,2.5,0.3,3.8C73,39.5,73,40,72.9,40.4z M73.1,42.6
		c0.2-0.6,0.3-1.2,0.4-1.8c0.2,0.7,0.5,1.4,1,1.8C74,42.6,73.6,42.6,73.1,42.6z M76.9,42c-1.2,1.3-2.4-0.2-2.8-1.3
		c-0.3-0.9-0.4-1.8-0.5-2.7c0.3,0,0.6-0.1,0.9-0.2c0,0,0.1,0,0.1-0.1l0,0c0,0,0,0,0,0c0,0,0,0,0-0.1v0c0,0,0,0,0,0
		c0-0.7,0-1.6,0-2.6c0,0,0-0.1,0-0.2c0-0.9,0.2-4.1,1.9-3.3c1.3,0.7,1.6,2.7,1.7,3.9C78.5,37.6,78.4,40.4,76.9,42z M79.5,36.4
		c-0.2,0-0.3,0-0.5,0c0-0.3,0-0.7,0-0.9c-0.1-1.6-0.7-4.2-2.6-4.7c-1.1-0.2-1.7,0.7-1.9,1.7c-0.2-1.1-0.7-2.1-1.4-2.7
		c1.2-0.1,2.4-0.2,3.6-0.3c0.1,0,0.2,0,0.2-0.1c0,0,0.1-0.1,0.1-0.1C79.5,30.2,79.5,34.1,79.5,36.4z"/>
	<path class="st53" d="M32.9,19c-0.1,2.2-0.2,4.3-0.2,6.5c0,0.2,0.1,0.2,0.2,0.3c0,0,0.1,0,0.2,0c3.7,0.1,7.8-0.4,8.9-4.5
		c0.5-1.8,0.2-3.9,0.2-5.8c0-2.7,0-5.3,0-8.1v0c0-0.1-0.1-0.2-0.2-0.3c-2.7-0.5-5.4-0.8-8.1-1.3c0,0,0,0,0,0c0,0-0.1,0-0.1,0
		c0,0,0,0-0.1,0c-0.1,0-0.1,0.1-0.2,0.2c0,0.5,0,1,0,1.6c-0.9,0-1.1,0.6-1.1,1.6C32.1,11.2,32,13.1,32,15c0,1.1-0.4,2.9,0.5,3.7
		C32.6,18.9,32.7,19,32.9,19z M40.8,7.6c0.2,0,0.4,0.1,0.6,0.1c0,3.7,0,7.4,0,11.1c0,2.3-0.6,4.4-2.7,5.6c-1.6,0.9-3.6,0.9-5.5,0.8
		c0-0.2,0-0.3,0-0.4c1.9,0,3.8-0.1,5.5-1.1c1.5-0.9,2-2.4,2.1-4.1C41.1,15.6,40.9,11.6,40.8,7.6z M33.9,6.5c2.2,0.4,4.4,0.7,6.6,1
		c0,3.7,0.2,7.5,0,11.2c-0.1,1.8-0.3,3.4-1.8,4.5c-1.5,1.1-3.6,1.2-5.4,1.2c0.1-1.8,0.2-3.6,0.2-5.3c0.8,0,1.7-0.2,2.2-0.4
		c1.1-0.3,1.2-1.5,1.2-2.4c0.1-1.5,0.1-3,0.1-4.5c0-1,0-2.1-0.3-3c-0.5-1-1.8-1.1-2.8-1.1C33.9,7.3,33.9,6.9,33.9,6.5z M35.7,10
		c0-0.5-0.1-1-0.3-1.5c0.9,0.3,1,1.4,1,2.2c0,1.8,0,3.6-0.1,5.4c0,1-0.2,1.7-1,2.1c0.2-0.5,0.2-1.1,0.3-1.7c0.1-1.1,0.2-2.2,0.2-3.3
		C35.8,12.1,35.7,11,35.7,10z M32.5,16.3c0-2.3,0.2-4.6,0.2-6.9c0-0.8,0-1.1,0.9-1c0.5,0,0.9,0,1.4,0.1c0.2,0.5,0.3,1.2,0.3,1.8
		c0,0.9,0.1,1.7,0.1,2.6c0,0.9-0.1,1.9-0.1,2.8c0,0.9,0,1.9-0.5,2.6c-0.1,0-0.2,0-0.3,0c-0.4,0-0.9,0.1-1.3,0.1
		C32.3,18.4,32.5,16.9,32.5,16.3z"/>
	<path class="st53" d="M40.9,25.1L40.9,25.1c-0.6,0.3-1.2,1.6-0.6,2.2c0.3,0.2,0.5,0.3,0.9,0.2c0.6,0,1.2-0.1,1.7-0.2
		c0.4-0.1,0.6-0.3,0.7-0.7c0-0.4,0-1.1-0.2-1.4C43,24.6,41.4,24.9,40.9,25.1z M41.2,25.7c0.3-0.1,0.8-0.2,1.2-0.2
		c0.3,0,0.5,0,0.5,0.3c0,0.1,0.2,0.8,0,0.9C42.4,27,41.6,26.9,41,27C40.4,27,40.8,25.9,41.2,25.7z"/>
	<path class="st53" d="M21.7,42.9c1.6,0.1,2.3-1.5,2.3-2.8c0-1.1-0.9-2.2-2-2.2c-1.2-0.1-2.1,0.8-2.3,1.9
		C19.4,41.1,20.1,42.8,21.7,42.9z M20.2,39.9c0.2-0.7,0.6-1.4,1.4-1.5c0.7-0.1,1.4,0.4,1.6,1.1c0.3,0.9,0,2.2-0.9,2.7
		c-0.6,0.3-1.4-0.1-1.8-0.6C20.2,41.1,20.1,40.5,20.2,39.9z"/>
	<path class="st53" d="M27.3,43.7c1.8,0.1,2.7-1.7,2.6-3.3c0-1.3-1-2.5-2.3-2.6c-1.4-0.1-2.4,0.9-2.7,2.2
		C24.7,41.6,25.4,43.6,27.3,43.7z M25.5,40.2c0.2-0.9,0.7-1.6,1.7-1.8c0.9-0.1,1.7,0.5,2,1.3c0.4,1.1,0,2.6-1,3.2
		c-0.8,0.5-1.7-0.1-2.2-0.7C25.5,41.7,25.4,40.9,25.5,40.2z"/>
	<path class="st53" d="M4.2,38c0-0.7-0.5-1.4-1.2-1.4c-0.7-0.1-1.2,0.5-1.4,1.2c-0.2,0.8,0.2,2.1,1.2,2.1C3.8,39.8,4.2,38.8,4.2,38z
		 M3,39.2c-0.3,0.1-0.5-0.1-0.7-0.3c-0.2-0.3-0.2-0.7-0.1-0.9c0.1-0.3,0.2-0.7,0.6-0.7c0.3,0,0.5,0.3,0.6,0.6
		C3.6,38.2,3.5,39,3,39.2z"/>
	<path class="st53" d="M6.1,40.7c1.1,0,1.5-1.2,1.5-2.1c0-0.7-0.5-1.6-1.3-1.6c-0.8-0.1-1.4,0.6-1.6,1.4C4.6,39.2,4.9,40.7,6.1,40.7
		z M5.3,38.5c0.1-0.4,0.3-0.9,0.8-0.9c0.4,0,0.7,0.4,0.8,0.8c0.2,0.5,0,1.5-0.6,1.7c-0.3,0.2-0.7-0.2-0.9-0.4
		C5.3,39.3,5.3,38.8,5.3,38.5z"/>
	<path class="st53" d="M6.5,30.2c1.7,0.2,3.4,0.3,5.2,0.4c1.8,0.1,3.6,0.1,5.4,0.2c0.9,0,1.7,0.2,2.5-0.3c1.8-1,2.4-4.3,2.9-6
		c0-0.1,0-0.2-0.1-0.3c0-0.1-0.1-0.1-0.2-0.1c-5.8,0-11.6,0-17.4,0c0,0-0.1,0-0.1,0c-0.1,0-0.2,0.1-0.2,0.3c0.2,1.7,0.2,4.1,1.4,5.5
		C6,30,6.2,30.2,6.5,30.2z M21.7,24.7c-0.4,1.5-0.9,3.3-1.8,4.6c-2.8-0.1-5.5-0.2-8.3-0.2c-1.1,0-2.2-0.1-3.3-0.2
		c-0.7,0-1.2-0.2-1.5-0.8c-0.4-1-0.5-2.3-0.6-3.4C11.4,24.7,16.6,24.7,21.7,24.7z M5.9,24.7C6,25.8,6.2,26.9,6.5,28
		c0.2,0.5,0.5,0.9,1,1.1c0.9,0.3,2.1,0.2,3,0.2c3.1,0.1,6.1,0.2,9.2,0.3c-0.1,0.1-0.1,0.2-0.2,0.2c-0.6,0.6-1.6,0.4-2.4,0.4
		c-1.5,0-2.9-0.1-4.4-0.2c-1.4,0-2.7-0.1-4.1-0.2c-0.6,0-1.8,0.1-2.3-0.3C5.2,28.5,5.1,26,5,24.7C5.4,24.7,5.7,24.7,5.9,24.7z"/>
	<path class="st53" d="M51.4,27.5c0,0.1,0,0.1,0,0.2c0,0.1,0.1,0.2,0.3,0.2c8.7-0.5,17.4-1,26-1.7c0,0,0,0,0.1,0h0
		c0.1,0,0.2-0.1,0.2-0.3c0-2.8,0-5.6,0-8.4c0-0.1-0.1-0.2-0.2-0.3c0,0,0,0,0,0s-0.1,0-0.1,0c-8.7-0.5-17.4-1-26-1.8
		c-0.1,0-0.2,0-0.2,0.1c0,0-0.1,0.1-0.1,0.2C51.6,19.5,51.4,23.6,51.4,27.5z M76.7,17.6c0.2,0,0.5,0,0.7,0c0,2.6,0,5.3,0,7.9
		c-8.4,0.7-16.9,1.2-25.4,1.7c0-0.2,0-0.5,0-0.7c3.3,0,6.7-0.4,10-0.6c4.5-0.3,8.9-0.5,13.4-0.8c0.4,0,0.8,0,1.2,0c0,0,0.1,0,0.1,0
		c0,0,0,0,0-0.1C76.7,22.5,76.5,20,76.7,17.6z M76.4,17.6c-0.2,2.4,0,4.8,0,7.2c-3.4,0-6.8,0.4-10.2,0.6c-4.5,0.3-8.9,0.5-13.3,0.8
		c-0.3,0-0.6,0-0.9,0c0-3.4,0.2-6.9,0-10.3C60,16.7,68.2,17.1,76.4,17.6z"/>
	<path class="st53" d="M44,38.4c-1.1,0-1.9,1.1-2.4,2c-1,2.2-1.3,5.4-0.3,7.7c0.2,0.4,0.5,0.9,0.9,1.2c0,0,0,0,0,0
		c0.4,0.3,0.9,0.6,1.5,0.5c1.2-0.2,1.9-1.1,2.3-2.1c0.5-1.3,0.8-2.7,0.8-4c0-1.4-0.1-3.1-0.8-4.2C45.5,38.8,44.8,38.4,44,38.4z
		 M41.3,42.5c1.2,0,2.2,0.8,2,2.1c-0.2,0.9-1.4,1.1-2.2,1.2C41,44.7,41,43.6,41.3,42.5z M42.4,49.1c-0.5-0.5-0.9-1.3-1-1.9
		c-0.1-0.3-0.2-0.7-0.2-1.1c1.1-0.2,2.4-0.5,2.5-1.8c0.1-1.4-1-2.1-2.2-2.1c0.2-0.5,0.3-1.1,0.5-1.6c0.3-0.7,0.8-1.3,1.4-1.7
		c2,0.3,2,3.2,2,4.7C45.3,45.4,44.9,49.4,42.4,49.1z M46.5,43.7c0,1.2-0.2,2.4-0.7,3.6c-0.3,0.9-0.9,1.9-1.9,2.2
		c-0.4,0.2-0.8,0.1-1.2-0.1c2.4-0.2,2.8-4,2.8-5.8c0-1.6-0.1-4.2-1.8-4.8c0.1,0,0.2,0,0.3,0c0.8,0,1.4,0.6,1.8,1.3
		C46.4,41.1,46.5,42.6,46.5,43.7z"/>
	<path class="st53" d="M56.3,36.4c-1,0-1.7,1-2,1.8c-0.9,2.1-1.1,4.8-0.2,6.9c0.3,0.8,1.2,1.6,2.1,1.3c0.9-0.2,1.5-1,1.8-1.9
		c0.5-1.1,0.7-2.4,0.7-3.6c0-1.2-0.1-2.6-0.7-3.6C57.6,36.8,57,36.4,56.3,36.4z M53.9,40.6c0.4,0,0.9,0,1.3,0.2
		c0.4,0.2,0.4,0.6,0.4,1c0,0.9-1,0.9-1.7,0.9h0C53.8,41.9,53.8,41.2,53.9,40.6z M55.2,46c-0.6-0.3-0.9-1.2-1.1-1.8
		c-0.1-0.4-0.2-0.9-0.3-1.3c0,0,0,0,0,0c0.8,0,1.9,0,2-1c0-0.5,0-0.9-0.3-1.2c-0.4-0.3-1-0.3-1.6-0.3c0.1-0.7,0.3-1.3,0.6-1.9
		c0.3-0.6,0.7-1.2,1.2-1.5c1.7,0.5,1.5,3.1,1.4,4.4C57.1,42.6,56.8,45.5,55.2,46C55.3,46,55.2,46,55.2,46z M57.8,44.1
		c-0.3,0.8-0.7,1.7-1.6,2c-0.2,0.1-0.5,0.1-0.7,0.1c1.6-0.7,1.8-3.4,1.9-4.8c0.1-1.4,0.2-3.8-1.2-4.5c0.1,0,0.1,0,0.2,0
		c0.7,0,1.3,0.7,1.5,1.3C58.7,39.9,58.5,42.3,57.8,44.1z"/>
	<path class="st53" d="M70.1,34.5c-0.7,0.5-0.8,1.7-0.9,2.5c-0.2,1.1-0.1,2.2,0.1,3.3c0.1,0.8,0.4,1.7,1.1,2.2c0.5,0.3,1,0,1.3-0.5
		c0.5-0.8,0.7-1.9,0.7-2.8c0.1-1.2,0-2.4-0.3-3.6C71.7,34.7,71,33.8,70.1,34.5z M69.4,37.6c0.5,0.1,0.9,0.1,1,0.7c0,0.6-0.4,0.9-1,1
		C69.3,38.7,69.3,38.1,69.4,37.6z M70.4,42.2c-0.5-0.3-0.7-1.4-0.8-1.7c-0.1-0.3-0.1-0.5-0.2-0.9c0.7-0.2,1.2-0.5,1.2-1.4
		c0-0.8-0.6-0.9-1.2-1c0-0.5,0.2-0.9,0.3-1.4c0.1-0.4,0.3-1,0.7-1.2c0.9,0.8,0.9,2.2,0.9,3.3c0.1,1.4,0,3-0.9,4.1
		C70.4,42.1,70.4,42.1,70.4,42.2z M71.9,40.3c-0.1,0.7-0.3,1.5-0.9,1.9c-0.2,0.1-0.3,0.1-0.4,0.1c0,0,0,0,0,0c1-1.2,1.1-2.8,1-4.3
		c0-1.1-0.1-2.6-0.9-3.4c0,0,0.1,0,0.2,0c0.5,0.1,0.7,0.7,0.9,1.1C72.1,37.2,72.2,38.8,71.9,40.3z"/>
	<path class="st53" d="M77.3,33.6c-0.8-1-1.6,0.3-1.8,1c-0.4,1.7-0.6,4.1,0.4,5.6c0.2,0.3,0.6,0.5,1,0.3c0.6-0.4,0.8-1.1,0.9-1.8
		c0.2-1,0.2-1.9,0.1-2.9C77.8,35.1,77.8,34.2,77.3,33.6z M75.4,36.7c0.7,0,0.5,0.9,0,1.1C75.4,37.5,75.4,37.1,75.4,36.7z M76.3,40.3
		c-0.4-0.3-0.7-1.4-0.7-1.7c0-0.1,0-0.3-0.1-0.4c0,0,0.1,0,0.1,0c0.8-0.3,0.8-1.7-0.2-1.7c0-0.6,0.1-1.2,0.3-1.7
		c0.1-0.3,0.2-0.8,0.5-1c0.5,0.9,0.5,2.2,0.5,3.2c0,0.5,0,1,0,1.5C76.7,38.9,76.7,39.8,76.3,40.3z M77.4,38.7
		c-0.1,0.5-0.2,1-0.6,1.5c-0.1,0.1-0.2,0.2-0.2,0.2c0.6-0.8,0.4-2.4,0.4-3.3c0-1.2,0.1-2.5-0.5-3.5c0.1,0,0.2,0,0.2,0
		c0.4,0.2,0.5,0.8,0.6,1.2C77.7,36,77.7,37.4,77.4,38.7z"/>
</g>
</svg>
