<?xml version="1.0" encoding="utf-8"?>
<!-- Generator: Adobe Illustrator 23.1.0, SVG Export Plug-In . SVG Version: 6.00 Build 0)  -->
<svg version="1.1" id="Шар_1" xmlns="http://www.w3.org/2000/svg" xmlns:xlink="http://www.w3.org/1999/xlink" x="0px" y="0px"
	 viewBox="0 0 150 137.7" style="enable-background:new 0 0 150 137.7;" xml:space="preserve">
<style type="text/css">
	.st0{fill-rule:evenodd;clip-rule:evenodd;fill:#5C6887;}
	.st1{fill-rule:evenodd;clip-rule:evenodd;fill:#F0C419;}
	.st2{clip-path:url(#SVGID_2_);}
	.st3{fill:#242424;}
</style>
<g>
	<path class="st0" d="M149.6,133.6c0.2,0.4,0.4,0.9,0.4,1.3c0,0.5-0.1,0.9-0.4,1.3c-0.2,0.4-0.6,0.8-1,1c-0.4,0.2-0.9,0.4-1.3,0.4
		H2.7c-0.5,0-0.9-0.1-1.3-0.4c-0.4-0.2-0.7-0.6-1-1C0.1,135.9,0,135.4,0,135c0-0.5,0.1-0.9,0.4-1.3L72.2,1.3c0.2-0.4,0.6-0.7,1-1
		C73.6,0.1,74.1,0,74.5,0c0.5,0,0.9,0.1,1.3,0.4c0.4,0.2,0.7,0.6,1,1L149.6,133.6z"/>
	<path class="st1" d="M22.1,121.8l52.5-98l53.2,98H22.1z"/>
	<g>
		<defs>
			
				<rect id="SVGID_1_" x="44.8" y="56.7" transform="matrix(0.9613 -0.2754 0.2754 0.9613 -20.2714 22.9964)" width="54" height="54"/>
		</defs>
		<clipPath id="SVGID_2_">
			<use xlink:href="#SVGID_1_"  style="overflow:visible;"/>
		</clipPath>
		<g class="st2">
			<path class="st3" d="M73.9,107.6c-0.2,0.1-0.4,0.1-0.5,0c-0.5-0.1-0.9-0.5-0.9-1.1l-0.6-17.1l-18.1,5.2c-0.4,0.1-0.9,0-1.2-0.4
				c-0.3-0.3-0.3-0.8-0.1-1.2l16.3-32.7c0.2-0.5,0.7-0.7,1.2-0.6c0.5,0.1,0.9,0.5,0.9,1.1l0.6,17.1l18.1-5.2c0.4-0.1,0.9,0,1.2,0.4
				c0.3,0.3,0.3,0.8,0.1,1.2L74.6,107C74.5,107.3,74.2,107.5,73.9,107.6z"/>
		</g>
	</g>
</g>
</svg>
