<?xml version="1.0" encoding="utf-8"?>
<!-- Generator: Adobe Illustrator 23.1.0, SVG Export Plug-In . SVG Version: 6.00 Build 0)  -->
<svg version="1.1" id="Шар_1" xmlns="http://www.w3.org/2000/svg" xmlns:xlink="http://www.w3.org/1999/xlink" x="0px" y="0px"
	 viewBox="0 0 150 142.5" style="enable-background:new 0 0 150 142.5;" xml:space="preserve">
<style type="text/css">
	.st0{fill-rule:evenodd;clip-rule:evenodd;fill:#B12821;}
	.st1{fill-rule:evenodd;clip-rule:evenodd;fill:#CD4E43;}
	.st2{fill-rule:evenodd;clip-rule:evenodd;fill:#E0E2E2;}
	.st3{fill:#72727E;}
</style>
<g>
	<path class="st0" d="M134.5,66.3L75,20.5L15.5,66.3c-1.6,1.2-3.6,1.7-5.5,1.5c-2-0.3-3.7-1.3-5-2.8c-1.2-1.6-1.8-3.5-1.5-5.5
		c0.2-2,1.2-3.8,2.8-5L69.9,4.7L75,0l5.1,4.7l63.6,49.7c1.5,1.2,2.5,3,2.7,5c0.2,1.9-0.3,3.9-1.5,5.4c-1.2,1.5-3,2.6-4.9,2.8
		C138,68,136.1,67.5,134.5,66.3z"/>
	<path class="st1" d="M134.5,66.3L75,20.5L15.5,66.3c-1.6,1.2-3.6,1.7-5.5,1.5c-2-0.3-3.7-1.3-5-2.8c-1.2-1.6-1.8-3.5-1.5-5.5
		c0.2-2,1.2-3.8,2.8-5L69.9,4.7L75,0l5.1,4.7l63.6,49.7c1.5,1.2,2.5,3,2.7,5c0.2,1.9-0.3,3.9-1.5,5.4c-1.2,1.5-3,2.6-4.9,2.8
		C138,68,136.1,67.5,134.5,66.3z"/>
	<path class="st2" d="M75,20.5L17.5,64.8V140h115V64.8L75,20.5z"/>
	<path class="st2" d="M147.5,115c-0.7,0-1.3,0.3-1.8,0.7c-0.5,0.5-0.7,1.1-0.7,1.8v2.5h-2.5v-2.5c0-0.7-0.3-1.3-0.7-1.8
		c-0.5-0.5-1.1-0.7-1.8-0.7s-1.3,0.3-1.8,0.7c-0.5,0.5-0.7,1.1-0.7,1.8v2.5h-5c-0.7,0-1.3,0.3-1.8,0.7c-0.5,0.5-0.7,1.1-0.7,1.8
		c0,0.7,0.3,1.3,0.7,1.8c0.5,0.5,1.1,0.7,1.8,0.7h5v7.5h-5c-0.7,0-1.3,0.3-1.8,0.7c-0.5,0.5-0.7,1.1-0.7,1.8c0,0.7,0.3,1.3,0.7,1.8
		c0.5,0.5,1.1,0.7,1.8,0.7h5v2.5c0,0.7,0.3,1.3,0.7,1.8c0.5,0.5,1.1,0.7,1.8,0.7s1.3-0.3,1.8-0.7c0.5-0.5,0.7-1.1,0.7-1.8v-2.5h2.5
		v2.5c0,0.7,0.3,1.3,0.7,1.8c0.5,0.5,1.1,0.7,1.8,0.7c0.7,0,1.3-0.3,1.8-0.7c0.5-0.5,0.7-1.1,0.7-1.8v-22.5c0-0.7-0.3-1.3-0.7-1.8
		C148.8,115.3,148.2,115,147.5,115z M142.5,125h2.5v7.5h-2.5V125z"/>
	<path class="st2" d="M17.5,125c0.7,0,1.3-0.3,1.8-0.7c0.5-0.5,0.7-1.1,0.7-1.8c0-0.7-0.3-1.3-0.7-1.8c-0.5-0.5-1.1-0.7-1.8-0.7h-5
		v-2.5c0-0.7-0.3-1.3-0.7-1.8c-0.5-0.5-1.1-0.7-1.8-0.7s-1.3,0.3-1.8,0.7c-0.5,0.5-0.7,1.1-0.7,1.8v2.5H5v-2.5
		c0-0.7-0.3-1.3-0.7-1.8c-0.5-0.5-1.1-0.7-1.8-0.7c-0.7,0-1.3,0.3-1.8,0.7c-0.5,0.5-0.7,1.1-0.7,1.8V140c0,0.7,0.3,1.3,0.7,1.8
		c0.5,0.5,1.1,0.7,1.8,0.7c0.7,0,1.3-0.3,1.8-0.7c0.5-0.5,0.7-1.1,0.7-1.8v-2.5h2.5v2.5c0,0.7,0.3,1.3,0.7,1.8
		c0.5,0.5,1.1,0.7,1.8,0.7s1.3-0.3,1.8-0.7c0.5-0.5,0.7-1.1,0.7-1.8v-2.5h5c0.7,0,1.3-0.3,1.8-0.7c0.5-0.5,0.7-1.1,0.7-1.8
		c0-0.7-0.3-1.3-0.7-1.8c-0.5-0.5-1.1-0.7-1.8-0.7h-5V125H17.5z M5,125h2.5v7.5H5V125z"/>
	<path class="st3" d="M45,87.2h-3.5V95h-4.4V73.7h7.9c2.5,0,4.5,0.6,5.8,1.7c1.4,1.1,2.1,2.7,2.1,4.8c0,1.5-0.3,2.7-1,3.6
		c-0.6,1-1.6,1.7-2.9,2.3l4.6,8.7V95H49L45,87.2z M41.5,83.6h3.5c1.1,0,2-0.3,2.6-0.8c0.6-0.6,0.9-1.3,0.9-2.3c0-1-0.3-1.8-0.9-2.4
		c-0.6-0.6-1.4-0.9-2.6-0.9h-3.5V83.6z"/>
	<path class="st3" d="M73.8,84.8c0,2.1-0.4,3.9-1.1,5.5c-0.7,1.6-1.8,2.8-3.2,3.7c-1.4,0.9-3,1.3-4.7,1.3c-1.8,0-3.3-0.4-4.7-1.3
		c-1.4-0.8-2.5-2.1-3.2-3.6c-0.8-1.6-1.1-3.4-1.2-5.4v-1.1c0-2.1,0.4-3.9,1.1-5.5c0.8-1.6,1.8-2.8,3.2-3.7c1.4-0.9,3-1.3,4.7-1.3
		c1.8,0,3.4,0.4,4.7,1.3c1.4,0.8,2.5,2.1,3.2,3.7c0.8,1.6,1.1,3.4,1.1,5.5V84.8z M69.4,83.9c0-2.2-0.4-3.9-1.2-5.1
		c-0.8-1.2-1.9-1.7-3.4-1.7c-1.5,0-2.6,0.6-3.4,1.7c-0.8,1.1-1.2,2.8-1.2,5v1c0,2.2,0.4,3.9,1.2,5.1c0.8,1.2,2,1.8,3.5,1.8
		c1.5,0,2.6-0.6,3.4-1.7c0.8-1.2,1.2-2.9,1.2-5.1V83.9z"/>
	<path class="st3" d="M94.5,84.8c0,2.1-0.4,3.9-1.1,5.5c-0.7,1.6-1.8,2.8-3.2,3.7c-1.4,0.9-3,1.3-4.7,1.3c-1.8,0-3.3-0.4-4.7-1.3
		c-1.4-0.8-2.5-2.1-3.2-3.6c-0.8-1.6-1.1-3.4-1.2-5.4v-1.1c0-2.1,0.4-3.9,1.1-5.5c0.8-1.6,1.8-2.8,3.2-3.7c1.4-0.9,3-1.3,4.7-1.3
		c1.8,0,3.4,0.4,4.7,1.3c1.4,0.8,2.5,2.1,3.2,3.7c0.8,1.6,1.1,3.4,1.1,5.5V84.8z M90.1,83.9c0-2.2-0.4-3.9-1.2-5.1
		c-0.8-1.2-1.9-1.7-3.4-1.7c-1.5,0-2.6,0.6-3.4,1.7c-0.8,1.1-1.2,2.8-1.2,5v1c0,2.2,0.4,3.9,1.2,5.1c0.8,1.2,2,1.8,3.5,1.8
		c1.5,0,2.6-0.6,3.4-1.7c0.8-1.2,1.2-2.9,1.2-5.1V83.9z"/>
	<path class="st3" d="M110.6,86.3h-8.4V95h-4.4V73.7h13.9v3.6h-9.5v5.5h8.4V86.3z"/>
</g>
</svg>
