<?xml version="1.0" encoding="utf-8"?>
<!-- Generator: Adobe Illustrator 23.1.0, SVG Export Plug-In . SVG Version: 6.00 Build 0)  -->
<svg version="1.1" id="Шар_1" xmlns="http://www.w3.org/2000/svg" xmlns:xlink="http://www.w3.org/1999/xlink" x="0px" y="0px"
	 viewBox="0 0 110.6 150" style="enable-background:new 0 0 110.6 150;" xml:space="preserve">
<style type="text/css">
	.st0{fill-rule:evenodd;clip-rule:evenodd;fill:#659C35;}
	.st1{fill-rule:evenodd;clip-rule:evenodd;fill:#6C5C4C;}
	.st2{fill-rule:evenodd;clip-rule:evenodd;fill:#A8CB67;}
	.st3{fill-rule:evenodd;clip-rule:evenodd;fill:#21A34D;}
</style>
<g>
	<path class="st0" d="M61.7,5.5C62,7,63.9,7.3,64.6,6c3.3-6.6,13.4-3.4,12.2,4c-0.2,1.5,1.5,2.4,2.6,1.3c5.2-5.3,13.8,0.9,10.4,7.6
		c-0.7,1.3,0.7,2.7,2,2c6.6-3.4,12.8,5.2,7.6,10.4c-1,1-0.1,2.8,1.3,2.6c7.3-1.2,10.6,8.9,4,12.2c-1.3,0.7-1,2.6,0.5,2.9
		c7.3,1.1,7.3,11.7,0,12.9c-1.5,0.2-1.8,2.2-0.5,2.8c6.6,3.4,3.4,13.4-4,12.2c-1.5-0.2-2.4,1.5-1.3,2.6c5.3,5.2-0.9,13.8-7.6,10.4
		c-1.3-0.7-2.7,0.7-2,2c3.4,6.6-5.2,12.8-10.4,7.6c-1-1-2.8-0.1-2.6,1.3v0c1.2,7.3-8.9,10.6-12.2,4c-0.7-1.3-2.6-1-2.9,0.5
		c-1.1,7.3-11.7,7.3-12.9,0c-0.2-1.5-2.2-1.8-2.8-0.5c-3.4,6.6-13.4,3.4-12.2-4v0c0.2-1.5-1.5-2.4-2.6-1.3
		c-5.2,5.3-13.8-0.9-10.4-7.6c0.7-1.3-0.7-2.7-2-2c-6.6,3.4-12.8-5.2-7.6-10.4c1-1,0.1-2.8-1.3-2.6h0C2.6,78-0.7,67.9,6,64.6
		c1.3-0.7,1-2.6-0.5-2.8c-7.3-1.1-7.3-11.7,0-12.9C7,48.7,7.3,46.7,6,46c-6.6-3.3-3.4-13.4,4-12.2h0c1.5,0.2,2.4-1.5,1.3-2.6
		C6,26,12.2,17.4,18.8,20.8c1.3,0.7,2.7-0.7,2-2C17.4,12.2,26,6,31.2,11.2c1,1,2.8,0.1,2.6-1.3C32.6,2.6,42.7-0.7,46,6
		c0.7,1.3,2.6,1,2.8-0.5C50-1.8,60.6-1.8,61.7,5.5z"/>
	<path class="st1" d="M61.7,105.1c-1.1,7.3-11.7,7.3-12.9,0c-0.2-1-1.9-1.6-1.9-1.2v43.7h15.3v-43.4
		C62.3,103.9,61.8,104.7,61.7,105.1z"/>
	<path class="st2" d="M62.3,86.5c-0.7,0-1.3-0.3-1.8-0.7c-0.5-0.5-0.7-1.1-0.7-1.8c0-12.6,10.3-22.9,22.9-22.9
		c0.7,0,1.3,0.3,1.8,0.7c0.5,0.5,0.7,1.1,0.7,1.8c0,0.7-0.3,1.3-0.7,1.8c-0.5,0.5-1.1,0.7-1.8,0.7c-9.8,0-17.8,8-17.8,17.8
		c0,0.7-0.3,1.3-0.7,1.8C63.6,86.2,63,86.5,62.3,86.5z"/>
	<path class="st2" d="M47,94.1c-0.7,0-1.3-0.3-1.8-0.7c-0.5-0.5-0.7-1.1-0.7-1.8c0-9.8-8-17.8-17.8-17.8c-0.7,0-1.3-0.3-1.8-0.7
		c-0.5-0.5-0.7-1.1-0.7-1.8c0-0.7,0.3-1.3,0.7-1.8c0.5-0.5,1.1-0.7,1.8-0.7c12.6,0,22.9,10.3,22.9,22.9c0,0.7-0.3,1.3-0.7,1.8
		C48.3,93.9,47.7,94.1,47,94.1z"/>
	<path class="st2" d="M52.1,66.1c-0.7,0-1.3-0.3-1.8-0.7c-0.5-0.5-0.7-1.1-0.7-1.8c0-9.8-8-17.8-17.8-17.8c-0.7,0-1.3-0.3-1.8-0.7
		c-0.5-0.5-0.7-1.1-0.7-1.8c0-0.7,0.3-1.3,0.7-1.8c0.5-0.5,1.1-0.7,1.8-0.7c12.6,0,22.9,10.3,22.9,22.9c0,0.7-0.3,1.3-0.7,1.8
		C53.4,65.9,52.8,66.1,52.1,66.1z"/>
	<path class="st2" d="M54.6,45.8c-0.7,0-1.3-0.3-1.8-0.7c-0.5-0.5-0.7-1.1-0.7-1.8c0-12.6,10.3-22.9,22.9-22.9
		c0.7,0,1.3,0.3,1.8,0.7c0.5,0.5,0.7,1.1,0.7,1.8c0,0.7-0.3,1.3-0.7,1.8c-0.5,0.5-1.1,0.7-1.8,0.7c-9.8,0-17.8,8-17.8,17.8
		c0,0.7-0.3,1.3-0.7,1.8C56,45.5,55.3,45.8,54.6,45.8z"/>
	<path class="st2" d="M92.8,45.8c-5.6,0-10.2-4.6-10.2-10.2c0-0.7,0.3-1.3,0.7-1.8c0.5-0.5,1.1-0.7,1.8-0.7c0.7,0,1.3,0.3,1.8,0.7
		c0.5,0.5,0.7,1.1,0.7,1.8c0,2.8,2.3,5.1,5.1,5.1c0.7,0,1.3,0.3,1.8,0.7c0.5,0.5,0.7,1.1,0.7,1.8c0,0.7-0.3,1.3-0.7,1.8
		C94.1,45.5,93.5,45.8,92.8,45.8z"/>
	<path class="st2" d="M69.9,56c-0.7,0-1.3-0.3-1.8-0.7c-0.5-0.5-0.7-1.1-0.7-1.8c0-5.6,4.6-10.2,10.2-10.2c0.7,0,1.3,0.3,1.8,0.7
		c0.5,0.5,0.7,1.1,0.7,1.8c0,0.7-0.3,1.3-0.7,1.8c-0.5,0.5-1.1,0.7-1.8,0.7c-2.8,0-5.1,2.3-5.1,5.1c0,0.7-0.3,1.3-0.7,1.8
		C71.2,55.7,70.6,56,69.9,56z"/>
	<path class="st2" d="M47,28c-5.6,0-10.2-4.6-10.2-10.2c0-0.7,0.3-1.3,0.7-1.8c0.5-0.5,1.1-0.7,1.8-0.7c0.7,0,1.3,0.3,1.8,0.7
		c0.5,0.5,0.7,1.1,0.7,1.8c0,2.8,2.3,5.1,5.1,5.1c0.7,0,1.3,0.3,1.8,0.7c0.5,0.5,0.7,1.1,0.7,1.8c0,0.7-0.3,1.3-0.7,1.8
		C48.3,27.7,47.7,28,47,28z"/>
	<path class="st2" d="M19,61.1c-0.7,0-1.3-0.3-1.8-0.7s-0.7-1.1-0.7-1.8c0-0.7,0.3-1.3,0.7-1.8c0.5-0.5,1.1-0.7,1.8-0.7
		c2.8,0,5.1-2.3,5.1-5.1c0-0.7,0.3-1.3,0.7-1.8c0.5-0.5,1.1-0.7,1.8-0.7c0.7,0,1.3,0.3,1.8,0.7c0.5,0.5,0.7,1.1,0.7,1.8
		C29.2,56.5,24.6,61.1,19,61.1z"/>
	<path class="st2" d="M80.1,86.5c-0.7,0-1.3-0.3-1.8-0.7c-0.5-0.5-0.7-1.1-0.7-1.8c0-5.6,4.6-10.2,10.2-10.2c0.7,0,1.3,0.3,1.8,0.7
		c0.5,0.5,0.7,1.1,0.7,1.8c0,0.7-0.3,1.3-0.7,1.8c-0.5,0.5-1.1,0.7-1.8,0.7c-2.8,0-5.1,2.3-5.1,5.1c0,0.7-0.3,1.3-0.7,1.8
		C81.4,86.2,80.8,86.5,80.1,86.5z"/>
	<path class="st3" d="M39.4,150.1c-0.7,0-1.3-0.3-1.8-0.7s-0.7-1.1-0.7-1.8V145c0-0.7,0.3-1.3,0.7-1.8c0.5-0.5,1.1-0.7,1.8-0.7
		c0.7,0,1.3,0.3,1.8,0.7c0.5,0.5,0.7,1.1,0.7,1.8v2.5c0,0.7-0.3,1.3-0.7,1.8S40.1,150.1,39.4,150.1z"/>
	<path class="st3" d="M31.7,150.1c-0.7,0-1.3-0.3-1.8-0.7c-0.5-0.5-0.7-1.1-0.7-1.8V145c0-0.7,0.3-1.3,0.7-1.8
		c0.5-0.5,1.1-0.7,1.8-0.7c0.7,0,1.3,0.3,1.8,0.7c0.5,0.5,0.7,1.1,0.7,1.8v2.5c0,0.7-0.3,1.3-0.7,1.8S32.4,150.1,31.7,150.1z"/>
	<path class="st3" d="M24.1,150.1c-0.7,0-1.3-0.3-1.8-0.7s-0.7-1.1-0.7-1.8V145c0-0.7,0.3-1.3,0.7-1.8c0.5-0.5,1.1-0.7,1.8-0.7
		c0.7,0,1.3,0.3,1.8,0.7c0.5,0.5,0.7,1.1,0.7,1.8v2.5c0,0.7-0.3,1.3-0.7,1.8C25.4,149.8,24.8,150.1,24.1,150.1z"/>
	<path class="st3" d="M16.5,150.1c-0.7,0-1.3-0.3-1.8-0.7c-0.5-0.5-0.7-1.1-0.7-1.8V145c0-0.7,0.3-1.3,0.7-1.8
		c0.5-0.5,1.1-0.7,1.8-0.7c0.7,0,1.3,0.3,1.8,0.7c0.5,0.5,0.7,1.1,0.7,1.8v2.5c0,0.7-0.3,1.3-0.7,1.8S17.2,150.1,16.5,150.1z"/>
	<path class="st3" d="M8.9,150.1c-0.7,0-1.3-0.3-1.8-0.7c-0.5-0.5-0.7-1.1-0.7-1.8V145c0-0.7,0.3-1.3,0.7-1.8
		c0.5-0.5,1.1-0.7,1.8-0.7c0.7,0,1.3,0.3,1.8,0.7c0.5,0.5,0.7,1.1,0.7,1.8v2.5c0,0.7-0.3,1.3-0.7,1.8
		C10.2,149.8,9.5,150.1,8.9,150.1z"/>
	<path class="st3" d="M85.2,150.1c-0.7,0-1.3-0.3-1.8-0.7c-0.5-0.5-0.7-1.1-0.7-1.8V145c0-0.7,0.3-1.3,0.7-1.8
		c0.5-0.5,1.1-0.7,1.8-0.7c0.7,0,1.3,0.3,1.8,0.7c0.5,0.5,0.7,1.1,0.7,1.8v2.5c0,0.7-0.3,1.3-0.7,1.8
		C86.5,149.8,85.8,150.1,85.2,150.1z"/>
	<path class="st3" d="M77.5,150.1c-0.7,0-1.3-0.3-1.8-0.7c-0.5-0.5-0.7-1.1-0.7-1.8V145c0-0.7,0.3-1.3,0.7-1.8
		c0.5-0.5,1.1-0.7,1.8-0.7c0.7,0,1.3,0.3,1.8,0.7c0.5,0.5,0.7,1.1,0.7,1.8v2.5c0,0.7-0.3,1.3-0.7,1.8
		C78.9,149.8,78.2,150.1,77.5,150.1z"/>
	<path class="st3" d="M69.9,150.1c-0.7,0-1.3-0.3-1.8-0.7c-0.5-0.5-0.7-1.1-0.7-1.8V145c0-0.7,0.3-1.3,0.7-1.8
		c0.5-0.5,1.1-0.7,1.8-0.7s1.3,0.3,1.8,0.7c0.5,0.5,0.7,1.1,0.7,1.8v2.5c0,0.7-0.3,1.3-0.7,1.8C71.2,149.8,70.6,150.1,69.9,150.1z"
		/>
	<path class="st3" d="M108.1,150.1c-0.7,0-1.3-0.3-1.8-0.7c-0.5-0.5-0.7-1.1-0.7-1.8V145c0-0.7,0.3-1.3,0.7-1.8
		c0.5-0.5,1.1-0.7,1.8-0.7c0.7,0,1.3,0.3,1.8,0.7c0.5,0.5,0.7,1.1,0.7,1.8v2.5c0,0.7-0.3,1.3-0.7,1.8
		C109.4,149.8,108.7,150.1,108.1,150.1z"/>
	<path class="st3" d="M100.4,150.1c-0.7,0-1.3-0.3-1.8-0.7c-0.5-0.5-0.7-1.1-0.7-1.8V145c0-0.7,0.3-1.3,0.7-1.8
		c0.5-0.5,1.1-0.7,1.8-0.7c0.7,0,1.3,0.3,1.8,0.7c0.5,0.5,0.7,1.1,0.7,1.8v2.5c0,0.7-0.3,1.3-0.7,1.8S101.1,150.1,100.4,150.1z"/>
	<path class="st3" d="M92.8,150.1c-0.7,0-1.3-0.3-1.8-0.7c-0.5-0.5-0.7-1.1-0.7-1.8V145c0-0.7,0.3-1.3,0.7-1.8
		c0.5-0.5,1.1-0.7,1.8-0.7c0.7,0,1.3,0.3,1.8,0.7c0.5,0.5,0.7,1.1,0.7,1.8v2.5c0,0.7-0.3,1.3-0.7,1.8
		C94.1,149.8,93.5,150.1,92.8,150.1z"/>
</g>
</svg>
