<?xml version="1.0" encoding="utf-8"?>
<!-- Generator: Adobe Illustrator 23.1.0, SVG Export Plug-In . SVG Version: 6.00 Build 0)  -->
<svg version="1.1" id="Шар_1" xmlns="http://www.w3.org/2000/svg" xmlns:xlink="http://www.w3.org/1999/xlink" x="0px" y="0px"
	 viewBox="0 0 52.3 51.6" style="enable-background:new 0 0 52.3 51.6;" xml:space="preserve">
<style type="text/css">
	.st0{fill:#CC4C42;stroke:#FFFFFF;stroke-width:1.3568;}
</style>
<circle class="st0" cx="25.9" cy="25.8" r="25.1"/>
<g>
	<path d="M17.7,25.5c0-2.9,0.5-5.4,1.4-7.5s2-3.7,3.5-4.6c1.1-0.8,2.3-1.2,3.5-1.2c2,0,3.7,0.9,5.2,2.9c2,2.5,2.9,5.9,2.9,10
		c0,2.9-0.5,5.5-1.2,7.5c-0.9,2-2,3.5-3.2,4.5c-1.2,0.9-2.6,1.4-3.9,1.4c-2.5,0-4.5-1.4-6-4.3C18.3,31.8,17.7,28.9,17.7,25.5z
		 M21.2,26c0,3.5,0.5,6.3,1.2,8.6c0.8,1.8,1.8,2.8,3.2,2.8c0.6,0,1.4-0.3,2.2-0.9c0.8-0.6,1.2-1.7,1.7-3.1c0.6-2.2,0.9-5.2,0.9-9.1
		c0-2.9-0.3-5.4-0.9-7.2c-0.5-1.4-1.1-2.5-1.7-3.1c-0.5-0.5-1.1-0.6-1.8-0.6c-0.9,0-1.5,0.3-2.3,1.1c-0.9,1.1-1.5,2.6-1.8,4.9
		C21.6,21.7,21.2,23.8,21.2,26z"/>
</g>
</svg>
