<?xml version="1.0" encoding="utf-8"?>
<!-- Generator: Adobe Illustrator 23.1.0, SVG Export Plug-In . SVG Version: 6.00 Build 0)  -->
<svg version="1.1" id="Шар_1" xmlns="http://www.w3.org/2000/svg" xmlns:xlink="http://www.w3.org/1999/xlink" x="0px" y="0px"
	 viewBox="0 0 111.8 150" style="enable-background:new 0 0 111.8 150;" xml:space="preserve">
<style type="text/css">
	.st0{fill:#804B26;}
	.st1{fill:#935E36;}
	.st2{fill:#A1C965;}
	.st3{fill:#8DC04F;}
	.st4{fill:#EA5462;}
	.st5{fill:#DD4250;}
</style>
<g>
	<path class="st0" d="M71.3,146.5c-4.8,2.3-10.1,3.5-15.4,3.5c-1.1,0-2.2-0.1-3.3-0.2c-4.2-0.4-8.3-1.5-12.1-3.3l2-11.8L58,127
		l11.2,7.8l1,5.5L71.3,146.5z"/>
	<path class="st1" d="M71.3,146.5c-4.8,2.3-10.1,3.5-15.4,3.5c-1.1,0-2.2-0.1-3.3-0.2v-9.6h17.6L71.3,146.5z"/>
	<path class="st2" d="M101.3,131.4c-30,5-60.9,5-90.9,0c-9.1-1.5-13.4-9.6-8.2-15.6c4.7-5.5,9.4-11,14-16.6
		c9.7-11.6,19.1-23.4,28.4-35.3c5.1-6.6,17.4-6.6,22.5,0c9.3,11.9,18.7,23.7,28.4,35.3c4.6,5.6,9.3,11.1,14,16.6
		C114.7,121.8,110.4,129.9,101.3,131.4z"/>
	<path class="st3" d="M95.5,99.2c-0.3,0.1-0.7,0.2-1.1,0.2c-25.4,4.2-51.7,4.2-77.1,0c-0.4-0.1-0.7-0.1-1.1-0.2
		c9.7-11.6,19.1-23.4,28.4-35.3c5.1-6.6,17.4-6.6,22.5,0C76.4,75.8,85.8,87.6,95.5,99.2z"/>
	<path class="st2" d="M94.4,90.2c-25.4,4.2-51.7,4.2-77.1,0C9.6,89,6,82.1,10.4,77c5.9-6.9,11.7-13.8,17.4-20.8
		c6.3-7.7,12.5-15.4,18.5-23.2c4.3-5.6,14.7-5.6,19.1,0c6.1,7.8,12.3,15.6,18.5,23.2c5.7,7,11.5,13.9,17.4,20.8
		C105.8,82.1,102.1,89,94.4,90.2L94.4,90.2z"/>
	<path class="st3" d="M84,56.2c-18.5,2.9-37.6,2.9-56.1,0c6.3-7.7,12.5-15.4,18.5-23.2c4.3-5.6,14.7-5.6,19.1,0
		C71.5,40.8,77.7,48.5,84,56.2z"/>
	<path class="st2" d="M48.5,3.6c-8.9,11.5-18.2,22.8-27.7,33.9c-3.4,3.9-0.6,9.2,5.4,10.2C45.8,51,66,51,85.6,47.7
		c5.9-1,8.7-6.3,5.4-10.2C81.4,26.5,72.2,15.2,63.2,3.6C59.9-0.7,51.9-0.7,48.5,3.6L48.5,3.6z"/>
	<path class="st3" d="M55.3,0.4L55.3,0.4c0,0-28.1,47.4-13.9,49.2c-5.1-0.4-10.2-1-15.2-1.9c-5.9-1-8.7-6.3-5.4-10.2
		c9.5-11.1,18.8-22.4,27.7-33.9C50.1,1.6,52.7,0.6,55.3,0.4L55.3,0.4z"/>
	<path class="st3" d="M45.2,57.3l-6,17.9l-5.8,17.1c-5.4-0.5-10.8-1.2-16.1-2.1C9.6,89,6,82.1,10.4,77c5.4-6.3,10.8-12.7,16.1-19.1
		c1.4-1.7,2.9-3.5,4.3-5.3L45.2,57.3z"/>
	<path class="st3" d="M31.1,134C31.1,134,31.1,134,31.1,134c-6.9-0.6-13.8-1.5-20.6-2.6c-9.1-1.5-13.4-9.6-8.2-15.6
		c4.3-5,8.6-10.1,12.8-15.2c2.6-3.2,5.3-6.4,7.9-9.5l0.3-0.5L38.3,99C38.3,99,9.6,127.7,31.1,134z"/>
	<path class="st4" d="M39.8,97c0,6.3-5.1,11.5-11.5,11.5c-6.3,0-11.5-5.1-11.5-11.5c0-6.3,5.1-11.5,11.5-11.5
		C34.7,85.5,39.8,90.6,39.8,97z"/>
	<path class="st4" d="M95,67.8c0,6.3-5.1,11.5-11.5,11.5c-6.3,0-11.5-5.1-11.5-11.5c0-6.3,5.1-11.5,11.5-11.5
		C89.9,56.3,95,61.4,95,67.8z"/>
	<path class="st4" d="M53.6,23.8c0,6.3-5.1,11.5-11.5,11.5c-6.3,0-11.5-5.1-11.5-11.5c0-6.3,5.1-11.5,11.5-11.5
		C48.5,12.4,53.6,17.5,53.6,23.8z"/>
	<path class="st5" d="M31.9,107.9c-1.1,0.4-2.3,0.6-3.6,0.6c-6.3,0-11.5-5.1-11.5-11.5c0-6.3,5.1-11.5,11.5-11.5
		c1.2,0,2.4,0.2,3.6,0.6C27.3,87.6,24,91.9,24,97C24,102.1,27.3,106.4,31.9,107.9z"/>
	<path class="st5" d="M87.1,78.7c-1.1,0.4-2.3,0.6-3.6,0.6c-6.3,0-11.5-5.1-11.5-11.5c0-6.3,5.1-11.5,11.5-11.5
		c1.2,0,2.4,0.2,3.6,0.6c-4.6,1.5-7.9,5.8-7.9,10.9C79.2,72.9,82.5,77.2,87.1,78.7z"/>
	<path class="st5" d="M45.7,34.8c-1.1,0.4-2.3,0.6-3.6,0.6c-6.3,0-11.5-5.1-11.5-11.5c0-6.3,5.1-11.5,11.5-11.5
		c1.2,0,2.4,0.2,3.6,0.6c-4.6,1.5-7.9,5.8-7.9,10.9C37.8,28.9,41.1,33.3,45.7,34.8z"/>
</g>
</svg>
